<?xml version="1.0" encoding="UTF-8" standalone="no"?>
<!-- Created with Inkscape (http://www.inkscape.org/) -->

<svg
   xmlns:dc="http://purl.org/dc/elements/1.1/"
   xmlns:cc="http://creativecommons.org/ns#"
   xmlns:rdf="http://www.w3.org/1999/02/22-rdf-syntax-ns#"
   xmlns:svg="http://www.w3.org/2000/svg"
   xmlns="http://www.w3.org/2000/svg"
   xmlns:xlink="http://www.w3.org/1999/xlink"
   xmlns:sodipodi="http://sodipodi.sourceforge.net/DTD/sodipodi-0.dtd"
   xmlns:inkscape="http://www.inkscape.org/namespaces/inkscape"
   width="77.772446mm"
   height="44.573235mm"
   viewBox="0 0 275.57166 157.93666"
   id="svg5465"
   version="1.1"
   inkscape:version="0.91 r13725"
   sodipodi:docname="acessrock.svg">
  <defs
     id="defs5467">
    <linearGradient
       inkscape:collect="always"
       id="linearGradient6048">
      <stop
         style="stop-color:#357c94;stop-opacity:1"
         offset="0"
         id="stop6028" />
      <stop
         style="stop-color:#1e4451;stop-opacity:1"
         offset="1"
         id="stop6030" />
    </linearGradient>
    <radialGradient
       inkscape:collect="always"
       xlink:href="#linearGradient6048"
       id="radialGradient6054"
       cx="341.01099"
       cy="401.5459"
       fx="341.01099"
       fy="401.5459"
       r="83.408272"
       gradientTransform="matrix(-0.88825401,-0.11939378,0.00368548,0.66086656,615.75849,178.90426)"
       gradientUnits="userSpaceOnUse"
       spreadMethod="pad" />
  </defs>
  <sodipodi:namedview
     id="base"
     pagecolor="#ffffff"
     bordercolor="#666666"
     borderopacity="1.0"
     inkscape:pageopacity="0.0"
     inkscape:pageshadow="2"
     inkscape:zoom="3.553764"
     inkscape:cx="177.6428"
     inkscape:cy="71.715056"
     inkscape:document-units="px"
     inkscape:current-layer="layer1"
     showgrid="false"
     inkscape:window-width="1920"
     inkscape:window-height="1005"
     inkscape:window-x="1911"
     inkscape:window-y="-9"
     inkscape:window-maximized="1"
     fit-margin-top="0"
     fit-margin-left="0"
     fit-margin-right="0"
     fit-margin-bottom="0" />
  <metadata
     id="metadata5470">
    <rdf:RDF>
      <cc:Work
         rdf:about="">
        <dc:format>image/svg+xml</dc:format>
        <dc:type
           rdf:resource="http://purl.org/dc/dcmitype/StillImage" />
        <dc:title />
      </cc:Work>
    </rdf:RDF>
  </metadata>
  <g
     inkscape:label="Layer 1"
     inkscape:groupmode="layer"
     id="layer1"
     transform="translate(-192.78258,-336.86074)">
    <path
       style="opacity:0.5;fill:none;fill-rule:evenodd;stroke:#000000;stroke-width:0.98732013;stroke-linecap:round;stroke-linejoin:round;stroke-miterlimit:4;stroke-dasharray:none;stroke-dashoffset:0;stroke-opacity:1"
       d="m 395.64645,428.44608 c 31.0149,11.50161 28.22833,29.95997 -5.1175,40.54992 -34.64388,11.00218 -90.22528,10.01067 -122.10339,-1.8277 -33.09838,-12.29154 -30.10681,-32.00584 5.53426,-43.30931 36.98307,-11.72906 96.28312,-10.66593 130.27348,1.97351 35.24956,13.1077 32.04578,34.1193 -5.96694,46.15952 -39.39864,12.4792 -102.5378,11.34197 -138.70812,-2.12477 -37.4685,-13.95008 -34.04523,-36.30033 6.41552,-49.10056 41.89058,-13.25259 108.98929,-12.03877 147.40734,2.2815 39.75514,14.81868 36.10516,38.54892 -6.88001,52.13242 -44.45894,14.04923 -115.63766,12.75633 -156.37112,-2.44368 -42.10954,-15.71351 -38.2256,-40.86511 7.36038,-55.25512 47.10369,-14.86912 122.48286,-13.49466 165.59948,2.61133 44.53167,16.63457 40.40652,43.24885 -7.85665,58.46865 -49.82483,15.71225 -129.52492,14.25375 -175.09244,-2.78444 -47.0215,-17.58185 -42.64791,-45.7002 8.36885,-61.773 52.62235,-16.57865 136.76381,-15.03362 184.84995,2.963 49.57907,18.55536 44.94981,48.2191 -8.89694,65.16818 -55.49627,17.46829 -144.19954,15.83424 -194.87203,-3.14703 -52.20438,-19.55509 -47.3122,-50.80558 9.44093,-68.65419 18.68118,-5.87514 41.8506,-9.98632 66.6008,-11.83911"
       id="path6077"
       inkscape:connector-curvature="0"
       sodipodi:nodetypes="csssssssssssssssssssc" />
    <path
       style="fill:url(#radialGradient6054);fill-opacity:1"
       d="m 359.58692,465.11875 c 7.02202,0.50854 51.47281,-11.12525 46.28916,-18.82953 -0.35864,-0.33395 -0.92473,-1.17289 -1.25806,-1.8643 -0.86932,-1.80328 0.55034,-4.8961 -3.95221,-7.74235 -5.31138,-3.35752 -4.88907,-6.27402 -6.02853,-8.64361 -1.09367,-2.27433 -3.70102,-5.21686 -5.16432,-12.61985 -1.60595,-8.12471 -5.72255,-6.73109 -9.45673,-14.15174 -1.80642,-3.58978 -4.48394,-9.18916 -5.95003,-12.44306 -2.93852,-6.52193 -4.9065,-10.11877 -7.28239,-13.30994 -2.06299,-2.77096 -3.63878,-4.42393 -9.4084,-9.86927 -2.64431,-2.49566 -6.066,-5.78575 -7.60376,-7.31132 -6.62848,-6.57589 -11.47126,-9.21898 -17.47588,-9.53791 -6.52196,-0.34628 -8.98172,1.43212 -16.72921,12.09608 -4.70865,6.48114 -5.54616,8.09306 -10.86147,20.90475 -3.24691,7.82606 -5.21419,11.52205 -8.03194,15.08979 -2.89799,3.66927 -4.4999,5.11978 -12.20741,11.0533 -6.43197,4.9516 -7.86126,6.29951 -10.75878,10.14627 -2.8292,3.75604 -4.13412,6.45745 -7.15251,14.80673 -1.36656,3.78018 -3.0539,8.32567 -3.74958,10.10108 -2.04088,5.20825 -2.06806,6.95435 -0.15701,10.08154 1.27486,2.08613 3.75165,3.94274 6.48042,4.8577 1.73623,0.58218 3.80408,0.82475 11.54563,1.35447 5.18683,0.3549 13.04296,1.02104 17.45805,1.4803 22.5738,2.3482 53.7735,4.55703 61.455,4.35085 z"
       id="path6024"
       inkscape:connector-curvature="0"
       sodipodi:nodetypes="ccssssssssssssssssssssscc" />
    <path
       style="opacity:0.8;fill:#ffffff;fill-opacity:1"
       d="m 336.44305,449.0787 c -4.50661,-0.1331 -8.04891,-0.86537 -12.09183,-2.49942 -0.67282,-0.27194 -1.56636,-0.66771 -1.98562,-0.87947 -0.41928,-0.21179 -0.84991,-0.42648 -0.95698,-0.47713 -0.10704,-0.0507 -0.48976,-0.26221 -0.85043,-0.47018 -0.36069,-0.20795 -0.76688,-0.44187 -0.90262,-0.51982 -2.58702,-1.48539 -6.39244,-4.72787 -8.26969,-7.04626 -1.93272,-2.38696 -3.0353,-4.04371 -4.3173,-6.48726 -3.81747,-7.27633 -4.68091,-16.3272 -2.33235,-24.44899 0.58336,-2.0173 1.99364,-5.34191 3.0254,-7.13205 0.16007,-0.27769 0.39848,-0.69156 0.52982,-0.91969 1.07982,-1.87555 3.29003,-4.7048 5.06853,-6.48815 2.89166,-2.89946 6.99469,-5.63756 10.82075,-7.22099 7.9626,-3.29544 16.94795,-3.39688 24.78442,-0.2798 3.80628,1.51401 6.76314,3.29035 9.78258,5.87694 1.8904,1.61942 3.1424,2.91306 4.50556,4.65553 3.73479,4.77414 5.6987,9.11297 6.80653,15.03767 0.94506,5.05409 0.52424,11.0742 -1.11676,15.97636 -0.34908,1.04278 -1.37547,3.62364 -1.66209,4.17938 -1.52157,2.94997 -2.97606,5.18437 -4.67013,7.17426 -0.97515,1.14546 -3.03471,3.21592 -3.96898,3.99004 -5.70289,4.7252 -12.15631,7.37923 -19.17737,7.88691 -0.97953,0.0704 -2.33914,0.11231 -3.02144,0.0921 z m 5.90964,-4.99755 c 7.41494,-1.3822 14.21343,-5.78595 18.46612,-11.96148 4.518,-6.56078 6.16043,-14.13291 4.74998,-21.89899 -0.85357,-4.69978 -2.94622,-9.22456 -6.02613,-13.02987 -2.12405,-2.62434 -5.09948,-5.15916 -8.04312,-6.85214 -6.03054,-3.46836 -13.04804,-4.66749 -19.87132,-3.39555 -6.33206,1.18036 -11.73748,4.25993 -16.51413,9.40841 -0.67318,0.72562 -2.64564,3.50462 -3.30177,4.65188 -2.46178,4.30473 -3.78026,9.00224 -3.87769,13.8159 -0.14218,7.02006 2.07769,13.50605 6.50748,19.01386 0.82852,1.03012 3.21227,3.46067 3.99101,4.06935 1.96816,1.53832 4.25916,2.98578 6.18276,3.9062 1.30924,0.6265 4.0218,1.59078 5.50449,1.95682 3.87341,0.95624 8.19717,1.06781 12.23234,0.31558 z m -10.36141,-3.45666 c -0.66412,-0.17922 -1.19588,-0.59925 -1.59433,-1.25927 -0.4537,-0.75155 -0.46479,-0.8593 -0.28185,-2.73319 0.0795,-0.81368 0.22334,-2.35746 0.31979,-3.43061 0.0965,-1.07315 0.24076,-2.61021 0.32072,-3.41569 0.13344,-1.3442 0.32612,-3.38997 0.79671,-8.45813 0.3396,-3.65741 0.33964,-3.66473 0.0542,-8.02213 -0.15043,-2.29647 -0.33094,-4.36452 -0.40109,-4.59569 -0.11055,-0.36414 -0.17023,-0.42098 -0.44671,-0.42552 -0.26047,-0.004 -0.49406,0.16271 -1.27143,0.90875 -1.22513,1.17573 -3.76635,3.72354 -5.89042,5.90569 -0.91947,0.94459 -1.85568,1.83055 -2.08045,1.96883 -0.56125,0.34521 -1.40107,0.40268 -2.04319,0.13979 -0.7062,-0.28909 -1.17309,-0.89572 -1.29319,-1.68035 -0.16857,-1.10239 -0.0421,-1.27495 3.75138,-5.11196 2.5068,-2.53559 3.53157,-3.58574 3.75432,-3.84727 0.10823,-0.12702 0.59426,-0.65016 1.08014,-1.16249 0.4859,-0.51236 1.22016,-1.29384 1.63168,-1.73665 0.45285,-0.48726 0.99658,-0.9425 1.37733,-1.1532 1.00678,-0.55708 1.95355,-0.70346 6.70257,-1.03625 5.6783,-0.39796 5.1958,-0.52706 8.95512,2.3964 2.30394,1.79166 3.69257,2.8341 6.00137,4.50532 2.58239,1.86921 3.74412,2.8034 3.9275,3.15813 0.46163,0.8931 0.14825,2.20825 -0.67313,2.82465 -0.38928,0.29214 -0.57555,0.35769 -1.1268,0.3965 -0.85537,0.0604 -1.14751,-0.0927 -3.42959,-1.79593 -0.97561,-0.72817 -2.28765,-1.69291 -2.91557,-2.14388 -0.62795,-0.45098 -1.82455,-1.33098 -2.65914,-1.95555 -1.61924,-1.21183 -2.52208,-1.68039 -2.84184,-1.47494 -0.29356,0.18861 -0.27246,0.76743 0.17808,4.87866 0.46962,4.28584 0.66749,5.42027 1.48872,8.5446 0.55381,2.10657 0.76406,2.91502 1.54913,5.95688 0.37906,1.46867 1.02694,3.97081 1.96574,7.59172 0.73755,2.84454 0.73141,2.78936 0.40318,3.61654 -0.44032,1.10968 -1.18007,1.65142 -2.40029,1.7579 -1.11827,0.0973 -2.23381,-0.54024 -2.63524,-1.50672 -0.13146,-0.31663 -0.97092,-3.54316 -1.6457,-6.32582 -0.32298,-1.33195 -1.15823,-4.58021 -1.41003,-5.48369 -0.12102,-0.43428 -0.36632,-1.31062 -0.54504,-1.94746 -0.17878,-0.63684 -0.41594,-1.50647 -0.52711,-1.93254 -0.26893,-1.03074 -0.73643,-1.46514 -0.97898,-0.90968 -0.0529,0.12099 -0.19291,1.11289 -0.31131,2.20421 -0.11835,1.09132 -0.25839,2.35089 -0.31106,2.79901 -0.1202,1.02176 -0.36911,3.77498 -0.72053,7.96775 -0.3362,4.01119 -0.44049,4.55187 -0.99035,5.13461 -0.22495,0.23841 -0.60085,0.53975 -0.83537,0.66969 -0.49677,0.27526 -1.41601,0.376 -1.99795,0.21896 z m 2.37137,-40.4949 c -1.09347,-0.25884 -1.85226,-0.69275 -2.52842,-1.44591 -0.80176,-0.893 -1.17591,-1.78562 -1.27045,-3.03087 -0.0951,-1.24784 0.17212,-2.2084 0.90088,-3.24282 0.87264,-1.23867 1.91613,-1.81351 3.52531,-1.94204 1.51499,-0.12103 2.46159,0.17584 3.5896,1.1258 1.87401,1.5782 2.24725,4.54814 0.8251,6.56585 -1.09036,1.547 -3.25541,2.39292 -5.04205,1.96999 z"
       id="path4150"
       inkscape:connector-curvature="0" />
  </g>
</svg>
