<?xml version="1.0" encoding="UTF-8" standalone="no"?>
<!-- Created with Inkscape (http://www.inkscape.org/) -->

<svg
   xmlns:dc="http://purl.org/dc/elements/1.1/"
   xmlns:cc="http://creativecommons.org/ns#"
   xmlns:rdf="http://www.w3.org/1999/02/22-rdf-syntax-ns#"
   xmlns:svg="http://www.w3.org/2000/svg"
   xmlns="http://www.w3.org/2000/svg"
   xmlns:xlink="http://www.w3.org/1999/xlink"
   xmlns:sodipodi="http://sodipodi.sourceforge.net/DTD/sodipodi-0.dtd"
   xmlns:inkscape="http://www.inkscape.org/namespaces/inkscape"
   width="200.13222mm"
   height="38.65205mm"
   viewBox="0 0 709.12991 136.95608"
   id="svg6102"
   version="1.1"
   inkscape:version="0.91 r13725"
   sodipodi:docname="backwall.svg">
  <defs
     id="defs6104">
    <linearGradient
       inkscape:collect="always"
       xlink:href="#linearGradient5915"
       id="linearGradient5907"
       x1="-168.00403"
       y1="588.49512"
       x2="-168.00403"
       y2="700.52917"
       gradientUnits="userSpaceOnUse"
       gradientTransform="matrix(2.3502758,0,0,1.4912041,834.12593,-603.88333)" />
    <linearGradient
       inkscape:collect="always"
       id="linearGradient5915">
      <stop
         style="stop-color:#ffe59f;stop-opacity:1;"
         offset="0"
         id="stop5903" />
      <stop
         style="stop-color:#ffffff;stop-opacity:1"
         offset="1"
         id="stop5905" />
    </linearGradient>
    <pattern
       inkscape:stockid="Stripes 1:2"
       id="Strips1_2"
       patternTransform="translate(0,0) scale(10,10)"
       height="1"
       width="3"
       patternUnits="userSpaceOnUse"
       inkscape:collect="always">
      <rect
         id="rect4959"
         height="2"
         width="1"
         y="-0.5"
         x="0"
         style="fill:black;stroke:none" />
    </pattern>
  </defs>
  <sodipodi:namedview
     id="base"
     pagecolor="#ffffff"
     bordercolor="#666666"
     borderopacity="1.0"
     inkscape:pageopacity="0.0"
     inkscape:pageshadow="2"
     inkscape:zoom="1.8119644"
     inkscape:cx="553.88242"
     inkscape:cy="81.855416"
     inkscape:document-units="px"
     inkscape:current-layer="layer1"
     showgrid="false"
     fit-margin-top="0"
     fit-margin-left="0"
     fit-margin-right="0"
     fit-margin-bottom="0"
     inkscape:window-width="1920"
     inkscape:window-height="1005"
     inkscape:window-x="1911"
     inkscape:window-y="-9"
     inkscape:window-maximized="1" />
  <metadata
     id="metadata6107">
    <rdf:RDF>
      <cc:Work
         rdf:about="">
        <dc:format>image/svg+xml</dc:format>
        <dc:type
           rdf:resource="http://purl.org/dc/dcmitype/StillImage" />
        <dc:title></dc:title>
      </cc:Work>
    </rdf:RDF>
  </metadata>
  <g
     inkscape:label="Layer 1"
     inkscape:groupmode="layer"
     id="layer1"
     transform="translate(-48.843541,-263.3206)">
    <rect
       style="fill:url(#linearGradient5907);fill-opacity:1;stroke:none;stroke-width:1.27801073;stroke-opacity:1"
       id="rect4383"
       width="708.38757"
       height="112.78166"
       x="49.585861"
       y="287.49503" />
    <path
       style="fill:#177400;fill-opacity:1"
       d="m 615.38536,435.36804 c 2.31403,-0.5697 4.46218,-3.10176 5.3089,-6.25771 0.22396,-0.83469 0.48571,-1.51616 0.58166,-1.51438 0.096,0.002 0.89722,0.44693 1.78057,0.98925 6.19664,3.80435 12.6635,5.46503 17.38018,4.46321 7.60958,-1.61627 11.41885,-9.24458 9.13324,-18.29003 -1.19457,-4.72759 -3.21123,-8.55953 -7.01274,-13.32513 -1.33523,-1.67387 -1.64763,-2.18447 -1.25585,-2.05276 0.28682,0.0964 1.23229,0.25363 2.10104,0.34931 2.1577,0.23766 3.59587,-0.2417 4.97254,-1.65731 1.94977,-2.00495 2.75962,-4.77124 2.77975,-9.49519 0.011,-2.57113 -0.0877,-3.58359 -0.58616,-6.01758 -0.6892,-3.36516 -2.11562,-7.23916 -3.68775,-10.01546 -1.35197,-2.38758 -4.20902,-5.70792 -6.13679,-7.13192 -1.70281,-1.25781 -4.38006,-2.48104 -6.03123,-2.75562 -1.05099,-0.17474 -1.11668,-0.22538 -0.99412,-0.76585 1.02344,-4.5126 -0.62061,-9.73528 -4.03203,-12.80867 -1.47547,-1.32928 -4.19008,-2.89909 -5.9209,-3.42397 -4.76804,-1.4459 -10.24234,-0.42084 -13.89693,2.60221 -0.47118,0.38976 -0.92828,0.70732 -1.0158,0.70571 -0.0875,-0.001 -0.14657,-0.48351 -0.13125,-1.07089 0.0921,-3.53006 -3.90358,-8.24634 -8.3025,-9.79991 -3.61397,-1.27633 -7.12053,-0.59814 -9.91428,1.91764 -0.74544,0.67124 -2.5834,3.2542 -2.78931,3.91991 -0.057,0.18413 -0.6528,-0.41578 -1.45035,-1.46027 -1.05101,-1.37646 -1.69426,-1.96897 -2.87697,-2.65004 -1.48426,-0.85472 -1.59035,-0.87824 -4.14179,-0.91791 -3.03879,-0.0465 -4.34838,0.31326 -7.54455,2.07694 -3.11962,1.72145 -5.57835,3.77514 -8.46229,7.06834 -2.47206,2.82289 -2.6675,2.99137 -3.45308,2.97685 -2.03026,-0.0375 -6.36356,1.2885 -9.13099,2.79415 -4.55856,2.48015 -7.89439,6.36368 -9.08866,10.58089 -0.11713,0.41379 -0.28796,1.73701 -0.37951,2.94051 l -0.16648,2.1882 -1.89586,0.76304 c -5.47055,2.20177 -9.34763,5.75451 -11.56418,10.59673 -1.30407,2.84891 -1.79027,5.14717 -1.84184,8.70667 -0.0489,3.40684 0.29341,5.83565 1.28773,9.1251 l 0.66154,2.18861 -0.42942,1.52547 c -0.84549,3.00346 -0.31164,6.6127 1.39171,9.40919 1.90639,3.12981 5.67387,5.92336 9.74248,7.22395 1.95778,0.62583 2.56934,0.70643 5.75186,0.75805 3.82377,0.062 5.92106,-0.28354 9.06241,-1.49315 l 1.50744,-0.58044 2.98466,1.53755 c 12.45125,6.41439 20.62762,7.59966 26.17579,3.79454 1.09133,-0.74847 1.35858,-0.81868 3.58398,-0.94154 l 2.40473,-0.13276 0.41036,0.9874 c 0.56822,1.3672 2.36947,3.30092 4.13244,4.43638 2.9231,1.88267 5.66523,2.76728 8.82294,2.84635 l 2.23209,0.0559 1.22182,1.41605 c 2.5276,2.92942 5.87291,4.31576 8.72173,3.6144 z"
       id="path4182-0"
       inkscape:connector-curvature="0" />
    <g
       id="g6046"
       transform="matrix(2.3502756,0,0,1.0413946,833.30074,-334.47136)">
      <rect
         y="574.18555"
         x="-333.77243"
         height="23.243572"
         width="301.41656"
         id="rect4404"
         style="fill:#001d55;fill-opacity:1;stroke:none;stroke-width:0.9916814;stroke-opacity:1" />
      <rect
         y="574.03021"
         x="-333.63312"
         height="22.470011"
         width="298.91467"
         id="rect4404-4"
         style="opacity:0.32099998;fill:url(#Strips1_2);fill-opacity:1;stroke:none;stroke-width:0.9916814;stroke-opacity:1" />
    </g>
    <path
       style="fill:#9100b5;fill-opacity:1"
       d="m 97.814345,398.94227 c -0.53057,-0.37162 -0.59983,-0.55822 -0.32856,-0.8851 0.29317,-0.35323 -0.41303,-0.38813 -4.79827,-0.2371 -3.10206,0.10685 -5.64546,0.34051 -6.41101,0.58896 -1.64079,0.53252 -5.188678,0.52983 -6.386096,-0.004 -0.668042,-0.2983 -2.790613,-0.46255 -7.470231,-0.57807 -7.424492,-0.18328 -8.746093,-0.45984 -10.593116,-2.21672 -0.626005,-0.59546 -1.524306,-1.74898 -1.996219,-2.56339 -0.70719,-1.22043 -0.858514,-1.82173 -0.8608,-3.42045 -0.0033,-2.43415 0.74399,-3.69569 3.350233,-5.65433 2.273942,-1.7089 9.989717,-5.49107 14.068051,-6.89596 4.183628,-1.44116 4.161015,-1.42493 3.069337,-2.20228 -1.390626,-0.99022 -2.747403,-3.42958 -2.938759,-5.28364 -0.167887,-1.62665 0.206197,-6.1223 1.017573,-12.2291 0.248877,-1.87314 0.551842,-5.87112 0.673274,-8.88443 0.256994,-6.37763 0.701063,-8.24365 2.428891,-10.20658 1.572352,-1.78628 3.434572,-2.50731 6.980062,-2.7026 4.55335,-0.25081 4.5829,-0.26765 2.58278,-1.47206 -6.35444,-3.82644 -10.207762,-10.75074 -10.207762,-18.34303 0,-7.74802 3.720422,-14.309 10.317972,-18.19576 3.63023,-2.13866 5.19714,-2.51898 10.412355,-2.52726 3.74161,-0.006 4.89143,0.0961 6.2191,0.5521 7.00873,2.40709 11.92365,7.28195 14.21574,14.0999 0.92515,2.75187 1.14241,8.00709 0.45819,11.08254 -1.0516,4.72676 -4.42789,9.80284 -8.28897,12.46208 -1.92349,1.32476 -1.83383,1.62126 0.58969,1.95014 2.003,0.27182 4.48524,1.47242 5.757,2.78455 1.63994,1.69199 2.93922,8.29689 2.97163,15.10629 0.0101,2.11745 0.1456,4.44961 0.30117,5.18257 1.03361,4.87011 0.88513,11.77875 -0.31882,14.83319 -0.35816,0.90865 -0.58212,2.1859 -0.58212,3.31984 l 0,1.84299 3.47974,1.11817 c 1.91385,0.61501 3.59505,1.11339 3.736,1.10753 0.14094,-0.006 1.20707,0.43628 2.36918,0.98254 3.71039,1.74415 7.10014,5.47048 7.47427,8.21643 0.38183,2.80237 -1.28913,6.41031 -3.37185,7.28053 -1.27628,0.53326 -9.50847,0.92871 -19.90643,0.95623 -2.85043,0.008 -6.38198,-0.10271 -7.84791,-0.245 -1.59251,-0.15458 -2.7995,-0.14976 -2.99869,0.012 -0.18334,0.14888 -0.96124,0.33424 -1.72866,0.41189 -0.76742,0.0777 -1.73482,0.40826 -2.1498,0.73467 -0.90693,0.7134 -2.366945,0.76783 -3.288165,0.12258 z m 5.030465,-1.60213 c 1.18179,0 2.23157,-0.75473 2.8308,-2.03521 1.13631,-2.42812 4.77718,-5.25826 7.41259,-5.762 1.51827,-0.29019 1.11511,0.17017 -0.96113,1.09752 -1.04922,0.46863 -2.43918,1.307 -3.08878,1.86304 -1.1217,0.96014 -2.98359,3.4075 -2.98359,3.92181 0,0.26095 2.42226,0.61199 4.25132,0.61612 0.62796,0.002 2.22716,-0.31818 3.55377,-0.71021 2.67765,-0.7913 5.02046,-1.15512 4.76376,-0.73978 -0.0911,0.14739 -0.4576,0.2685 -0.81447,0.26913 -0.91035,0.002 -4.41553,1.01987 -4.21187,1.22354 0.23118,0.23117 8.48167,0.005 12.41813,-0.33976 3.49476,-0.30647 4.86409,-0.79427 7.16945,-2.55399 0.71504,-0.5458 1.30006,-0.87694 1.30006,-0.73589 0,0.32417 -2.41763,2.56619 -2.9832,2.7665 -0.23237,0.0823 -0.32584,0.25344 -0.20771,0.38029 0.24487,0.26296 3.46142,-0.35487 4.8703,-0.9355 1.73642,-0.7156 2.7463,-4.96259 1.74812,-7.35158 -0.62801,-1.50304 -2.85694,-2.54068 -5.90665,-2.7497 -1.79424,-0.12299 -2.20551,-0.22509 -1.68385,-0.41806 0.9111,-0.33704 3.52693,-0.42044 4.45914,-0.14217 0.64406,0.19225 0.59326,0.0877 -0.3906,-0.80408 -1.94383,-1.76185 -4.15907,-2.66345 -7.01308,-2.85435 -2.1213,-0.14189 -2.40266,-0.21782 -1.78868,-0.48274 0.6929,-0.29899 0.6494,-0.34042 -0.88845,-0.84622 -0.88935,-0.29251 -1.77929,-0.59165 -1.97764,-0.66478 -0.2667,-0.0983 -0.32982,0.34913 -0.24236,1.71783 0.11777,1.84265 0.12385,1.85358 1.37995,2.48601 0.69392,0.34937 1.48382,1.03288 1.75534,1.5189 0.78769,1.40995 2.13567,2.69375 3.05841,2.91278 0.89474,0.21238 2.55334,1.66568 2.55334,2.23731 0,0.18369 -0.43312,0.006 -0.96248,-0.3951 -1.53853,-1.16546 -3.91424,-1.70532 -7.07496,-1.60773 l -2.77194,0.0856 1.03652,0.48294 c 0.57008,0.26563 1.50294,0.98546 2.07303,1.59965 l 1.03652,1.11671 -1.33267,-0.8873 c -2.00662,-1.33604 -3.97321,-1.89444 -7.32713,-2.08049 -4.31898,-0.23958 -7.83134,0.30496 -11.31404,1.75408 -6.326865,2.63257 -9.260085,3.55292 -12.528345,3.93104 -0.99137,0.11469 -1.7056,0.34278 -1.70944,0.54589 -0.003,0.19187 -0.26719,0.68203 -0.5857,1.08924 -0.31852,0.4072 -0.58209,0.861 -0.58572,1.00846 -0.004,0.15723 1.91528,0.18523 4.64052,0.0677 l 4.64709,-0.20038 1.269981,-1.32542 c 0.698494,-0.72898 1.353704,-1.659 1.456044,-2.06672 0.10232,-0.40771 0.30486,-0.74129 0.45009,-0.74129 0.36981,0 0.32919,1.09705 -0.0692,1.87038 -0.30713,0.59613 -0.63104,0.97283 -2.573264,2.99273 -0.647301,0.6732 -0.655541,0.72973 -0.148081,1.01597 0.410461,0.23153 0.843421,0.13262 1.833305,-0.4188 0.71276,-0.39707 1.68363,-0.72193 2.15749,-0.72193 z m -16.722965,0.14081 c 2.22688,-0.82587 3.20019,-1.86541 3.65916,-3.90814 0.42578,-1.89499 1.68735,-4.43993 2.82539,-5.69961 1.00806,-1.1158 1.03523,-1.19436 0.41321,-1.19436 -0.95459,0 -2.34196,1.61029 -3.62631,4.209 -1.03855,2.10138 -2.75913,4.08313 -3.54502,4.08313 -0.18916,0 0.0718,-0.43312 0.57983,-0.96248 0.50807,-0.52938 1.55373,-2.20019 2.32367,-3.71294 0.76994,-1.51275 1.78991,-3.07863 2.2666,-3.47973 l 0.86669,-0.72928 -1.18459,0 c -1.58483,0 -2.64968,0.93318 -4.14774,3.63488 -1.31764,2.3763 -3.70722,5.24955 -4.36586,5.24955 -0.26099,0 0.14061,-0.72133 1.03578,-1.86041 0.80412,-1.02322 2.05981,-2.8715 2.79042,-4.10728 l 1.32839,-2.24688 -2.02807,-0.33493 c -4.508501,-0.74457 -6.009616,-0.49678 -9.613806,1.58692 -1.383034,0.79957 -1.441658,0.81031 -0.888442,0.16266 0.325764,-0.38137 1.171463,-1.06459 1.879336,-1.51828 l 1.287043,-0.82488 -1.089837,-0.20445 c -1.256033,-0.23564 -5.245032,0.35781 -6.444715,0.95878 -1.120094,0.5611 -1.025129,0.22268 0.148077,-0.52766 l 0.962477,-0.61557 -1.480736,0.15467 c -0.814407,0.0851 -1.747273,0.25572 -2.073031,0.37923 -0.514708,0.19513 -0.541886,0.1625 -0.207443,-0.24911 0.831865,-1.0238 2.805637,-1.1517 10.424525,-0.67547 3.990582,0.24943 7.853442,0.57292 8.584132,0.71888 0.90284,0.18035 1.51962,0.15835 1.92495,-0.0687 0.32805,-0.18373 1.2856,-0.4048 2.12789,-0.49127 l 1.53144,-0.15721 -0.56483,-0.69404 c -0.76433,-0.93916 -3.47172,-1.21646 -5.12647,-0.52505 -1.33666,0.55848 -1.36958,0.56351 -1.36958,0.20899 0,-0.38561 2.4205,-1.50547 3.27708,-1.51616 1.51112,-0.0189 -0.22212,-0.56007 -2.96196,-0.92485 -2.15876,-0.28742 -2.59318,-0.42014 -2.04613,-0.6251 0.38197,-0.14309 1.19424,-0.21384 1.80505,-0.15719 0.61081,0.0567 1.11056,0.0862 1.11056,0.0657 0,-0.0205 -1.19941,-0.93635 -2.66534,-2.03519 -1.46593,-1.09883 -2.66532,-2.13391 -2.66532,-2.30018 0,-0.38014 -0.701318,-0.21338 -3.823417,0.90912 -2.248511,0.80841 -2.406924,0.91395 -1.628814,1.08522 1.559907,0.34335 2.42257,0.7708 3.127833,1.54986 l 0.695592,0.76836 -1.037935,-0.62336 c -0.570853,-0.34286 -1.922576,-0.78638 -3.003831,-0.9856 l -1.965921,-0.36224 -2.251499,1.15591 c -1.238329,0.63574 -2.252082,1.25585 -2.252778,1.37802 -6.62e-4,0.12215 0.590565,0.22211 1.313916,0.22211 0.72335,0 1.397551,0.13326 1.498215,0.29614 0.116789,0.18897 -0.77195,0.29615 -2.45567,0.29615 -2.983403,0 -4.23458,0.49 -7.069714,2.76873 -2.872914,2.3091 -3.464672,4.57572 -1.967285,7.53526 1.772431,3.50314 4.297723,4.65348 9.715215,4.42557 2.602932,-0.10951 3.794211,-0.31838 5.923514,-1.03858 1.465938,-0.49581 2.718835,-0.84929 2.784241,-0.78548 0.0654,0.0638 -0.696475,0.48453 -1.693054,0.93491 -0.996586,0.45039 -1.816379,0.91884 -1.821759,1.04099 -0.0053,0.12217 0.726471,0.22212 1.626348,0.22212 1.461844,0 1.665391,-0.0769 1.910782,-0.72236 0.345693,-0.90925 1.170003,-1.35825 2.430587,-1.32397 l 0.981954,0.0267 -1.03652,0.29115 c -1.454394,0.40853 -1.988155,0.969 -1.492089,1.56672 0.978957,1.17957 3.722969,1.30857 6.435619,0.30256 z m -4.12913,-0.16452 c -0.788648,-0.45936 -0.63984,-0.89629 0.19691,-0.57816 0.44729,0.17005 1.12326,0.15922 1.80466,-0.0289 1.39278,-0.38457 1.64825,-0.14124 0.48388,0.46088 -1.03392,0.53466 -1.74651,0.57657 -2.48545,0.14619 z m -14.762227,-8.63417 c -0.515118,-0.64747 -1.322296,-1.15402 -2.443213,-1.53327 -1.900823,-0.64311 -2.26585,-1.23932 -0.563399,-0.92019 2.445876,0.45849 4.13222,1.74559 3.874435,2.95716 -0.07231,0.33989 -0.303356,0.20579 -0.867823,-0.5037 z m 28.376147,4.02339 c 2.1673,-0.52357 5.254345,-1.68736 8.439975,-3.18181 3.61096,-1.69396 5.07288,-1.9098 14.00206,-2.06718 4.39779,-0.0775 8.06262,-0.16402 8.14405,-0.19224 0.49302,-0.17086 -3.86393,-0.79163 -4.59028,-0.65402 -0.80226,0.152 -0.84901,0.12039 -0.482,-0.32584 0.22355,-0.27179 0.78994,-0.49417 1.25863,-0.49417 1.05218,0 1.09376,-0.36292 0.10236,-0.8935 -0.64452,-0.34494 -0.94604,-0.33096 -2.14707,0.0995 -1.54268,0.55291 -5.04256,0.636 -7.76441,0.18433 -4.08956,-0.67863 -4.83627,-0.67766 -5.70084,0.008 -0.48755,0.38631 -0.81441,0.9338 -0.81441,1.36416 0,0.39538 -0.13327,0.71887 -0.29615,0.71887 -0.16288,0 -0.29615,-0.26653 -0.29615,-0.59229 0,-0.32576 -0.068,-0.59229 -0.15125,-0.59229 -0.0832,0 -1.38254,0.19158 -2.88744,0.42574 -1.50489,0.23416 -3.911695,0.51725 -5.348455,0.62907 -2.18263,0.16988 -2.75752,0.32555 -3.49542,0.94645 -0.82834,0.697 -2.28122,3.19948 -2.76819,4.76802 -0.21397,0.68918 -0.19617,0.69563 1.36807,0.49654 0.87168,-0.11093 2.41379,-0.40196 3.42692,-0.64671 z m 29.845725,-6.61911 c 0.10066,-0.16287 0.0498,-0.29615 -0.11312,-0.29615 -0.16289,0 -0.37851,0.13328 -0.47917,0.29615 -0.10068,0.16288 -0.0498,0.29615 0.11311,0.29615 0.16288,0 0.37851,-0.13327 0.47918,-0.29615 z m -21.64571,-0.62725 c 0.99211,-0.18831 2.07036,-0.57315 2.39612,-0.85521 0.32577,-0.28207 0.9921,-0.60607 1.48074,-0.72004 1.12396,-0.26213 3.08695,-1.39665 3.82214,-2.20901 0.56185,-0.62084 0.56054,-0.62299 -0.38005,-0.62299 -0.51912,0 -1.40507,-0.19271 -1.96877,-0.42825 -0.95855,-0.4005 -1.10655,-0.38155 -2.28563,0.29259 -0.90993,0.52025 -1.09106,0.72181 -0.65099,0.72438 0.33535,0.002 0.86842,0.21336 1.18459,0.46977 0.55589,0.45082 0.55088,0.46098 -0.15201,0.30805 -0.39976,-0.087 -1.56509,0.0524 -2.5896,0.30973 -1.49558,0.37569 -2.12242,0.40253 -3.18016,0.13619 -1.631494,-0.41082 -2.157384,-0.42634 -1.780694,-0.0526 0.347244,0.34456 2.519444,0.92099 4.204394,1.11572 1.68974,0.19529 1.27766,0.73875 -0.48907,0.64498 -0.76577,-0.0406 -1.51853,0.002 -1.67278,0.0939 -0.15425,0.0923 -0.96792,0.26044 -1.808154,0.37375 -1.746501,0.2355 -4.654341,-0.38812 -6.278741,-1.34653 -1.18429,-0.69876 -1.55208,-0.53129 -0.75866,0.34542 1.73658,1.9189 5.6175,2.42421 10.907325,1.42016 z m 20.83747,-0.20566 c 0.17768,-0.53303 -0.43445,-0.42102 -0.64102,0.11728 -0.11068,0.28842 -0.0444,0.42382 0.17192,0.35168 0.19354,-0.0645 0.40462,-0.27555 0.4691,-0.46896 z m -1.23395,-1.15992 c -0.0984,-0.0984 -0.1684,0.0765 -0.15553,0.3887 0.0142,0.345 0.0844,0.41517 0.17891,0.17892 0.0856,-0.21378 0.0751,-0.46921 -0.0234,-0.56762 z m -3.00044,0.0904 c 1.25966,-0.52633 1.54716,-1.70378 1.07627,-4.40784 -0.50886,-2.9221 -0.39773,-4.6606 0.46029,-7.20063 0.69908,-2.06948 0.7902,-2.80116 0.80694,-6.479 0.0103,-2.28033 -0.0883,-4.66993 -0.21925,-5.31019 l -0.23811,-1.16413 -0.53461,1.19407 c -1.09162,2.43823 -3.69076,4.3041 -6.53857,4.69393 l -1.32008,0.18071 1.72803,-0.73685 c 3.25278,-1.38701 4.84052,-2.85769 5.69269,-5.273 0.47494,-1.34612 0.62999,-11.63731 0.17953,-11.91572 -0.13622,-0.0841 -0.6307,0.64831 -1.09883,1.62777 -0.46814,0.97946 -1.3242,2.27319 -1.90236,2.87495 -0.57816,0.60177 -1.63313,1.7991 -2.34437,2.66075 -0.71125,0.86165 -1.35913,1.50069 -1.43973,1.42007 -0.26217,-0.26216 1.31983,-2.65591 2.70886,-4.09884 1.54691,-1.60694 3.00355,-4.29582 3.44681,-6.36267 0.5168,-2.40976 -0.86136,-6.88621 -2.42341,-7.87152 -1.27165,-0.80214 -3.78045,1.23206 -5.7577,4.66847 l -1.0319,1.79344 0.19829,-1.18459 c 0.10906,-0.65153 0.38792,-1.55903 0.61968,-2.01668 0.574,-1.13344 2.41939,-3.14464 3.47903,-3.79163 l 0.87003,-0.53122 -0.87003,-0.3466 c -0.47851,-0.19063 -1.46973,-0.41047 -2.2027,-0.48853 l -1.33267,-0.14191 -0.39527,1.70188 c -0.2174,0.93602 -0.57518,2.11582 -0.79505,2.62176 -0.21988,0.50594 -0.87325,2.45247 -1.45194,4.32559 -2.96392,9.59363 -3.88427,19.43189 -2.42029,25.87184 0.52333,2.30211 0.52222,2.34645 -0.0992,3.97032 -0.53417,1.39589 -0.57724,1.79736 -0.28708,2.67653 0.3067,0.92933 0.37236,0.97723 0.64681,0.47188 0.168,-0.30933 0.68572,-1.00194 1.15049,-1.53912 0.46476,-0.5372 1.32801,-1.9358 1.91835,-3.10804 0.59033,-1.17224 1.38524,-2.54029 1.76649,-3.04013 0.74172,-0.97246 3.3724,-2.99378 3.3724,-2.59125 0,0.13289 -0.74288,1.02093 -1.65084,1.97343 -0.98085,1.02897 -2.06947,2.60153 -2.68235,3.87483 -0.56734,1.17868 -1.55082,2.77147 -2.18552,3.53954 -1.00867,1.22063 -1.11357,1.48522 -0.833,2.10101 0.17655,0.38749 0.70801,0.86483 1.18102,1.06076 0.81685,0.33835 1.48709,0.31039 4.91206,-0.20485 0.85082,-0.12799 1.25863,-0.0807 1.25863,0.1458 0,0.18432 -0.28049,0.33515 -0.62332,0.33515 -0.49673,0 -5.1659,3.53007 -4.92093,3.72041 0.036,0.0281 0.53195,0.1342 1.10204,0.23599 0.92858,0.16578 1.08904,0.0928 1.54099,-0.70108 0.27747,-0.48738 0.74629,-0.88615 1.04181,-0.88615 0.87369,0 2.72503,-1.43481 2.93602,-2.27544 0.2541,-1.01241 -0.35337,-1.45984 -2.35815,-1.73689 -1.37674,-0.19026 -1.45689,-0.23979 -0.7915,-0.48917 0.95771,-0.35893 3.10366,-0.0389 3.57892,0.5338 0.20334,0.24502 0.36971,0.9059 0.36971,1.46864 0,1.24442 -0.83147,2.21023 -2.55818,2.9715 -1.30781,0.57658 -1.74362,0.97258 -1.5015,1.36434 0.25781,0.41716 5.67965,0.26853 6.76625,-0.18549 z m -20.426054,-0.17055 c -0.10067,-0.16288 -1.00808,-0.28679 -2.016471,-0.27533 -1.29852,0.0148 -1.66064,0.0951 -1.24115,0.27533 0.84903,0.36484 3.483105,0.36484 3.257621,0 z m -1.389901,-1.82488 c 0.428991,-0.60341 1.829935,-0.72588 2.738845,-0.23943 0.42843,0.22927 0.83778,0.16728 1.65131,-0.25008 l 1.08167,-0.55493 -3.5217,-0.23797 c -1.936935,-0.13089 -4.221195,-0.22197 -5.076125,-0.20242 -1.52899,0.0349 -1.57259,0.0116 -2.66532,-1.42455 -2.34812,-3.08622 -4.09867,-5.45293 -4.75042,-6.4225 -1.14817,-1.70803 -2.94053,-3.24517 -4.6439,-3.98258 -0.89508,-0.38751 -1.62969,-0.81894 -1.63247,-0.95877 -0.004,-0.2367 0.2309,-0.20286 1.99394,0.28644 0.55347,0.15361 0.66854,0.0662 0.67933,-0.51594 0.0137,-0.73617 0.21683,-2.44741 1.01495,-8.54877 0.5466,-4.17863 2.00337,-9.59867 2.87074,-10.6809 l 0.57768,-0.72078 -0.18807,0.95965 c -0.18674,0.953 -0.1812,0.95836 0.79733,0.77158 2.95916,-0.56485 7.82619,-2.77391 11.096755,-5.03663 3.70821,-2.56552 5.47177,-4.36513 6.61459,-6.74981 l 1.0429,-2.1762 -1.03588,-0.87681 c -1.01553,-0.85959 -1.03795,-0.92716 -1.1411,-3.43872 l -0.1052,-2.5619 -1.09996,1.23948 c -1.02245,1.15215 -1.22675,1.24865 -2.89954,1.36966 -2.341824,0.16939 -3.742485,-0.31473 -4.753095,-1.64283 l -0.81113,-1.06596 -0.18103,2.63071 c -0.17248,2.5064 -0.22615,2.6684 -1.13576,3.42776 -1.22204,1.02022 -2.60234,1.36619 -6.89499,1.72823 -7.171454,0.60484 -9.238841,3.00196 -9.162849,10.62431 0.02774,2.7867 -0.260124,6.3089 -0.803546,9.82998 -0.424685,2.75181 -0.923554,8.62517 -0.971079,11.43298 -0.03882,2.29305 0.0071,2.47199 1.024967,3.99799 1.112451,1.66773 4.094607,4.51003 7.225017,6.88616 2.14767,1.63019 4.72879,2.88136 6.60513,3.20176 0.73297,0.12516 1.93236,0.3412 2.66533,0.48009 1.75727,0.33298 3.31348,0.0957 3.79268,-0.5783 z m 0.649531,-47.13108 c -0.732961,-0.20848 -1.599191,-0.54884 -1.924951,-0.75638 -0.5553,-0.35375 -0.54605,-0.36577 0.14807,-0.19242 0.4072,0.10171 1.695761,0.32964 2.863485,0.50652 1.7999,0.27265 2.35715,0.24507 3.66046,-0.18123 1.84176,-0.6024 2.2963,-0.41065 0.68964,0.29093 -1.51378,0.66103 -3.79196,0.80039 -5.436704,0.33258 z m 0,-1.4425 c -1.122701,-0.32077 -1.776881,-0.75279 -1.776881,-1.17347 0,-0.14625 0.52775,0.003 1.17278,0.33241 1.385835,0.70699 3.741425,0.77339 5.479205,0.15444 1.62467,-0.57867 1.71233,-0.28606 0.12947,0.43211 -1.39977,0.63508 -3.32909,0.73319 -5.004574,0.25451 z m 0.29615,-1.40169 c -1.819701,-0.62614 -2.392951,-0.93219 -2.232451,-1.19187 0.10165,-0.16447 0.62531,-0.0893 1.27644,0.18328 0.839061,0.35122 1.774095,0.42729 3.895385,0.31688 2.50269,-0.13026 2.71059,-0.103 2.01072,0.26371 -0.97339,0.51001 -3.96102,0.76833 -4.950094,0.428 z m 1.589124,48.01445 c 0.0789,-0.12758 0.009,-0.86092 -0.15475,-1.62967 -0.24186,-1.13395 -0.20121,-1.65147 0.21538,-2.74228 0.46543,-1.21874 0.47463,-1.54425 0.0982,-3.47888 -0.97332,-5.00233 -0.25788,-16.25149 1.37352,-21.5966 1.42547,-4.67038 2.54126,-8.27288 2.71549,-8.76735 0.10423,-0.29582 -0.23223,-0.12171 -0.83199,0.43054 -3.73813,3.44204 -11.092645,7.27639 -14.901225,7.76891 l -1.45604,0.1883 -0.57246,2.05236 c -0.5505,1.97364 -0.55291,2.12457 -0.0629,3.93488 0.60391,2.23101 1.48207,2.90878 3.33357,2.57286 1.324,-0.2402 3.06394,-1.07925 3.61502,-1.74324 0.22002,-0.26511 0.67011,-0.62656 1.00018,-0.80321 0.44131,-0.23618 0.34084,0.006 -0.37958,0.91581 -1.29398,1.63378 -2.92806,2.44464 -4.96339,2.46293 -1.36326,0.0123 -1.5788,0.0876 -1.4114,0.49361 0.10867,0.26353 0.2666,1.41203 0.35095,2.5522 0.0843,1.14016 0.27417,2.30623 0.42181,2.59128 0.30634,0.59142 1.54993,0.68195 2.81961,0.20526 1.02756,-0.38579 3.45417,-2.69886 4.43893,-4.23123 0.40241,-0.62619 0.79763,-1.07256 0.87826,-0.99192 0.33828,0.33828 -1.42309,3.13188 -2.76758,4.3895 -1.66925,1.56138 -3.21746,2.17849 -4.82181,1.92194 -0.98536,-0.15756 -1.14162,-0.0991 -1.29824,0.48528 -0.33892,1.26455 -0.18347,2.29587 0.44001,2.91936 0.95855,0.95855 3.36188,0.67977 4.87219,-0.56515 1.54488,-1.27343 1.70454,-0.90546 0.24181,0.55729 -1.03579,1.03578 -1.41085,1.21303 -2.88985,1.36567 -1.45938,0.15062 -1.82604,0.0819 -2.59438,-0.48614 -1.76064,-1.30169 -1.39948,0.005 0.70515,2.55135 0.64986,0.78624 1.35537,1.6775 1.56778,1.98057 0.37083,0.52908 0.42609,0.52061 1.38784,-0.21295 1.71523,-1.30827 2.9716,-1.67362 5.62454,-1.63556 l 2.452725,0.0352 -1.628804,0.25818 c -0.895851,0.14201 -2.198381,0.39304 -2.894531,0.55788 -1.42592,0.33763 -3.56589,1.58758 -3.81084,2.22592 -0.0892,0.23251 0.34014,1.0343 0.95693,1.78701 l 1.11875,1.36529 1.64851,-0.1573 c 0.97506,-0.093 2.19293,0.003 2.981181,0.2347 1.670084,0.49124 2.002204,0.52739 2.181424,0.23742 z m 3.72756,-0.24125 c 0.94593,-0.37849 1.21775,-0.66062 1.3583,-1.40978 0.0966,-0.51513 0.0325,-1.31329 -0.14256,-1.77368 -0.2575,-0.6773 -0.20472,-1.09375 0.27651,-2.18164 0.67713,-1.53078 0.7668,-2.83612 0.22457,-3.26949 -0.20361,-0.16272 -1.11948,-0.38641 -2.03529,-0.49707 -1.91917,-0.23191 -2.83787,0.29895 -2.47626,1.43091 0.47723,1.49391 0.47848,2.35969 0.005,3.59896 -0.3697,0.96807 -0.44388,1.6598 -0.27652,2.57877 0.1258,0.69071 0.19809,1.42242 0.16066,1.62602 -0.0966,0.52521 1.47453,0.46951 2.90539,-0.103 z m 2.6793,-1.17311 c 0,-0.25393 -0.13544,-0.37799 -0.30098,-0.27568 -0.16553,0.1023 -0.22431,0.31007 -0.1306,0.46169 0.25388,0.41077 0.43158,0.33418 0.43158,-0.18601 z m -20.230665,-9.08905 c 0.53346,-0.82814 1.04768,-3.75206 0.99951,-5.68336 -0.042,-1.68389 -0.65197,-4.76213 -1.37623,-6.9453 -0.27304,-0.82301 -0.44971,-0.0263 -1.01861,4.59347 -0.73434,5.96311 -0.73171,6.65832 0.0288,7.62506 0.67993,0.86439 1.01014,0.96348 1.3666,0.41013 z m 18.854975,-0.75078 c -0.3248,-1.41169 -0.17327,-10.45013 0.22698,-13.53834 0.46035,-3.55198 2.65273,-12.03076 3.86707,-14.95544 1.08865,-2.62197 1.39772,-4.75373 0.76137,-5.25162 -0.64514,-0.50477 -1.70284,-0.64991 -1.70284,-0.23368 0,0.21022 -0.51942,1.43045 -1.15424,2.71164 -1.86143,3.75666 -4.43049,11.5658 -5.54026,16.84066 -0.55306,2.62874 -1.31939,11.5916 -1.11878,13.08499 0.34634,2.57821 0.16996,2.41717 2.66178,2.43018 l 2.25203,0.0117 -0.25311,-1.10014 z M 93.440155,334.21503 c -0.13424,-0.2172 -0.0808,-0.26128 0.14631,-0.12088 0.50361,0.31124 1.51078,-0.94183 1.51078,-1.87962 0,-0.42408 0.12345,-1.20149 0.27433,-1.72758 0.26278,-0.9163 -0.0316,-1.59679 -0.41942,-0.96935 -0.10231,0.16554 -0.44797,0.30098 -0.76816,0.30098 -0.68405,0 -1.15978,-1.04908 -1.15978,-2.55755 0,-0.81679 -0.30004,-1.37924 -1.40671,-2.63697 -1.30306,-1.48094 -1.42088,-1.55029 -1.59929,-0.94146 -0.14531,0.49593 -0.19983,0.37989 -0.2221,-0.47277 -0.0162,-0.62151 -0.1734,-1.39885 -0.34924,-1.72741 -0.31055,-0.58026 -0.3369,-0.58185 -0.91876,-0.0552 -1.06015,0.95942 -1.44819,2.13118 -1.71216,5.17017 -0.14215,1.63642 -0.35123,3.06395 -0.46463,3.17232 -0.11339,0.10836 -0.1126,-0.36937 0.002,-1.0616 l 0.20793,-1.25864 -1.2355,0 -1.23551,0 0.93513,1.1807 c 1.21649,1.53595 3.8373,3.83133 4.5968,4.02602 0.70187,0.17991 2.80996,-0.6334 2.80996,-1.08409 -1e-5,-0.87419 -0.65592,-1.4573 -1.63924,-1.4573 -0.62102,0 -1.02789,0.14614 -1.03063,0.37018 -0.003,0.26527 -0.0662,0.27498 -0.22211,0.0343 -0.11967,-0.18476 -0.48411,-0.40252 -0.80987,-0.48392 -0.32576,-0.0813 0.2073,-0.16525 1.18459,-0.18636 0.97728,-0.0211 2.04341,-0.0841 2.36918,-0.13993 0.32576,-0.0558 0.42571,-0.0443 0.22211,0.0258 -0.45733,0.15724 -0.46094,0.0905 0.074,1.37082 0.51806,1.23989 0.54904,1.47809 0.16111,1.23833 -0.28923,-0.17875 -2.38221,0.57525 -2.38221,0.8582 0,0.0859 0.49975,0.41994 1.11055,0.7424 1.24937,0.65956 2.30031,0.80384 1.97071,0.27054 z m -0.39257,-0.96608 c -0.0128,-0.31218 0.0571,-0.4871 0.15555,-0.38868 0.0984,0.0984 0.10893,0.35382 0.0234,0.5676 -0.0945,0.23625 -0.16471,0.16607 -0.17891,-0.17892 z m -6.02036,-3.0342 c 0.2036,-0.0821 0.53677,-0.0821 0.74037,0 0.2036,0.0822 0.0371,0.14936 -0.37018,0.14936 -0.40721,0 -0.5738,-0.0672 -0.37019,-0.14936 z m 2.36919,-2.66534 c 0.20359,-0.0822 0.53676,-0.0822 0.74036,0 0.20361,0.0821 0.0371,0.14938 -0.37018,0.14938 -0.40721,0 -0.57379,-0.0673 -0.37018,-0.14938 z m 1.62535,-0.30349 c 0.28314,-0.0741 0.81621,-0.0768 1.18458,-0.006 0.36839,0.0708 0.13673,0.13149 -0.5148,0.13477 -0.65153,0.003 -0.95292,-0.0546 -0.66978,-0.1288 z m -1.50457,-0.68496 c 0,-0.4072 0.0673,-0.57378 0.14938,-0.37018 0.0822,0.2036 0.0822,0.53677 0,0.74036 -0.0822,0.2036 -0.14938,0.0371 -0.14938,-0.37018 z m 19.793325,7.10753 c 0.13523,0 0.33078,-0.50247 0.43454,-1.11661 0.10376,-0.61412 0.31942,-1.31378 0.47925,-1.55477 0.21343,-0.32181 0.24408,-0.23672 0.11543,0.32045 -0.14237,0.61654 -0.0305,0.82454 0.59723,1.11057 1.20067,0.54706 1.33683,0.44622 1.33683,-0.99002 l 0,-1.34194 -1.02605,0.0691 c -0.56433,0.038 -1.13072,-0.043 -1.25863,-0.18001 -0.12792,-0.13702 1.06267,-0.16778 2.64575,-0.0684 l 2.87833,0.18076 -0.099,-0.80587 c -0.0545,-0.44323 -0.04,-0.56497 0.032,-0.27054 0.19083,0.78005 0.69124,0.48391 1.80688,-1.06925 0.93613,-1.30326 0.96805,-1.42984 0.61014,-2.41963 -0.20773,-0.57444 -0.58412,-1.05527 -0.83644,-1.0685 -0.57351,-0.0301 1.15404,-0.84136 1.76234,-0.82764 0.24432,0.005 0.0874,0.14064 -0.34868,0.3003 -0.72539,0.26555 -0.76705,0.36442 -0.48928,1.16121 0.16698,0.479 0.39915,0.87093 0.51593,0.87093 0.32857,0 1.24188,-2.07877 1.04982,-2.38951 -0.0937,-0.1517 -0.058,-0.27581 0.0793,-0.27581 0.13736,0 0.47201,-0.5997 0.74367,-1.33267 0.47592,-1.28409 0.47349,-1.33266 -0.0667,-1.33266 -0.747,0 -1.02885,0.51447 -0.57888,1.05664 0.20011,0.24112 0.29474,0.50751 0.21028,0.59197 -0.15142,0.15142 -1.4073,-1.78529 -1.41611,-2.1838 -0.0191,-0.86141 -0.55181,-0.87208 -2.19361,-0.0439 -0.95439,0.48141 -2.07285,0.87528 -2.4855,0.87528 l -0.75026,0 0.66917,0.71229 c 0.36804,0.39176 0.84859,1.22467 1.0679,1.85093 0.31996,0.9137 0.53436,1.127 1.08531,1.07979 l 0.68656,-0.0589 -0.66633,0.32619 c -0.48913,0.23945 -0.66633,0.58434 -0.66633,1.29686 0,0.77853 0.1319,0.99116 0.66633,1.07417 0.60833,0.0945 0.59545,0.11848 -0.14807,0.27568 -0.79544,0.16816 -0.81445,0.14035 -0.81606,-1.19345 -0.002,-1.75169 -0.45124,-3.35561 -1.1843,-4.22939 -0.4952,-0.59026 -0.62251,-0.62579 -0.88054,-0.2458 -0.1659,0.24432 -0.2559,0.77739 -0.19998,1.18459 0.0559,0.40721 0.0459,0.57379 -0.0222,0.37018 -0.13954,-0.41692 -0.67276,-0.50819 -0.67276,-0.11515 0,0.14027 -0.5997,0.89901 -1.33266,1.68609 -1.71792,1.84476 -1.70657,2.19075 0.074,2.25831 l 1.40669,0.0534 -1.43613,0.11212 -1.43615,0.11213 0.11046,1.15835 c 0.10185,1.06803 0.0448,1.17279 -0.73176,1.34335 -0.62184,0.13658 -0.95055,0.042 -1.2562,-0.36138 -0.36804,-0.48577 -0.415,-0.32868 -0.42338,1.41651 -0.008,1.7061 0.0778,2.02374 0.65692,2.42823 0.36648,0.25595 0.84381,0.40546 1.06074,0.33226 0.21692,-0.0732 0.50505,-0.13308 0.64029,-0.13308 z m 3.13258,-6.14506 c 0.14742,-0.12216 0.36749,-0.35537 0.48905,-0.51826 0.12614,-0.169 0.22297,-0.0736 0.22556,0.22212 0.003,0.28809 -0.21468,0.51826 -0.48905,0.51826 -0.27146,0 -0.37297,-0.1 -0.22556,-0.22212 z m 0.18458,-1.70284 c -0.006,-0.48865 0.0554,-0.72439 0.13653,-0.5239 0.0811,0.20051 0.0861,0.60031 0.011,0.88845 -0.0751,0.28814 -0.14145,0.1241 -0.14748,-0.36455 z m -1.27636,7.57906 c 0.32902,-0.20837 0.28891,-0.32469 -0.20264,-0.58776 -0.89428,-0.47862 -1.24406,-0.40429 -1.24406,0.26431 0,0.62768 0.7142,0.78735 1.4467,0.32345 z M 114.6,330.9069 c 0.28541,-0.34392 0.17995,-0.45382 -0.58159,-0.60613 -1.42391,-0.28478 -1.44846,-0.26751 -1.44846,1.01872 l 0,1.20475 0.8407,-0.59865 c 0.46239,-0.32923 0.99759,-0.78766 1.18935,-1.01869 z m -10.27787,-1.72861 c 2.61722,-2.83497 3.79987,-6.09241 3.88434,-10.69893 0.0573,-3.12837 -0.25504,-4.28535 -1.41762,-5.2502 -0.4607,-0.38234 -4.18471,-0.68786 -7.887204,-0.64703 -2.148351,0.0238 -4.222141,1.38013 -4.709851,3.08066 -0.63684,2.22056 -0.0307,7.01983 1.21032,9.58352 0.87504,1.8076 2.56212,3.93097 3.650611,4.59469 0.61333,0.37398 1.476924,0.56804 2.531224,0.56877 1.49825,6.6e-4 1.6728,-0.0774 2.73818,-1.23148 z m -4.342694,-0.65886 c -0.50133,-0.36658 -0.37971,-0.40636 1.131884,-0.37018 1.43194,0.0343 1.61558,0.0977 1.18884,0.41071 -0.66334,0.48652 -1.62286,0.46976 -2.320724,-0.0405 z m -0.8842,-1.52655 c -0.865561,-0.41873 -0.846051,-0.42565 0.75772,-0.26856 0.905394,0.0887 2.204744,0.0357 2.887444,-0.11765 1.4493,-0.32564 1.66927,0.0433 0.30864,0.51762 -1.26565,0.44121 -2.88115,0.38751 -3.953804,-0.13141 z m 1.154954,-1.84315 c -0.17917,-0.11967 -0.401874,-0.41748 -0.494874,-0.6618 -0.12481,-0.32786 -0.17522,-0.29296 -0.19248,0.13326 -0.0188,0.46479 -0.0956,0.50425 -0.39356,0.20218 -0.296641,-0.30075 -0.26308,-0.45441 0.16893,-0.77346 0.40479,-0.29894 0.58056,-0.94616 0.705444,-2.59738 l 0.16634,-2.19921 -0.946044,-0.67364 c -0.804521,-0.57287 -1.228171,-0.65567 -2.832101,-0.55355 -1.96132,0.12489 -2.28678,-0.16268 -0.66093,-0.58396 1.35343,-0.35072 3.410221,0.0405 4.160961,0.79152 0.582654,0.58284 0.644384,0.95425 0.647004,3.89349 0.002,1.78705 0.002,3.24715 0,3.24465 -0.002,-0.003 -0.14951,-0.10244 -0.32869,-0.2221 z m 1.96054,-0.52089 c 0.20604,-0.24825 0.43559,-0.39039 0.51014,-0.31585 0.20537,0.20538 -0.21192,0.76723 -0.56982,0.76723 -0.19637,0 -0.17391,-0.16993 0.0597,-0.45138 z m -6.220715,-3.9865 c -0.7726,-0.7726 -0.61005,-1.07928 0.31083,-0.58645 0.39759,0.21279 1.17664,0.28378 1.95033,0.17773 0.956331,-0.13108 1.288281,-0.0763 1.288281,0.21263 0,0.21405 -0.16658,0.41158 -0.37018,0.43894 -0.2036,0.0274 -0.856881,0.12927 -1.451731,0.22644 -0.86492,0.14132 -1.21092,0.0473 -1.72753,-0.46929 z m 7.251285,0.13305 c -1.06798,-0.48903 -1.091,-0.48003 1.39132,-0.54351 1.88092,-0.0481 1.95904,-0.0236 1.50888,0.47385 -0.5561,0.61448 -1.65284,0.64083 -2.9002,0.0696 z m 1.48074,-1.58706 c -0.90028,-0.13758 -1.05455,-0.23405 -0.6428,-0.40193 0.63067,-0.25713 1.97546,0.0172 1.97546,0.40298 0,0.14522 -0.0333,0.24513 -0.074,0.22202 -0.0407,-0.0232 -0.60711,-0.12349 -1.25863,-0.22307 z m -8.440205,-0.32721 c 0.24432,-0.15788 0.71075,-0.28708 1.03652,-0.28708 0.32576,0 0.79219,0.1292 1.03651,0.28708 0.31922,0.2063 0.0276,0.28708 -1.03651,0.28708 -1.06405,0 -1.35573,-0.0808 -1.03652,-0.28708 z m 9.772865,-0.45049 c -1.0195,-0.37358 -2.06443,-0.37243 -3.24918,0.003 -0.92059,0.29217 -0.72587,-0.40822 0.21367,-0.76859 1.22808,-0.47104 4.51625,0.23291 4.51625,0.96687 0,0.30357 -0.16149,0.28155 -1.48074,-0.20188 z m -5.13884,-1.25562 c -0.0766,-0.12396 0.036,-0.4651 0.25024,-0.75809 0.43562,-0.59575 0.9108,-0.17832 0.63,0.55343 -0.17722,0.46184 -0.65294,0.57246 -0.88024,0.20466 z m 7.50708,10.36842 c -4.7e-4,-0.93655 0.28318,-2.66144 0.63044,-3.83308 0.35867,-1.21013 0.53867,-2.36135 0.41671,-2.66533 -0.15315,-0.38172 -0.37993,0.0916 -0.79127,1.65138 -0.31715,1.20256 -0.78256,2.58472 -1.03428,3.07149 -0.58876,1.13854 -0.25197,3.47839 0.50068,3.47839 0.15326,0 0.27824,-0.76628 0.27772,-1.70285 z m -13.511945,0.28183 c 0.20512,-0.71517 0.12772,-1.25781 -0.33461,-2.34597 -0.3308,-0.77858 -0.76993,-2.18188 -0.97587,-3.11844 -0.20592,-0.93655 -0.50391,-1.70284 -0.66218,-1.70284 -0.31862,0 -0.16152,1.0579 0.52633,3.54427 0.24639,0.89062 0.44798,2.33434 0.44798,3.20826 0,1.78738 0.54031,2.01182 0.99835,0.41472 z m -8.40202,-1.51148 c 0,-0.6985 -0.17539,-0.92061 -0.93647,-1.18592 -0.51505,-0.17954 -0.95451,-0.29254 -0.97655,-0.25109 -0.2736,0.51444 -0.75232,1.79615 -0.75232,2.01427 0,0.15521 0.59971,0.28222 1.33267,0.28222 1.27333,0 1.33267,-0.0383 1.33267,-0.85948 z m -2.4685,-0.93913 c 0.16217,-0.8108 0.26645,-0.88783 0.95508,-0.70547 1.43524,0.38007 1.61746,0.30915 1.83394,-0.71372 0.11603,-0.54817 0.49726,-1.38393 0.84721,-1.85726 0.34995,-0.47333 0.55362,-0.99429 0.45262,-1.15773 -0.101,-0.16343 -0.0738,-0.27806 0.0605,-0.25473 1.16499,0.20238 1.06592,-0.86094 -0.14716,-1.57938 -0.43632,-0.2584 -1.12598,-0.84791 -1.5326,-1.31 l -0.73929,-0.84019 0.88737,0.75517 c 1.9019,1.61859 1.79244,1.70968 1.73179,-1.44116 -0.0304,-1.57629 0.0478,-2.99966 0.17375,-3.16303 0.12592,-0.16337 0.30234,-0.5969 0.39206,-0.96337 0.14528,-0.59345 0.0517,-0.66633 -0.85518,-0.66633 -1.48873,0 -2.79472,0.64373 -4.5944,2.26464 -0.87763,0.79046 -1.92701,1.66719 -2.331944,1.94827 -0.656744,0.45589 -0.683234,0.54377 -0.245305,0.81383 0.270014,0.16652 1.186939,0.86941 2.037599,1.56195 2.28729,1.86218 2.54336,2.02998 3.76077,2.46438 0.6129,0.21871 0.87584,0.40349 0.58431,0.41064 -0.29152,0.007 -1.04212,-0.24824 -1.66798,-0.56753 l -1.13793,-0.58052 -0.99734,1.98722 c -0.54854,1.09297 -1.04176,2.08718 -1.09606,2.20934 -0.0543,0.12216 0.27888,0.24025 0.74037,0.26243 0.69844,0.0336 0.7274,0.0618 0.17276,0.16868 -0.77554,0.14937 -0.76958,0.12886 -0.32266,1.10972 0.45816,1.00555 0.81623,0.95177 1.03775,-0.15585 z m 2.17235,-10.08455 c 0,-0.0814 0.3998,-0.53111 0.88844,-0.99926 0.48865,-0.46815 0.88844,-0.78455 0.88844,-0.70311 0,0.0814 -0.39979,0.53111 -0.88844,0.99926 -0.48864,0.46815 -0.88844,0.78454 -0.88844,0.70311 z m 26.469505,5.9602 c 0.86313,-1.7979 0.9239,-2.13997 0.92055,-5.18257 -0.003,-3.07762 -0.0574,-3.36819 -0.97854,-5.25859 -4.61978,-9.48138 -18.046635,-9.47531 -22.608095,0.0102 -0.81058,1.68559 -0.97639,2.40596 -1.08169,4.69945 -0.0933,2.03245 0.003,3.10453 0.38825,4.29414 0.55683,1.72221 1.87969,3.99845 2.81635,4.84611 0.72691,0.65785 0.74675,0.33492 0.11335,-1.84394 -0.3453,-1.18774 -0.39349,-1.81602 -0.17597,-2.29344 0.21359,-0.46877 0.17567,-1.16001 -0.1321,-2.40767 -0.50759,-2.05781 -0.59219,-5.86062 -0.15516,-6.97385 0.51962,-1.32354 2.08693,-2.85742 3.4526,-3.37898 0.93944,-0.35877 1.3829,-0.73026 1.59373,-1.335 0.56962,-1.63404 3.564125,-2.60662 6.407285,-2.08105 1.92637,0.35611 2.69985,0.89974 3.30088,2.31991 0.25719,0.60774 0.6158,0.96249 0.97292,0.96249 0.86111,0 2.33416,1.39519 2.98767,2.82974 0.67116,1.47329 0.80465,5.82212 0.24947,8.12772 -0.17648,0.73296 -0.30829,1.79909 -0.29288,2.36918 0.0154,0.57008 -0.0915,1.43631 -0.23756,1.92495 -0.14607,0.48864 -0.34519,1.28825 -0.4425,1.77689 l -0.17692,0.88844 1.07712,-1.18459 c 0.5924,-0.65153 1.49297,-2.05082 2.00124,-3.10955 z m -29.437565,0.39916 c 0.005,-0.26166 -1.42636,-0.99145 -1.94459,-0.99145 -0.0473,0 0.12472,0.61815 0.38215,1.37369 l 0.46807,1.37369 0.54389,-0.70736 c 0.29914,-0.38905 0.54685,-0.86091 0.55048,-1.04857 z m 0.72602,-1.58375 c 0.12813,-0.5611 -0.005,-0.86538 -0.55047,-1.25671 -0.70358,-0.5049 -0.73951,-0.49636 -1.62137,0.3855 l -0.901841,0.90185 1.251161,0.54279 c 1.36857,0.59374 1.57052,0.53021 1.82252,-0.57343 z m 31.744925,0.0249 c 0.67144,-0.30492 1.94869,-1.20154 2.83832,-1.99249 0.88963,-0.79096 1.87284,-1.60357 2.18489,-1.80577 0.5475,-0.35479 0.54169,-0.3859 -0.16573,-0.88844 -0.4032,-0.28643 -1.39315,-1.10433 -2.19987,-1.81754 -1.50639,-1.33176 -3.45494,-2.38709 -4.42878,-2.39859 -1.34952,-0.0159 0.51591,2.69744 2.99358,4.35438 0.36648,0.24508 0.66429,0.59685 0.6618,0.78172 -0.003,0.21832 -0.0807,0.2309 -0.22212,0.0359 -0.11966,-0.16511 -0.9379,-0.89449 -1.8183,-1.62082 l -1.60073,-1.32062 0.1638,1.45337 c 0.16134,1.43125 -0.11807,4.25444 -0.52135,5.26803 -0.27622,0.69423 0.51815,0.67578 2.11449,-0.0492 z m -0.92586,-2.05134 c 0.32278,-0.38157 0.85489,-0.831 1.18248,-0.99873 0.62899,-0.32205 0.53738,-0.22281 -0.88302,0.95656 -0.8551,0.71001 -0.86564,0.7115 -0.29946,0.0422 z m 5.36022,2.31179 0.80729,-0.30692 -0.99682,-1.02846 c -0.84924,-0.8762 -1.05754,-0.96775 -1.40695,-0.61833 -0.34942,0.3494 -0.33929,0.54711 0.0684,1.33539 0.54623,1.05631 0.46384,1.02296 1.52814,0.61832 z m -37.787175,-2.37595 c 0,-0.11576 -0.33316,-0.42877 -0.74036,-0.69558 l -0.740368,-0.48511 0,1.39111 0,1.39113 0.740368,-0.69555 c 0.4072,-0.38255 0.74036,-0.79025 0.74036,-0.906 z m 38.840775,0.0174 c 0.0565,-0.81451 0.0566,-1.48085 2.4e-4,-1.48075 -0.33484,4.8e-4 -1.82257,1.06468 -1.82257,1.30358 0,0.34152 1.19404,1.65809 1.50377,1.65809 0.11877,0 0.26212,-0.66641 0.31856,-1.48092 z m -11.20664,-1.27797 c 0.12331,-0.8063 0.0712,-1.09665 -0.18189,-1.01338 -0.19667,0.0647 -0.38858,0.76622 -0.43069,1.57431 -0.0862,1.65474 0.33232,1.27149 0.61258,-0.56093 z m -16.972815,-0.6468 c 0,-0.5701 -0.13327,-1.03652 -0.29615,-1.03652 -0.16288,0 -0.29615,0.46642 -0.29615,1.03652 0,0.57007 0.13327,1.03651 0.29615,1.03651 0.16288,0 0.29615,-0.46644 0.29615,-1.03651 z m -11.10553,-1.33267 c 0.51726,-0.57157 0.51726,-0.61303 0,-1.1846 -0.78949,-0.87237 -1.036518,-0.73123 -1.036518,0.59231 0,1.32353 0.247028,1.46467 1.036518,0.59229 z m 39.284985,-0.88826 c -0.0565,-0.8145 -0.19979,-1.48092 -0.31856,-1.48092 -0.11876,0 -0.53902,0.34434 -0.93389,0.7652 l -0.71796,0.76522 0.83092,0.71552 c 0.457,0.39354 0.92344,0.71562 1.03652,0.71572 0.11307,1e-4 0.15942,-0.66623 0.10297,-1.48074 z m -11.0646,-0.44686 0.0864,-1.18214 -0.71813,0.8803 c -0.76396,0.93646 -0.73171,1.72568 0.0644,1.575 0.32962,-0.0624 0.50817,-0.46306 0.56736,-1.27316 z m -26.419665,-1.58025 -0.47628,-0.92104 -1.10645,0.50272 c -0.60854,0.2765 -1.163952,0.54198 -1.234269,0.58997 -0.07032,0.048 0.32436,0.5538 0.877039,1.12403 l 1.00486,1.03676 0.7057,-0.70571 c 0.67867,-0.67866 0.68745,-0.74096 0.2294,-1.62673 z m 9.77584,0.748 -0.76356,-0.76356 -0.19355,0.77117 c -0.25307,1.0083 0.65885,1.81776 1.31201,1.16459 0.34745,-0.34743 0.29429,-0.52303 -0.3549,-1.1722 z m 26.591565,-0.10841 0.84896,-0.9431 -1.10953,-0.4636 c -1.4799,-0.61834 -1.52122,-0.60796 -1.89941,0.47689 -0.28622,0.82105 -0.24526,1.02839 0.32249,1.63274 0.35768,0.38074 0.72643,0.59053 0.81943,0.46622 0.093,-0.12432 0.55113,-0.65043 1.01806,-1.16915 z m -11.07063,-0.58352 c 0,-0.21908 0.13326,-0.39832 0.29615,-0.39832 0.4277,0 0.36404,-0.75957 -0.0957,-1.14109 -0.30526,-0.25333 -0.47992,-0.10054 -0.7908,0.69178 -0.21946,0.55932 -0.59123,1.0907 -0.82615,1.18085 -0.34658,0.13299 -0.35699,0.24844 -0.0552,0.61209 0.33067,0.39844 0.43301,0.39294 0.92179,-0.0495 0.30241,-0.27367 0.54984,-0.67685 0.54984,-0.89592 z m -13.541605,-0.0401 c -0.0367,-0.3372 -0.39712,-0.9433 -0.8007,-1.34689 -0.60457,-0.60457 -0.79281,-0.66269 -1.06888,-0.33005 -0.25876,0.31178 -0.1509,0.64523 0.47354,1.4639 0.85973,1.12717 1.50654,1.22587 1.39604,0.21304 z m -9.70597,-0.062 c 0.63896,-0.32576 1.54522,-0.59229 2.0139,-0.59229 l 0.85215,0 -0.74125,-0.88092 c -0.40769,-0.4845 -0.89931,-1.35988 -1.09251,-1.94527 -0.19319,-0.58538 -0.50449,-1.00685 -0.69177,-0.93659 -1.34724,0.50536 -1.67318,0.52584 -1.67318,0.10511 0,-0.24197 -0.0707,-0.68408 -0.15724,-0.98244 -0.0887,-0.30613 -0.002,-0.24613 0.19951,0.13771 0.4589,0.87496 1.44523,0.7553 1.94494,-0.23596 0.3717,-0.73734 0.37325,-0.7362 0.3776,0.27668 0.005,1.25457 0.96241,3.29465 1.78514,3.80538 0.67889,0.42142 1.1807,0.25385 1.1807,-0.3943 0,-0.53752 0.6486,-1.37297 2.54717,-3.28095 l 1.51066,-1.51813 -2.10295,-0.15176 c -1.4021,-0.10119 -2.17546,-0.0394 -2.32053,0.18548 -0.14033,0.21749 -0.21919,0.16006 -0.22212,-0.1618 -0.004,-0.44319 0.28748,-0.48011 2.6051,-0.32995 2.97105,0.19249 4.25049,-0.17346 3.55456,-1.01669 -0.73732,-0.89334 -2.92878,-1.61913 -5.24032,-1.73553 -1.2411,-0.0625 -2.6057,-0.18863 -3.03245,-0.28028 -0.57931,-0.12444 -0.81973,-0.0316 -0.94877,0.36667 -0.0951,0.29334 -0.52924,0.96644 -0.96487,1.49582 l -0.79205,0.96248 0.90763,0 c 0.80603,0 0.91886,-0.10776 1.00781,-0.96248 0.0976,-0.93778 0.10383,-0.93207 0.24217,0.2221 l 0.14197,1.1846 -1.45176,-0.10558 c -1.23584,-0.0899 -1.42462,-0.0348 -1.2692,0.37019 0.10041,0.26166 0.078,0.47576 -0.0498,0.47576 -0.12777,0 -0.52531,0.52132 -0.88341,1.15848 -0.48493,0.8628 -0.55553,1.19698 -0.27665,1.30928 0.22879,0.0921 0.17285,0.1599 -0.1438,0.17418 -0.67975,0.0307 -0.68371,0.0166 0.51827,1.8417 0.57008,0.86562 1.03652,1.67686 1.03652,1.80274 0,0.35897 0.3767,0.27492 1.6288,-0.36344 z m 3.79058,-4.14606 c 0,-0.89584 0.0556,-1.26233 0.12337,-0.81441 0.0679,0.44792 0.0679,1.18088 0,1.62881 -0.0678,0.44793 -0.12337,0.0814 -0.12337,-0.8144 z m -6.22763,0.41337 c 0.0984,-0.0984 0.35383,-0.10892 0.56762,-0.0234 0.23624,0.0945 0.16606,0.16471 -0.17893,0.17893 -0.31218,0.0129 -0.4871,-0.0571 -0.38869,-0.15555 z m 35.193975,1.76405 c 0.64086,-1.33535 0.93745,-2.26083 0.74037,-2.31026 -0.18083,-0.0454 -0.99511,-0.24874 -1.80952,-0.45194 -0.81441,-0.2032 -1.68424,-0.42906 -1.93296,-0.5019 -0.32885,-0.0963 -0.55383,0.24746 -0.82471,1.26028 -0.20488,0.76601 -0.64347,1.77328 -0.97466,2.23837 l -0.60214,0.84565 0.6865,0.008 c 0.37757,0.004 1.21956,0.26001 1.87108,0.56832 0.65152,0.3083 1.31786,0.56301 1.48074,0.56601 0.16288,0.003 0.77726,-0.99704 1.3653,-2.22232 z m -11.15091,1.20618 c 0.27477,-0.41937 0.52331,-1.11889 0.55232,-1.55447 0.0419,-0.62847 -0.0935,-0.81274 -0.6553,-0.89242 -0.54003,-0.0766 -0.66606,0.009 -0.53119,0.3604 0.0973,0.25345 0.0579,0.53436 -0.0876,0.62425 -0.23259,0.14374 -1.19042,1.85125 -1.19042,2.12213 0,0.0564 0.31785,0.10257 0.70632,0.10257 0.43206,0 0.90029,-0.29605 1.2059,-0.76246 z m -24.428845,-0.39563 c -0.005,-0.096 -0.20087,-0.42752 -0.43488,-0.73667 -0.40825,-0.53935 -0.43782,-0.52957 -0.73095,0.24139 -0.45656,1.20085 -0.37988,1.37842 0.43489,1.0072 0.4072,-0.18553 0.73613,-0.41589 0.73094,-0.51192 z m 14.59468,0.36607 c -0.36647,-0.25564 -0.67057,-0.74841 -0.67575,-1.09503 -0.005,-0.3466 -0.18406,-0.86016 -0.39753,-1.14121 -0.57481,-0.75683 -1.41948,-0.0521 -1.05614,0.88119 0.14268,0.36649 0.39698,0.66634 0.56512,0.66634 0.16812,0 0.30568,0.18879 0.30568,0.41954 0,0.46955 0.44943,0.71443 1.33266,0.72614 0.55981,0.008 0.55575,-0.0177 -0.074,-0.45697 z m 2.630605,-0.0565 c -0.518364,-0.39862 -0.648234,-0.70565 -0.498304,-1.178 0.12124,-0.38201 0.0757,-0.63885 -0.11334,-0.63885 -0.17386,0 -0.31611,-0.27315 -0.31611,-0.60701 0,-0.80257 -0.845811,-2.41578 -1.163631,-2.21935 -0.45643,0.2821 -0.66944,2.25375 -0.29254,2.70788 0.1958,0.23592 0.2685,0.51643 0.16156,0.62335 -0.36409,0.3641 1.384011,1.86449 2.164435,1.85771 l 0.75899,-0.007 -0.70106,-0.53913 z m 4.44382,0.034 c 0.91245,-1.10268 1.15345,-1.97826 0.91666,-3.33037 l -0.23315,-1.33138 -0.39815,0.96119 c -0.21896,0.52866 -0.50275,0.96119 -0.63062,0.96119 -0.12787,0 -0.16165,0.27092 -0.0751,0.60204 0.0866,0.33111 -0.0389,0.83087 -0.27886,1.11054 -0.7521,0.87662 -0.86752,1.54504 -0.26678,1.54504 0.2954,0 0.73008,-0.23322 0.96596,-0.51825 z m 15.92851,-0.44423 c -0.0124,-0.20359 -0.18779,-0.82749 -0.38977,-1.38641 l -0.36725,-1.01624 -0.49867,0.71194 c -0.67283,0.96062 -0.62744,1.43593 0.16768,1.75553 0.92639,0.37236 1.11394,0.36119 1.08801,-0.0648 z m -19.0541,-2.5172 c -0.0919,-2.78237 -0.33775,-3.14749 -1.647404,-2.44659 l -0.61704,0.33023 0.67142,0.94293 c 0.369284,0.51861 0.633604,1.16621 0.587364,1.43913 -0.0462,0.27292 0.0578,0.58387 0.23108,0.691 0.17333,0.10713 0.23453,0.32521 0.13601,0.48464 -0.23064,0.37317 0.0649,1.14994 0.43752,1.14994 0.16945,0 0.25165,-1.05955 0.20105,-2.59128 z m 12.58572,0.70382 c 0.33677,-0.74162 0.5603,-1.92068 0.56853,-2.99897 0.008,-0.97729 0.12962,-2.27663 0.27147,-2.88745 0.14183,-0.61078 0.17198,-1.1071 0.0669,-1.1029 -4.07086,0.16291 -8.19096,1.11363 -8.75065,2.01921 -0.3283,0.53121 1.46881,1.22813 3.28841,1.27524 1.63111,0.0422 1.65516,0.0534 0.47792,0.22213 l -1.23963,0.17762 1.74214,1.71073 1.74214,1.71073 0.11436,-1.41457 c 0.0955,-1.1809 0.11201,-1.12105 0.10018,0.36228 -0.0226,2.84233 0.58902,3.19233 1.61818,0.92595 z m -1.48169,-3.56658 c -0.0129,-0.3122 0.0571,-0.4871 0.15555,-0.38871 0.0984,0.0984 0.10892,0.35384 0.0234,0.56762 -0.0945,0.23625 -0.16471,0.16608 -0.17891,-0.17891 z m -1.12776,-0.35168 c 0.0984,-0.0984 0.35384,-0.10892 0.56762,-0.0234 0.23624,0.0945 0.16607,0.16471 -0.17893,0.17891 -0.31219,0.0129 -0.4871,-0.0571 -0.38869,-0.15554 z m -8.22426,3.81314 c 0,-0.49868 0.2238,-1.154 0.49733,-1.45624 0.58484,-0.64624 0.2322,-1.58568 -0.59522,-1.58568 -0.43001,0 -0.52655,0.33946 -0.59862,2.10472 -0.0669,1.64 4.8e-4,2.07592 0.30529,1.97431 0.21517,-0.0718 0.39122,-0.53842 0.39122,-1.03711 z m 15.84194,-1.78331 c -0.002,-0.12215 -0.24516,-0.59092 -0.54239,-1.0417 l -0.54044,-0.81959 -0.34982,0.76774 c -0.19239,0.42226 -0.27362,0.89104 -0.1805,1.04172 0.2016,0.32618 1.61595,0.37164 1.61315,0.0518 z m -1.48928,-1.77687 c 0.007,-0.24286 -0.44787,-0.37018 -1.32217,-0.37018 -1.1457,0 -1.33267,0.0851 -1.33267,0.60658 0,0.40366 0.32198,0.74237 0.96249,1.01248 0.89574,0.37776 0.98741,0.36135 1.32216,-0.23641 0.19783,-0.35325 0.36442,-0.80888 0.37019,-1.01247 z m -0.87796,-1.85092 c -1.01209,-1.27787 -1.47837,-1.48713 -1.48477,-0.66634 -0.003,0.28504 -0.0844,0.81811 -0.18262,1.18459 -0.16664,0.62184 -0.0856,0.66634 1.21353,0.66634 l 1.39208,0 -0.93822,-1.18459 z m -18.190475,-0.39426 c 0.501731,-0.51613 1.283421,-1.43726 1.737085,-2.04698 l 0.82485,-1.10855 0.80398,1.10855 c 0.89527,1.23442 2.8436,3.03354 3.28513,3.03354 0.15721,0 0.28583,-0.51308 0.28583,-1.14016 0,-1.20632 -0.86425,-2.6405 -2.93904,-4.8771 -0.58242,-0.62786 -1.20528,-1.41222 -1.38416,-1.74304 -0.31108,-0.57539 -0.35519,-0.5582 -1.01568,0.39581 -0.379774,0.54852 -1.274215,1.63314 -1.987665,2.41027 -1.45396,1.58374 -2.15017,3.00343 -2.15017,4.38451 0,0.86656 0.0556,0.91611 0.8138,0.7258 0.44758,-0.11233 1.22431,-0.62652 1.72604,-1.14265 z m -2.83598,-0.006 c 0,-0.38294 0.32137,-1.30068 0.71416,-2.03943 l 0.71418,-1.34316 -2.11571,-1.0502 c -1.16364,-0.5776 -2.18467,-0.95921 -2.26895,-0.848 -0.0843,0.1112 -0.65666,0.45837 -1.27198,0.77149 -1.12331,0.57162 -1.15058,0.92506 -0.0855,1.10879 0.40102,0.0692 0.63622,-0.12307 0.78488,-0.64158 0.16855,-0.58786 0.21568,-0.61836 0.22879,-0.14808 0.009,0.32576 -0.17551,1.12536 -0.41023,1.77689 -0.57056,1.58372 -0.5935,1.52788 0.7134,1.73686 0.632,0.10107 1.46491,0.44682 1.85092,0.76836 0.92093,0.76713 1.14606,0.74907 1.14606,-0.0919 z m 7.983655,0.40012 c -0.0173,-0.22924 -2.66377,-3.05533 -2.7409,-2.92696 -0.0375,0.0625 -0.61284,0.7799 -1.278484,1.5943 l -1.210261,1.48074 2.620415,0 c 1.44124,0 2.61539,-0.0667 2.60923,-0.14808 z m 3.69032,-0.44546 c 0.80129,-0.40652 1.76747,-0.73913 2.14706,-0.73913 0.37961,0 0.69019,-0.0838 0.69019,-0.18621 0,-0.49839 -1.60596,-4.84829 -1.78996,-4.84829 -0.11623,0 -0.9859,0.46642 -1.93263,1.0365 -1.74045,1.04807 -2.38648,1.28111 -2.05229,0.74038 0.10067,-0.16288 0.36721,-0.29615 0.5923,-0.29615 0.64116,0 0.75117,-0.42738 0.36995,-1.43734 -0.42429,-1.12406 -0.51831,-1.13686 -1.40647,-0.19147 -0.38255,0.40721 -0.82881,0.74037 -0.99168,0.74037 -0.16289,0 0.0164,-0.33265 0.39829,-0.7392 0.86296,-0.91857 0.69718,-1.09964 -0.89931,-0.98218 l -1.25821,0.0926 1.80907,1.99318 c 2.08156,2.29341 2.71872,3.38447 2.71872,4.65542 0,0.49673 0.0333,0.90259 0.074,0.90191 0.0407,-6.6e-4 0.72964,-0.33385 1.53093,-0.74037 z m -18.393365,-1.55353 c 0.12899,-0.49359 0.13707,-0.49359 0.16979,0 0.0254,0.38325 0.29196,0.51825 1.02333,0.51825 0.7724,0 1.06424,-0.16519 1.33266,-0.75431 0.452,-0.99202 0.45071,-0.99719 -0.32264,-1.28651 -1.92727,-0.72098 -1.99872,-0.71492 -2.00353,0.16995 -0.003,0.47327 -0.0992,0.68565 -0.22318,0.49073 -0.15297,-0.24042 -0.46291,-0.13351 -1.03198,0.35599 -1.02674,0.88316 -1.0194,1.02415 0.0534,1.02415 0.57642,0 0.91209,-0.17358 1.00215,-0.51825 z m 23.604325,0.14807 c 0.003,-0.28073 0.0644,-0.27591 0.2519,0.0199 0.17997,0.28382 0.51343,0.32118 1.22374,0.13712 l 0.97635,-0.253 -0.95483,-0.80344 c -1.16097,-0.97691 -1.42274,-0.99949 -1.58884,-0.13712 -0.0795,0.41248 -0.1437,0.24324 -0.16867,-0.44423 -0.0222,-0.61079 -0.18022,-1.11054 -0.35119,-1.11054 -0.33202,0 -2.05832,0.83862 -2.05832,0.99992 0,0.0529 0.1463,0.51596 0.32512,1.02891 0.27875,0.79963 0.46881,0.93264 1.33266,0.93264 0.60619,0 1.00935,-0.14746 1.01208,-0.37019 z m -1.92969,-2.40645 c 0.52809,-0.38614 0.50783,-0.43298 -0.38763,-0.89604 -0.99725,-0.51571 -1.19893,-0.29558 -0.76508,0.83505 0.22039,0.57432 0.43514,0.58568 1.15271,0.061 z m -12.432105,-0.4875 c 0.52962,-0.58521 0.51895,-0.62249 -0.4709,-1.64374 l -1.0128,-1.04494 -0.49777,1.12548 c -0.66058,1.49366 -0.66325,1.47595 0.27272,1.8178 1.12643,0.4114 1.10285,0.41493 1.70875,-0.2546 z m -2.53356,-0.86246 c 0.53455,-0.99883 0.38046,-1.19817 -0.65592,-0.84855 -1.28122,0.43225 -1.30641,0.47019 -0.64471,0.97079 0.75763,0.57318 0.93749,0.55628 1.30063,-0.12224 z m 11.338055,-0.13557 c 0.71878,-0.54563 0.65554,-0.69514 -0.39137,-0.92507 -1.11296,-0.24445 -1.31045,-0.0831 -0.88083,0.71966 0.3827,0.71509 0.56253,0.74411 1.2722,0.20541 z m -7.341814,-0.84484 c 0.554624,-0.79182 0.26006,-0.95614 -1.217171,-0.67901 -1.01645,0.19068 -1.03315,0.21493 -0.53051,0.77035 0.67913,0.75043 1.176281,0.72444 1.747681,-0.0913 z"
       id="path4154"
       inkscape:connector-curvature="0" />
    <path
       style="fill:#1b8800;fill-opacity:1"
       d="m 659.53446,436.14861 c -2.51926,-0.56676 -4.82889,-2.94653 -5.708,-5.88134 -0.23251,-0.77621 -0.50853,-1.41128 -0.61337,-1.41128 -0.10483,0 -0.98647,0.39822 -1.95917,0.88493 -6.82347,3.41432 -13.91101,4.84038 -19.04832,3.83266 -8.2882,-1.62579 -12.33833,-8.74975 -9.71076,-17.08078 1.3733,-4.3542 3.63156,-7.86556 7.85285,-12.21033 1.48268,-1.52605 1.83129,-1.99319 1.40146,-1.878 -0.31467,0.0843 -1.34965,0.2136 -2.29994,0.28728 -2.36021,0.18296 -3.92411,-0.28518 -5.40726,-1.61865 -2.10059,-1.88862 -2.94506,-4.46224 -2.89859,-8.83385 0.0253,-2.37937 0.14768,-3.31455 0.72746,-5.55829 0.80156,-3.10212 2.41573,-6.6625 4.17312,-9.20464 1.51131,-2.1862 4.68007,-5.20976 6.80635,-6.49447 1.87812,-1.13478 4.82009,-2.22087 6.62757,-2.4467 1.1505,-0.14375 1.22298,-0.18945 1.09693,-0.69166 -1.05244,-4.19321 0.81898,-8.99786 4.58966,-11.78342 1.63088,-1.2048 4.61867,-2.61097 6.51678,-3.06705 5.22888,-1.25638 11.19337,-0.21419 15.14131,2.64569 0.509,0.36871 1.00367,0.67039 1.09929,0.67039 0.0956,0 0.1671,-0.4449 0.15888,-0.98869 -0.0494,-3.26808 4.38323,-7.5639 9.21049,-8.92622 3.96589,-1.11921 7.78613,-0.43162 10.80116,1.94408 0.80448,0.63389 2.77457,3.05545 2.98982,3.67497 0.0596,0.17138 0.71907,-0.37355 1.60532,-1.32642 1.16793,-1.25572 1.87911,-1.79299 3.1808,-2.40298 1.63359,-0.76552 1.7498,-0.78546 4.53722,-0.77852 3.31981,0.009 4.74501,0.36427 8.21047,2.05096 3.38249,1.64629 6.03827,3.58872 9.14055,6.6854 2.65922,2.65443 2.87024,2.81367 3.72852,2.81367 2.21809,0 6.93196,1.30117 9.93289,2.74176 4.94317,2.37298 8.53047,6.02364 9.77379,9.94643 0.12199,0.38489 0.28935,1.61225 0.37191,2.72747 l 0.15011,2.02768 2.05969,0.73851 c 5.94334,2.13099 10.12662,5.48481 12.47747,10.00343 1.3831,2.65852 1.88084,4.79352 1.88557,8.08816 0.004,3.15332 -0.40504,5.39495 -1.53878,8.42181 l -0.7543,2.01389 0.44694,1.41893 c 0.87995,2.79368 0.24454,6.12433 -1.65648,8.68289 -2.12765,2.86354 -6.28318,5.38407 -10.746,6.51795 -2.14747,0.54561 -2.81663,0.60973 -6.2935,0.60305 -4.17744,-0.008 -6.4632,-0.36366 -9.87685,-1.53671 l -1.63809,-0.5629 -3.28229,1.3717 c -13.69294,5.72248 -22.64082,6.67938 -28.6457,3.06343 -1.18116,-0.71126 -1.47206,-0.7808 -3.90098,-0.93256 l -2.62466,-0.16399 -0.46254,0.90666 c -0.64045,1.2554 -2.63591,3.01394 -4.57798,4.03447 -3.22006,1.6921 -6.22799,2.46376 -9.67818,2.4829 l -2.43883,0.0135 -1.35506,1.28943 c -2.80324,2.66747 -6.47727,3.89307 -9.57875,3.19534 z"
       id="path4182"
       inkscape:connector-curvature="0" />
  </g>
</svg>
