<?xml version="1.0" encoding="UTF-8" standalone="no"?>
<!-- Created with Inkscape (http://www.inkscape.org/) -->

<svg
   xmlns:dc="http://purl.org/dc/elements/1.1/"
   xmlns:cc="http://creativecommons.org/ns#"
   xmlns:rdf="http://www.w3.org/1999/02/22-rdf-syntax-ns#"
   xmlns:svg="http://www.w3.org/2000/svg"
   xmlns="http://www.w3.org/2000/svg"
   xmlns:xlink="http://www.w3.org/1999/xlink"
   xmlns:sodipodi="http://sodipodi.sourceforge.net/DTD/sodipodi-0.dtd"
   xmlns:inkscape="http://www.inkscape.org/namespaces/inkscape"
   width="77.772446mm"
   height="44.573235mm"
   viewBox="0 0 275.57166 157.93666"
   id="svg5465"
   version="1.1"
   inkscape:version="0.91 r13725"
   sodipodi:docname="cssrockh.svg">
  <defs
     id="defs5467">
    <linearGradient
       inkscape:collect="always"
       id="linearGradient6048">
      <stop
         style="stop-color:#357c94;stop-opacity:1"
         offset="0"
         id="stop6028" />
      <stop
         style="stop-color:#1e4451;stop-opacity:1"
         offset="1"
         id="stop6030" />
    </linearGradient>
    <radialGradient
       inkscape:collect="always"
       xlink:href="#linearGradient6048"
       id="radialGradient6054"
       cx="307.70825"
       cy="423.40759"
       fx="307.70825"
       fy="423.40759"
       r="83.408272"
       gradientTransform="matrix(0.62960708,-0.99078501,0.49661985,1.1013846,-50.524435,227.58206)"
       gradientUnits="userSpaceOnUse"
       spreadMethod="pad" />
  </defs>
  <sodipodi:namedview
     id="base"
     pagecolor="#ffffff"
     bordercolor="#666666"
     borderopacity="1.0"
     inkscape:pageopacity="0.0"
     inkscape:pageshadow="2"
     inkscape:zoom="2.3535713"
     inkscape:cx="166.01706"
     inkscape:cy="128.1935"
     inkscape:document-units="px"
     inkscape:current-layer="layer1"
     showgrid="false"
     inkscape:window-width="1920"
     inkscape:window-height="1005"
     inkscape:window-x="1911"
     inkscape:window-y="-9"
     inkscape:window-maximized="1"
     fit-margin-top="0"
     fit-margin-left="0"
     fit-margin-right="0"
     fit-margin-bottom="0" />
  <metadata
     id="metadata5470">
    <rdf:RDF>
      <cc:Work
         rdf:about="">
        <dc:format>image/svg+xml</dc:format>
        <dc:type
           rdf:resource="http://purl.org/dc/dcmitype/StillImage" />
        <dc:title></dc:title>
      </cc:Work>
    </rdf:RDF>
  </metadata>
  <g
     inkscape:label="Layer 1"
     inkscape:groupmode="layer"
     id="layer1"
     transform="translate(-192.78258,-336.86074)">
    <path
       style="opacity:0.5;fill:none;fill-rule:evenodd;stroke:#000000;stroke-width:0.98732013;stroke-linecap:round;stroke-linejoin:round;stroke-miterlimit:4;stroke-dasharray:none;stroke-dashoffset:0;stroke-opacity:1"
       d="m 395.64645,428.44608 c 31.0149,11.50161 28.22833,29.95997 -5.1175,40.54992 -34.64388,11.00218 -90.22528,10.01067 -122.10339,-1.8277 -33.09838,-12.29154 -30.10681,-32.00584 5.53426,-43.30931 36.98307,-11.72906 96.28312,-10.66593 130.27348,1.97351 35.24956,13.1077 32.04578,34.1193 -5.96694,46.15952 -39.39864,12.4792 -102.5378,11.34197 -138.70812,-2.12477 -37.4685,-13.95008 -34.04523,-36.30033 6.41552,-49.10056 41.89058,-13.25259 108.98929,-12.03877 147.40734,2.2815 39.75514,14.81868 36.10516,38.54892 -6.88001,52.13242 -44.45894,14.04923 -115.63766,12.75633 -156.37112,-2.44368 -42.10954,-15.71351 -38.2256,-40.86511 7.36038,-55.25512 47.10369,-14.86912 122.48286,-13.49466 165.59948,2.61133 44.53167,16.63457 40.40652,43.24885 -7.85665,58.46865 -49.82483,15.71225 -129.52492,14.25375 -175.09244,-2.78444 -47.0215,-17.58185 -42.64791,-45.7002 8.36885,-61.773 52.62235,-16.57865 136.76381,-15.03362 184.84995,2.963 49.57907,18.55536 44.94981,48.2191 -8.89694,65.16818 -55.49627,17.46829 -144.19954,15.83424 -194.87203,-3.14703 -52.20438,-19.55509 -47.3122,-50.80558 9.44093,-68.65419 18.68118,-5.87514 41.8506,-9.98632 66.6008,-11.83911"
       id="path6077"
       inkscape:connector-curvature="0"
       sodipodi:nodetypes="csssssssssssssssssssc" />
    <path
       style="fill:url(#radialGradient6054);fill-opacity:1"
       d="m 393.11489,410.27509 c 4.75598,5.09831 19.68905,45.26016 8.6912,45.38907 -0.55752,-0.0968 -1.7561,-0.084 -2.66352,0.0284 -2.36666,0.29317 -4.66971,3.02115 -10.29381,1.0906 -6.63441,-2.27734 -9.35902,-0.40551 -12.46719,-0.0181 -2.98322,0.37181 -7.56228,-0.0587 -16.00781,2.75445 -9.26887,3.08737 -10.3288,-0.79995 -20.16243,0.28646 -4.75706,0.52556 -12.09264,1.4525 -16.30124,2.05986 -8.43549,1.21737 -13.29722,1.62318 -17.99067,1.50167 -4.07534,-0.10548 -6.71468,-0.43226 -15.75838,-1.95108 -4.14487,-0.6961 -9.5703,-1.56458 -12.05653,-1.92997 -10.71682,-1.57497 -16.33865,-3.87354 -20.28713,-8.29471 -4.28873,-4.80203 -3.95578,-7.62722 2.26404,-19.21405 3.78018,-7.04204 4.92157,-8.53842 14.80285,-19.40654 6.036,-6.63882 8.62482,-10.10582 10.56954,-14.15489 2.00005,-4.16435 2.51537,-6.15942 3.92684,-15.20323 1.17789,-7.54717 1.69259,-9.35579 3.87422,-13.61405 2.13018,-4.15785 4.10259,-6.59023 10.81094,-13.33222 3.03727,-3.05247 6.66282,-6.75662 8.05681,-8.23142 4.08933,-4.32649 5.85669,-5.27464 10.20432,-5.47451 2.90027,-0.13334 6.29121,0.77411 8.87222,2.37432 1.64222,1.01816 3.13761,2.47022 8.34937,8.10736 3.49182,3.77687 8.91206,9.42914 12.04493,12.56059 16.01795,16.0107 37.0977,38.68995 41.52143,44.67206 z"
       id="path6024"
       inkscape:connector-curvature="0"
       sodipodi:nodetypes="ccssssssssssssssssssssscc" />
    <path
       style="fill:#ffffff;fill-opacity:1;opacity:0.3"
       d="m 148.24805,28.048828 -4.79102,0.21875 -4.79101,0.220703 0.0605,1.304688 c 0.0559,1.22141 0.20853,1.454554 2.35742,3.583984 1.26368,1.25224 2.19903,2.381719 2.08008,2.511719 -0.11901,0.1299 -1.06458,0.316109 -2.10156,0.412109 l -1.88477,0.173828 -0.0254,1.384766 -0.0254,1.384766 4.95703,-0.226563 4.95704,-0.226562 -0.0586,-1.285157 c -0.0546,-1.19247 -0.22005,-1.444023 -2.34765,-3.558593 -1.25954,-1.25179 -2.22198,-2.399039 -2.13868,-2.548828 0.0833,-0.149781 0.99088,-0.310422 2.01758,-0.357422 1.74878,-0.08005 1.87599,-0.131703 2.01563,-0.820313 0.082,-0.40428 0.0522,-1.058025 -0.0664,-1.453125 z m -1.91602,0.41211 c -97.554687,86.317142 -48.777343,43.158573 0,0 z m -10.00195,0.132812 -4.79102,0.220703 -4.79101,0.21875 0.0605,1.300781 c 0.0555,1.21156 0.21573,1.45656 2.34571,3.59375 1.25765,1.26194 2.19477,2.396342 2.08203,2.519532 -0.1128,0.12326 -1.05481,0.302537 -2.0918,0.398437 l -1.88476,0.173828 c -0.0169,0.927735 -0.0339,1.855469 -0.0508,2.783203 L 132.08979,39.5 l 4.88282,-0.302734 0.0312,-1.183594 c 0.0307,-1.11387 -0.1034,-1.320393 -2.2793,-3.476563 -1.27223,-1.26072 -2.2419,-2.420745 -2.1543,-2.578125 0.0876,-0.15723 0.99868,-0.326046 2.02539,-0.373046 1.74878,-0.08005 1.876,-0.131703 2.01563,-0.820313 0.0821,-0.40427 0.0522,-1.058015 -0.0664,-1.453125 z m -2.0293,0.408203 c -89.533853,85.956467 -44.766927,42.978235 0,0 z m -9.72656,0.275391 -4.21484,0.193359 -4.21485,0.193359 0.14649,4.935547 c 0.0802,2.71404 0.21839,5.102164 0.30859,5.308594 l 0.002,0 c 0.12726,0.29116 1.09457,0.315369 4.3086,0.105469 l 4.14453,-0.271484 -0.0605,-1.306641 -0.0606,-1.308594 -2.16992,0.01172 c -1.19406,0.0066 -2.34764,-0.11894 -2.5625,-0.28125 -0.52024,-0.393 -0.69117,-3.874983 -0.20703,-4.220703 0.19391,-0.13845 1.33194,-0.363237 2.52734,-0.498047 l 2.17383,-0.244141 -0.0605,-1.308593 z m 0.082,8.152344 c -83.104167,80.337982 -41.552083,40.16899 0,0 z m 36.00391,5.986328 c -6.38499,-0.0791 -55.45317,2.261359 -55.77344,2.710937 -0.2631,0.36928 7.29551,57.447667 7.65039,57.771487 0.0872,0.0796 5.22935,1.32583 11.42578,2.76758 6.19643,1.44176 11.52004,2.61918 11.83203,2.61718 0.31196,-0.002 4.96504,-1.44546 10.33985,-3.20898 13.52086,-4.43627 12.75841,-4.14558 12.88476,-4.9043 0.24417,-1.469818 2.49699,-57.449256 2.32227,-57.705076 -0.0192,-0.02806 -0.25598,-0.04355 -0.68164,-0.04883 z m -10.60547,11.746093 c 0.77339,-0.0099 1.18606,0.0069 1.23633,0.05273 0.3456,0.31535 -1.10838,36.182889 -1.48243,36.568359 -0.1231,0.12684 -3.2719,1.235361 -6.99609,2.462891 -3.72332,1.227227 -6.95472,2.229562 -7.17969,2.226562 -0.83978,-0.01003 -14.40934,-3.291967 -14.69726,-3.554687 -0.16487,-0.15043 -0.61788,-2.59731 -1.00586,-5.4375 -0.59044,-4.32251 -0.64344,-5.204888 -0.32422,-5.423828 0.456,-0.31282 5.8602,-0.537122 6.35156,-0.263672 0.18894,0.10517 0.50166,1.330379 0.69336,2.724609 0.20515,1.49208 0.50186,2.621291 0.72266,2.744141 0.20634,0.11485 1.97961,0.553299 3.9414,0.974609 l 3.56836,0.765625 3.73047,-1.234375 c 2.05164,-0.67918 3.83259,-1.344486 3.95899,-1.478516 0.25533,-0.27075 0.70984,-8.262051 0.48242,-8.482421 -0.0789,-0.0765 -3.7697,-0.1051 -8.20117,-0.0625 l -8.05664,0.07813 -0.47071,-3.183594 c -0.41238,-2.7891 -0.41704,-3.229836 -0.0352,-3.566406 0.3256,-0.28692 2.51807,-0.478066 8.67187,-0.759766 l 8.23633,-0.376953 0.2168,-0.666016 c 0.1188,-0.3659 0.25072,-1.945695 0.29492,-3.509765 l 0.082,-2.84375 -3.73633,0.130859 c -2.05434,0.07159 -8.11658,0.250958 -13.47266,0.398437 l -9.73828,0.267579 -0.24804,-1.154297 c -0.13594,-0.63461 -0.33885,-2.131685 -0.45118,-3.328125 l -0.20507,-2.175781 17.52343,-1.058594 c 8.70933,-0.525945 14.26967,-0.804411 16.58985,-0.833985 z"
       id="path4150"
       inkscape:connector-curvature="0"
       sodipodi:nodetypes="ccccsccccccccccscccccccccccscsccsccccccsscscccsccccccccccccccccccccccccsccssccsccsccsccccscccscsccccccc"
       transform="translate(192.78258,336.86074)" />
  </g>
</svg>
