<?xml version="1.0" encoding="UTF-8" standalone="no"?>
<!-- Created with Inkscape (http://www.inkscape.org/) -->

<svg
   xmlns:dc="http://purl.org/dc/elements/1.1/"
   xmlns:cc="http://creativecommons.org/ns#"
   xmlns:rdf="http://www.w3.org/1999/02/22-rdf-syntax-ns#"
   xmlns:svg="http://www.w3.org/2000/svg"
   xmlns="http://www.w3.org/2000/svg"
   xmlns:xlink="http://www.w3.org/1999/xlink"
   xmlns:sodipodi="http://sodipodi.sourceforge.net/DTD/sodipodi-0.dtd"
   xmlns:inkscape="http://www.inkscape.org/namespaces/inkscape"
   width="198.99336mm"
   height="107.40089mm"
   viewBox="0 0 705.09459 380.55434"
   id="svg2"
   version="1.1"
   inkscape:version="0.91 r13725"
   sodipodi:docname="gardenbg.svg">
  <defs
     id="defs4">
    <linearGradient
       inkscape:collect="always"
       id="linearGradient4154">
      <stop
         style="stop-color:#000000;stop-opacity:0.38333333"
         offset="0"
         id="stop4156" />
      <stop
         style="stop-color:#000000;stop-opacity:0;"
         offset="1"
         id="stop4158" />
    </linearGradient>
    <pattern
       inkscape:stockid="Stripes 1:2"
       id="Strips1_2"
       patternTransform="translate(0,0) scale(10,10)"
       height="1"
       width="3"
       patternUnits="userSpaceOnUse"
       inkscape:collect="always">
      <rect
         id="rect4959"
         height="2"
         width="1"
         y="-0.5"
         x="0"
         style="fill:black;stroke:none" />
    </pattern>
    <linearGradient
       inkscape:collect="always"
       id="linearGradient6097">
      <stop
         style="stop-color:#5e3f00;stop-opacity:1;"
         offset="0"
         id="stop6099" />
      <stop
         style="stop-color:#2b1c00;stop-opacity:1"
         offset="1"
         id="stop6101" />
    </linearGradient>
    <linearGradient
       inkscape:collect="always"
       id="linearGradient5915">
      <stop
         style="stop-color:#ffe59f;stop-opacity:1;"
         offset="0"
         id="stop5903" />
      <stop
         style="stop-color:#ffffff;stop-opacity:1"
         offset="1"
         id="stop5905" />
    </linearGradient>
    <linearGradient
       inkscape:collect="always"
       xlink:href="#linearGradient5915"
       id="linearGradient5907"
       x1="-168.00403"
       y1="588.49512"
       x2="-168.00403"
       y2="700.52917"
       gradientUnits="userSpaceOnUse"
       gradientTransform="matrix(2.3502758,0,0,1.5061066,-223.22535,-1146.9127)" />
    <linearGradient
       inkscape:collect="always"
       xlink:href="#linearGradient6097"
       id="linearGradient6103"
       x1="-176.48178"
       y1="675.64764"
       x2="-179.52548"
       y2="958.9408"
       gradientUnits="userSpaceOnUse"
       gradientTransform="matrix(2.3416431,0,0,1.0413947,-226.10702,-838.1276)" />
    <linearGradient
       inkscape:collect="always"
       xlink:href="#linearGradient4154"
       id="linearGradient4160"
       x1="-671.19702"
       y1="-92.240677"
       x2="-671.19702"
       y2="-131.48515"
       gradientUnits="userSpaceOnUse" />
  </defs>
  <sodipodi:namedview
     id="base"
     pagecolor="#ffffff"
     bordercolor="#666666"
     borderopacity="1.0"
     inkscape:pageopacity="0.0"
     inkscape:pageshadow="2"
     inkscape:zoom="1.5516469"
     inkscape:cx="417.52771"
     inkscape:cy="97.913546"
     inkscape:document-units="px"
     inkscape:current-layer="layer1"
     showgrid="false"
     showguides="true"
     inkscape:window-width="1920"
     inkscape:window-height="1005"
     inkscape:window-x="1911"
     inkscape:window-y="-9"
     inkscape:window-maximized="1"
     fit-margin-top="0"
     fit-margin-left="0"
     fit-margin-right="0"
     fit-margin-bottom="0" />
  <metadata
     id="metadata7">
    <rdf:RDF>
      <cc:Work
         rdf:about="">
        <dc:format>image/svg+xml</dc:format>
        <dc:type
           rdf:resource="http://purl.org/dc/dcmitype/StillImage" />
        <dc:title />
      </cc:Work>
    </rdf:RDF>
  </metadata>
  <g
     inkscape:label="Layer 1"
     inkscape:groupmode="layer"
     id="layer1"
     transform="translate(1005.6932,358.94009)">
    <rect
       style="fill:#25c4ff;fill-opacity:1;fill-rule:evenodd;stroke:none;stroke-width:0.9867155px;stroke-linecap:butt;stroke-linejoin:miter;stroke-opacity:1"
       id="rect3372"
       width="706.64319"
       height="89.496918"
       x="-1007.2418"
       y="-358.99377" />
    <path
       style="fill:#2c532f;fill-opacity:1"
       d="m -930.78111,-261.65051 c 0,-0.10261 1.80769,-1.37979 4.01696,-2.83818 3.95534,-2.61088 4.02303,-2.69712 4.40351,-5.61304 0.21361,-1.62876 0.28962,-5.64792 0.17089,-8.93144 -0.27636,-7.67366 -1.29994,-9.5231 -6.50845,-11.76051 -1.94147,-0.83393 -3.88924,-1.93097 -4.32861,-2.43787 -1.17154,-1.35175 -6.54443,-2.69653 -9.1497,-2.29012 -1.21021,0.18882 -4.32366,0.99393 -6.91881,1.78916 l -4.71831,1.44587 -4.53797,-0.94418 c -4.49164,-0.93455 -12.30452,-4.07763 -14.18416,-5.70629 -1.30308,-1.12889 -2.96571,-0.56413 -5.91345,2.00855 -1.64735,1.43774 -3.13549,2.185 -4.85929,2.44004 -2.26168,0.33461 -2.4355,0.27888 -1.93293,-0.62005 0.73082,-1.30722 -0.74879,-3.44735 -1.73235,-2.50576 -0.45107,0.43194 -1.10835,0.45516 -2.15014,0.076 -1.1702,-0.42597 -1.6469,-0.35401 -2.167,0.32699 -0.93926,1.22969 -2.41031,0.5057 -2.8479,-1.40152 -0.20238,-0.88493 -0.60938,-1.75114 -0.90306,-1.92493 -0.29366,-0.1738 -0.53404,-0.78737 -0.53404,-1.3635 0,-1.4792 -1.78407,-2.33698 -2.8922,-1.39061 -0.47761,0.40775 -1.77938,0.82395 -2.89308,0.92486 -1.9795,0.17941 -2.0211,0.14154 -1.8659,-1.69596 0.1125,-1.31809 -0.1934,-2.19408 -1.0223,-2.9328 -1.0555,-0.94148 -1.0876,-1.14253 -0.3033,-1.89345 0.4826,-0.46206 0.8774,-1.16564 0.8774,-1.56353 0,-0.39787 0.4088,-1.04806 0.908,-1.44488 0.4995,-0.39678 0.7866,-1.16586 0.6384,-1.70903 -0.3478,-1.27349 1.0121,-2.34889 2.49959,-1.97648 0.63794,0.15966 1.30196,0.0697 1.47601,-0.19968 0.17314,-0.2695 1.54098,-0.41368 3.03767,-0.32043 4.52019,0.2816 5.12555,-0.24204 5.0772,-4.39117 -0.0315,-2.62552 -0.24938,-3.55615 -0.8356,-3.55619 -1.19042,-1.1e-4 0.37597,-1.65662 1.58799,-1.67929 0.8358,-0.0155 0.82794,-0.10029 -0.0719,-0.75338 -1.54345,-1.12171 -1.23315,-1.3906 1.3231,-1.14714 1.95608,0.18632 2.30845,0.0682 2.16949,-0.7278 -0.13262,-0.75973 0.33615,-0.97761 2.33857,-1.08666 1.37752,-0.0751 3.00462,0.11987 3.61581,0.43292 0.61117,0.31313 1.10721,0.37364 1.10228,0.1344 -0.0225,-0.82613 -1.10228,-2.08698 -1.84725,-2.14575 -2.16478,-0.17075 -2.30441,-0.2583 -1.9082,-1.19691 0.22509,-0.53311 0.48324,-2.4024 0.57385,-4.154 0.12591,-2.42001 -0.027,-3.18472 -0.63637,-3.18472 -0.98557,0 -1.03167,-0.66578 -0.10795,-1.55082 0.53989,-0.51693 0.53989,-0.66463 0,-0.66463 -0.38204,0 -0.69438,-0.27591 -0.69438,-0.61314 0,-0.33721 0.40094,-0.46581 0.89114,-0.28577 0.52236,0.19193 0.8529,0.0447 0.79915,-0.35613 -0.18663,-1.39076 0.0652,-2.06829 0.76836,-2.07322 0.39779,-0.003 1.90302,-0.56358 3.34508,-1.24619 1.90728,-0.9028 2.56388,-1.51495 2.4094,-2.24556 -0.1529,-0.72079 0.0877,-0.95539 0.84909,-0.83079 0.79533,0.13001 1.06202,-0.17391 1.06202,-1.21103 0,-1.26616 0.20239,-1.3765 2.35859,-1.2893 2.2048,0.0892 2.40672,-0.0315 3.09256,-1.84687 0.61926,-1.63997 0.94239,-1.89199 2.07684,-1.61944 0.77891,0.18719 1.43642,0.0549 1.56526,-0.31506 0.15066,-0.43426 0.72518,-0.32226 1.79823,0.35087 1.51445,0.95003 1.6215,0.94954 2.73254,-0.0123 0.63591,-0.55101 1.05438,-1.26926 0.92959,-1.59613 -0.3256,-0.85371 1.46812,-3.64052 2.3433,-3.64052 0.40588,0 1.06315,-0.49848 1.46072,-1.10772 0.39733,-0.60926 1.01839,-1.10774 1.38021,-1.10774 0.36179,0 0.9795,-0.37112 1.37279,-0.8247 0.39327,-0.45358 0.94577,-0.68811 1.22775,-0.52118 0.2822,0.16694 0.51313,-0.0851 0.51313,-0.55995 0,-0.55182 0.52192,-0.86349 1.44632,-0.86349 0.79536,0 1.44632,-0.20607 1.44632,-0.45795 0,-0.54115 3.50112,-0.15255 4.34032,0.48174 0.67504,0.51012 2.60189,-0.6807 2.60189,-1.60797 0,-1.088 1.0672,-0.687 1.26126,0.47397 0.17089,1.02401 0.30177,1.04677 1.77597,0.30977 0.87495,-0.43751 1.5909,-0.65511 1.5909,-0.48355 0,0.17153 0.33888,0.0425 0.75308,-0.28661 0.41442,-0.32917 1.32557,-0.45524 2.02489,-0.28015 0.74587,0.18674 1.2716,0.0643 1.2716,-0.29662 0,-0.76339 2.26595,-0.48478 2.80135,0.3444 0.21587,0.33408 1.10543,0.77881 1.97722,0.9883 0.87181,0.20949 1.58506,0.58332 1.58506,0.83069 0,0.24741 0.78118,0.61405 1.73572,0.81477 0.95455,0.20072 1.7355,0.56522 1.7355,0.81 0,0.24478 0.84616,0.40431 1.88009,0.35451 1.2228,-0.0589 1.8821,-0.37518 1.88547,-0.90445 0,-0.53043 0.6078,-0.81861 1.7355,-0.82741 2.5061,-0.0196 4.59081,-1.23805 3.75926,-2.19719 -1.20684,-1.39238 1.458,-3.91433 3.8573,-3.6503 0.37372,0.0411 0.82998,-0.15833 1.01391,-0.44327 0.20013,-0.3108 1.54887,-0.20854 3.37025,0.25569 3.49326,0.89032 6.8959,1.01456 7.69281,0.28086 0.74699,-0.68774 2.64753,-0.86206 3.8654,-0.35457 0.76656,0.31938 0.86842,0.65606 0.43398,1.43337 -0.77915,1.39361 -0.71506,1.66189 0.30717,1.28637 0.48143,-0.17684 1.26238,-0.0143 1.7355,0.36213 0.47333,0.376 0.86054,0.49799 0.86054,0.27109 0,-0.22693 0.36361,-0.12371 0.80793,0.22946 0.44456,0.35313 0.68224,1.10323 0.52821,1.66692 -0.3319,1.21532 0.91273,2.14714 1.54975,1.16026 0.35012,-0.54229 0.88012,-0.53388 2.53872,0.0403 1.15287,0.39914 2.09617,0.95539 2.09617,1.23612 0,0.28073 0.43264,0.16836 0.96173,-0.24974 0.82482,-0.65185 0.92059,-0.64176 0.67235,0.0707 -0.38699,1.11111 1.16389,2.17614 3.20047,2.19784 1.18773,0.0123 1.56394,0.23949 1.33683,0.80598 -0.42814,1.06823 2.33138,1.92664 4.42599,1.37678 1.25631,-0.32974 1.89379,-0.17592 2.7775,0.67031 0.73395,0.70266 1.55335,0.97487 2.27472,0.75568 1.53334,-0.46594 1.42518,0.50696 -0.17314,1.56873 l -1.30173,0.86404 1.73548,1.40094 c 0.95454,0.77049 2.05706,1.29368 2.44989,1.16264 1.27363,-0.42478 2.96145,3.79387 1.79418,4.48448 -0.84953,0.50275 -0.52752,1.29469 1.25205,3.07731 1.85287,1.85626 2.29563,3.78986 0.86775,3.78986 -0.47739,0 -0.86775,0.24925 -0.86775,0.55387 0,0.30461 0.27163,0.55387 0.60375,0.55387 0.33213,0 0.52753,0.32959 0.43399,0.73243 -0.27433,1.18228 1.4236,4.8062 2.25201,4.8062 0.41779,0 0.75982,0.32734 0.75982,0.72743 0,0.40008 0.90483,1.06732 2.01071,1.48272 1.56709,0.5887 1.87042,0.91692 1.37549,1.48803 -0.4875,0.56232 -0.38339,0.74292 0.44793,0.77647 0.60961,0.0245 0.76701,0.16589 0.36023,0.32309 -1.22911,0.47477 -0.7987,1.71044 0.72294,2.07608 0.79557,0.19116 1.44631,0.60005 1.44631,0.90871 0,0.30862 0.58578,0.77738 1.30174,1.04169 1.38562,0.51152 1.28533,0.59576 -1.73548,1.45803 -1.37865,0.39349 -0.7823,1.90277 0.75194,1.90277 1.70558,0 4.88852,1.44273 4.88852,2.21584 0,0.29502 0.80456,0.37178 1.83263,0.17488 1.54796,-0.29637 1.77553,-0.20813 1.46454,0.56772 -0.25431,0.63471 -0.0607,0.92123 0.62601,0.9271 0.7614,0.005 0.81447,0.11768 0.22667,0.47438 -0.42207,0.25623 -0.68246,0.93784 -0.57857,1.51464 0.14392,0.80015 -0.11919,1.01747 -1.11239,0.91682 -1.3982,-0.14167 -1.58822,0.22572 -0.76252,1.47477 0.36787,0.55651 1.47331,0.75212 3.75162,0.66387 3.23241,-0.12508 3.64841,0.16311 3.29829,2.28575 -0.0382,0.22847 0.19114,0.4154 0.51,0.4154 1.04988,0 0.60173,1.93519 -0.61702,2.66383 -1.52166,0.90983 -1.16165,2.01639 0.66109,2.03201 1.10633,0.008 1.37323,0.27498 1.26463,1.2582 -0.0765,0.68541 0.14615,1.2462 0.4956,1.2462 0.34854,0 0.49605,0.34349 0.32762,0.76331 -0.16864,0.41981 -0.0292,1.02897 0.31076,1.35366 0.43646,0.41793 0.25432,0.49966 -0.62376,0.27983 -0.86348,-0.21623 -1.24035,-0.0565 -1.24035,0.52557 0,1.02736 -1.52637,1.64673 -2.97404,1.20684 -0.7362,-0.22368 -1.07553,-0.0529 -1.07553,0.54129 0,0.47747 -0.2325,0.86812 -0.51674,0.86812 -0.78522,0 -1.30577,1.71947 -0.73395,2.42414 0.92173,1.13558 1.14141,3.06573 0.41464,3.64322 -0.39417,0.31318 -0.88168,0.41144 -1.08337,0.21836 -0.65863,-0.63064 -2.13014,1.01791 -2.13014,2.38649 0,1.13337 -0.16416,1.25221 -1.08114,0.78247 -0.59455,-0.30463 -1.239,-0.40249 -1.43216,-0.21749 -0.19337,0.185 -0.69663,0.0621 -1.11869,-0.27324 -0.42207,-0.33529 -1.31725,-0.47194 -1.98936,-0.30366 -0.85786,0.2148 -1.41507,-0.0396 -1.87042,-0.85398 -0.38182,-0.68309 -1.21966,-1.15992 -2.03794,-1.15992 -1.25698,0 -1.35906,0.17958 -1.07057,1.88116 0.26646,1.57297 0.1192,1.94203 -0.90419,2.25279 -0.67278,0.20439 -1.22302,0.60405 -1.22302,0.88816 0,0.2841 -0.39059,0.51653 -0.86775,0.51653 -0.4821,0 -0.86796,-0.49232 -0.86796,-1.10773 0,-0.60924 -0.19564,-1.06025 -0.43378,-1.00222 -1.21403,0.29521 -4.28026,-0.88593 -4.82377,-1.85807 -0.59048,-1.05652 -0.67188,-1.0634 -1.73054,-0.14607 -1.05618,0.91499 -1.11105,0.9139 -1.11105,-0.0218 0,-1.57462 -1.55154,-0.0223 -2.90455,2.90591 -1.11309,2.40918 -1.1956,2.46566 -2.25921,1.54426 -0.82029,-0.71079 -1.37819,-0.81576 -2.17239,-0.40876 -0.76073,0.38977 -1.38696,0.32488 -2.17265,-0.22506 -0.95432,-0.66809 -1.01997,-1.03355 -0.48592,-2.69989 0.55047,-1.71686 0.49268,-1.96527 -0.52843,-2.27556 -1.13309,-0.34432 -1.13241,-0.36235 0.0607,-1.57784 1.50345,-1.53206 1.51964,-1.98893 0.0697,-1.98893 -0.62467,0 -2.85262,1.53747 -4.95082,3.41663 l -3.81503,3.41664 -4.59846,0.25486 c -2.52903,0.14011 -7.46613,-0.0484 -10.97108,-0.41888 l -6.3724,-0.67374 -3.60321,3.18168 c -1.98172,1.74994 -3.81526,3.70335 -4.0743,4.34094 -0.55181,1.35725 0.61838,12.2946 1.48297,13.86386 0.32539,0.59036 1.76339,2.27273 3.19554,3.73859 l 2.60392,2.66517 -11.64949,0 c -6.40727,0 -11.64973,-0.084 -11.64973,-0.18654 z m 16.77706,-25.56818 c 0.3962,-0.45693 1.05572,-0.83079 1.46565,-0.83079 0.41016,0 1.38944,-0.7325 2.17623,-1.62778 1.21404,-1.38128 1.38674,-2.03124 1.14074,-4.29244 -0.51247,-4.71033 -1.42564,-4.71411 -4.13389,-0.0171 -1.36425,2.36591 -2.38424,4.87617 -2.38424,5.86706 0,1.88522 0.60849,2.20119 1.73551,0.90107 z m 27.61367,-4.15362 c 1.36558,-0.57838 2.63538,-1.43166 2.82158,-1.89618 0.18664,-0.46452 1.6487,-1.61637 3.24995,-2.55966 3.70732,-2.18386 3.08939,-2.92838 -2.66126,-3.2064 -4.52741,-0.21888 -6.48124,0.41124 -10.74352,3.46496 -2.29428,1.64371 -3.9893,1.78831 -6.48416,0.55317 -2.18747,-1.08305 -4.48805,-0.3529 -5.51365,1.74991 -0.8176,1.67689 -0.81805,1.67663 5.13655,2.75358 5.1026,0.92278 10.80086,0.57778 14.19451,-0.85938 z m -38.69899,-2.99787 c 0.54125,-2.67203 -1.97182,-5.77887 -6.83809,-8.4541 -1.43777,-0.79045 -3.15236,-1.9026 -3.81008,-2.47145 -1.17356,-1.01487 -1.21967,-1.00827 -2.45483,0.35189 -1.59002,1.75063 -4.45838,1.9151 -4.90451,0.28122 -0.37034,-1.35579 -2.10022,-2.07954 -2.71072,-1.13407 -0.50684,0.78511 -2.18544,0.1394 -3.45997,-1.33089 -1.03301,-1.19157 -2.34039,-1.07864 -2.34039,0.20218 0,0.7925 0.77354,1.30561 3.03724,2.01512 4.24632,1.33084 8.32669,3.33583 11.71516,5.75675 1.5909,1.13664 3.80379,2.36417 4.9173,2.72785 1.11375,0.36369 2.80585,1.2742 3.7604,2.0234 1.90819,1.49756 2.78987,1.50675 3.08849,0.0321 z m -23.60008,-1.17353 c 2.0611,-0.84864 5.22515,-1.64567 7.06093,-1.77875 1.82972,-0.13262 3.32664,-0.4501 3.32664,-0.70557 0,-0.68988 -5.63531,-3.07539 -9.09055,-3.84816 -2.94775,-0.65926 -3.04937,-0.64019 -4.48355,0.84136 -0.80703,0.83379 -1.46746,1.97802 -1.46746,2.54279 0,1.25824 -2.40873,1.42151 -3.43906,0.23311 -0.5896,-0.68018 -0.84796,-0.64058 -1.80633,0.27695 -1.92011,1.83834 -5.93504,1.01679 -6.8997,-1.4118 -0.32201,-0.81123 -1.01099,-1.39458 -1.64714,-1.39458 -0.60128,0 -1.77912,-0.51658 -2.61762,-1.14795 -1.50614,-1.13421 -1.52435,-1.13476 -1.52435,-0.0452 0,2.88769 1.81533,4.16316 9.55601,6.71454 5.99779,1.97685 7.64378,1.94189 13.03218,-0.27666 z m 32.34705,-1.14884 c 1.00716,-1.09818 1.71773,-2.10519 1.57921,-2.23778 -0.13942,-0.13248 -1.58124,-0.44229 -3.20633,-0.68822 l -2.95448,-0.44716 0.31436,1.43873 c 0.17315,0.79129 0.43331,1.99952 0.57834,2.68492 0.37868,1.78693 1.58732,1.54102 3.6889,-0.75049 z m 24.63264,-1.91328 c 0.55093,-0.85358 0.054,-1.157 -2.74648,-1.67284 -2.27336,-0.41893 -2.59086,-0.33173 -3.78489,1.03965 l -1.30308,1.49691 2.17105,0.61815 c 2.21579,0.63087 4.72303,-0.0252 5.6634,-1.48187 z m -34.42186,-8.43302 c -1.71277,-4.84688 -2.33767,-5.52316 -4.42305,-4.78811 -0.91992,0.32433 -2.2592,1.29837 -2.97562,2.16458 l -1.30285,1.57486 3.61692,2.47614 c 1.98937,1.36188 4.13749,3.03373 4.77386,3.71521 l 1.15713,1.23908 0.18439,-1.4698 c 0.10125,-0.80837 -0.36247,-3.01877 -1.03145,-4.91196 z m 5.18536,1.93033 c 0,-0.2437 -0.2379,-0.67985 -0.52888,-0.96927 -0.72113,-0.71776 -0.98288,-3.13992 -0.43084,-3.98884 0.29817,-0.45867 -0.063,-0.88052 -1.0681,-1.2462 -0.83514,-0.30406 -1.60328,-0.55284 -1.70671,-0.55284 -0.4043,0 2.89265,7.18384 3.30054,7.19179 0.23859,0.004 0.43399,-0.19094 0.43399,-0.43464 z"
       id="path4185"
       inkscape:connector-curvature="0" />
    <path
       style="fill:#a13333;fill-opacity:1"
       d="m -395.97707,-259.85505 c -0.20742,-0.0476 -0.37746,-0.18724 -0.37746,-0.31028 -1.3e-4,-0.1435 -0.43074,-0.22741 -1.20101,-0.23403 -0.80404,-0.006 -1.2647,-0.10112 -1.39431,-0.28517 -0.11769,-0.16741 -0.11215,-0.2998 0.0166,-0.33863 0.11492,-0.035 0.16007,-0.13506 0.0997,-0.22218 -0.0609,-0.0872 0.16393,-0.21167 0.49998,-0.27674 0.72596,-0.1406 0.8118,-0.76894 0.17571,-1.28527 -0.43532,-0.35336 -0.32497,-1.01335 0.14288,-0.85503 0.16353,0.0553 0.27541,-0.0526 0.27541,-0.26546 0,-0.21754 -0.15148,-0.35864 -0.38506,-0.35864 -0.21171,0 -0.39711,-0.0856 -0.41193,-0.1901 -0.0153,-0.10458 -0.0513,-0.27568 -0.0803,-0.38025 -0.0291,-0.10456 -0.0664,-0.27567 -0.0803,-0.38024 -0.0153,-0.10456 -0.16214,-0.19011 -0.32731,-0.19011 -0.36582,0 -0.67819,-0.6313 -0.35876,-0.72516 0.33936,-0.0998 0.27554,-0.62814 -0.10522,-0.87387 -0.30102,-0.19406 -0.30102,-0.32528 0,-1.34421 0.18345,-0.62102 0.33355,-1.47476 0.33383,-1.8972 1.3e-4,-0.42242 0.14607,-1.49526 0.32413,-2.38407 0.1782,-0.8888 0.38687,-2.57848 0.46384,-3.75483 l 0.13985,-2.13884 -0.57184,0 -0.57199,0 0,-1.71106 c 0,-1.42965 -0.0554,-1.71106 -0.33922,-1.71106 -0.68359,0 -0.22376,-0.66308 0.50275,-0.725 0.79103,-0.0675 0.94001,-0.35801 0.23067,-0.45002 -0.77234,-0.10018 -0.675,-0.45234 0.2239,-0.80976 l 0.84585,-0.33635 0.13293,-3.63992 c 0.0734,-2.00197 0.15604,-4.68419 0.18429,-5.96052 l 0.0513,-2.32057 -0.75462,-0.0559 -0.75461,-0.0559 0.0762,-1.66211 c 0.0637,-1.38932 0.0194,-1.6813 -0.26945,-1.77895 -0.77636,-0.26269 -0.24674,-0.82157 0.80433,-0.84866 l 0.46744,-0.0121 -0.48517,-0.17194 c -0.69189,-0.24527 -0.60051,-0.5413 0.26585,-0.86046 0.82924,-0.30551 1.02793,-0.71158 0.92548,-1.89033 -0.0651,-0.74908 -0.0803,-0.7619 -1.03293,-0.85554 -0.90554,-0.089 -0.97366,-0.13578 -1.07473,-0.73674 -0.09,-0.53604 -0.25021,-0.69254 -0.97339,-0.95059 -1.94678,-0.69478 -1.86383,-0.85259 0.59608,-1.13399 1.09702,-0.12548 2.68767,-0.36136 3.53492,-0.52416 1.49717,-0.28771 1.60324,-0.28263 3.77321,0.18045 1.22803,0.26206 2.889,0.5354 3.69111,0.60743 0.80212,0.0721 1.50716,0.20054 1.56669,0.28561 0.17225,0.24574 -0.79393,0.74972 -1.67745,0.87506 -0.74272,0.10536 -0.80863,0.16527 -0.80863,0.73548 0,0.71688 -0.2585,0.85158 -1.63467,0.85158 l -0.95262,0 0,1.22501 c 0,1.16209 0.0332,1.24251 0.65299,1.56516 0.62322,0.32462 0.80308,0.91714 0.27831,0.91714 -0.50414,0 -0.5346,0.26961 -0.0402,0.35806 0.7866,0.14082 5.66446,0.43884 5.84696,0.35723 0.0886,-0.0398 0.1631,-0.60198 0.16476,-1.24934 0,-1.59788 0.57379,-8.27772 0.84614,-9.92247 0.12184,-0.73195 0.22223,-2.03664 0.22458,-2.8993 l 0,-1.56848 -1.05798,0 c -0.58181,0 -4.53558,0.12727 -8.78608,0.28281 -9.34241,0.34189 -19.78656,0.66685 -21.44949,0.66739 l -1.21569,3e-4 -0.14096,4.32521 c -0.14608,4.48803 -0.20561,5.49457 -0.45968,7.77063 l -0.15107,1.35415 0.67528,0.44021 c 0.79768,0.52 0.83977,0.70749 0.20575,0.91431 -0.52602,0.17159 2.53884,0.41357 4.97658,0.39292 1.07143,-0.009 1.30251,-0.0545 0.93712,-0.184 -0.63471,-0.22494 -0.61366,-0.30598 0.17307,-0.66466 0.6102,-0.27827 0.65339,-0.36511 0.59289,-1.19313 -0.0637,-0.8684 -0.0858,-0.89473 -0.81802,-0.95599 -0.80986,-0.0678 -1.07142,-0.2848 -1.07669,-0.89346 0,-0.28077 -0.24895,-0.46229 -0.90387,-0.66542 -1.00509,-0.31172 -1.35304,-0.75459 -0.59288,-0.75459 0.2657,0 1.59797,-0.18322 2.9607,-0.40714 2.69212,-0.4424 2.38903,-0.46047 7.63437,0.45535 1.3518,0.23604 1.3932,0.57183 0.10107,0.81898 -0.77552,0.14829 -1.00121,0.36968 -1.00592,0.98646 0,0.37183 -0.11631,0.42776 -0.8658,0.42776 l -0.86248,0 0,1.03285 c 0,0.84959 0.0734,1.05329 0.41179,1.14806 0.22638,0.0634 0.52864,0.2394 0.67139,0.39116 0.21157,0.22476 0.16519,0.30877 -0.25006,0.45314 -0.49694,0.17282 -0.49223,0.18057 0.19108,0.31085 0.67887,0.12946 0.92548,0.51147 0.48517,0.7515 -0.11908,0.0647 -0.21573,0.71132 -0.21573,1.43711 l 0,1.3196 -0.62335,0 c -0.47146,0 -0.64938,0.10432 -0.72941,0.42776 -0.0582,0.23528 -0.12185,2.49025 -0.1422,5.01107 l -0.036,4.58327 0.65783,0.24028 c 0.74866,0.27345 0.86745,0.57437 0.22665,0.57437 -0.23718,0 -0.4313,0.0856 -0.4313,0.19013 0,0.10456 0.23691,0.19011 0.52629,0.19011 0.57462,0 0.95746,0.3493 0.59761,0.54536 -0.12324,0.0675 -0.29424,0.74231 -0.37884,1.4997 -0.13569,1.21186 -0.2063,1.37706 -0.59095,1.37706 -0.43103,0 -0.43533,0.0679 -0.30933,4.86559 0.12463,4.75202 0.0277,5.78106 -0.54928,5.78106 -0.11214,0 -0.14939,0.12559 -0.083,0.27908 0.0664,0.1535 0.0291,0.32966 -0.0844,0.39146 -0.11354,0.0618 -0.20617,0.28112 -0.20617,0.48735 0,0.42559 -0.61394,0.71754 -0.8377,0.39835 -0.0942,-0.13508 -0.24867,-0.0672 -0.43074,0.18997 -0.24578,0.3468 -0.23843,0.38496 0.0539,0.28589 0.18582,-0.0629 0.38838,-0.0423 0.45014,0.0459 0.19578,0.27926 -0.45083,0.59255 -1.27952,0.62004 -0.50525,0.0168 -0.85195,0.13747 -0.9414,0.32774 -0.19108,0.40656 -0.63609,0.46269 -1.01548,0.12809 -0.43616,-0.38456 -0.38839,-0.82714 0.11907,-1.10675 0.48198,-0.26546 0.5749,-0.55935 0.16173,-0.51204 -0.65036,0.0745 -1.0242,-0.0348 -1.0242,-0.29937 0,-0.15686 0.10939,-0.28518 0.24203,-0.28518 0.17557,0 0.17377,-0.0725 0,-0.26441 -0.13707,-0.14543 -0.29631,-0.59058 -0.35419,-0.98924 -0.0582,-0.39864 -0.19911,-0.77597 -0.31375,-0.83849 -0.13431,-0.073 -0.13154,-0.34817 0,-0.76935 0.4158,-1.27082 0.87868,-4.29219 0.98155,-6.40678 l 0.10386,-2.13883 -3.11968,0 c -2.07015,0 -3.1698,0.0717 -3.26894,0.21295 -0.0817,0.11713 -0.18637,2.40351 -0.23179,5.08085 -0.0789,4.61247 -0.28703,6.25552 -0.76153,5.99691 -0.0969,-0.0529 -0.17655,0.0321 -0.17655,0.18901 0,0.15685 0.0969,0.33805 0.21573,0.40269 0.11907,0.0647 0.21558,0.20305 0.21558,0.3076 0,0.10457 -0.11354,0.12826 -0.25227,0.0527 -0.17003,-0.0927 -0.20701,-0.0335 -0.11354,0.18124 0.11491,0.26466 0.043,0.2975 -0.42674,0.19359 -0.39725,-0.0879 -0.52006,-0.0604 -0.41276,0.0927 0.09,0.12911 0.0138,0.21785 -0.19287,0.21785 -0.20964,0 -0.32069,0.13099 -0.28233,0.33271 0.036,0.1859 -0.0554,0.31174 -0.20616,0.28517 -0.14816,-0.0261 -0.26946,0.038 -0.26946,0.14259 0,0.10458 -0.15133,0.19012 -0.33618,0.19012 -0.18484,0 -0.27983,0.0803 -0.21102,0.17844 0.0692,0.0981 -0.0457,0.26283 -0.25503,0.36598 -0.20894,0.1032 -0.30282,0.25564 -0.20839,0.33888 0.0942,0.0832 0.24645,0.0446 0.33785,-0.0859 0.12876,-0.18467 0.41316,-0.19057 1.28007,-0.0265 1.24726,0.23586 1.47766,0.4078 1.00745,0.75192 -0.17654,0.12922 -0.32109,0.3528 -0.32109,0.49683 0,0.14405 -0.14553,0.2619 -0.32345,0.2619 -0.17778,0 -0.32331,0.0856 -0.32331,0.19012 0,0.10457 -0.31542,0.19143 -0.70075,0.19303 -0.4716,0.002 -0.60577,0.056 -0.40998,0.16537 0.42978,0.24018 0.20755,0.86835 -0.33121,0.93631 -0.25698,0.0325 -0.59566,0.19634 -0.75254,0.36424 -0.25297,0.27091 -0.21835,0.29063 0.3078,0.17509 0.33009,-0.0726 0.5929,-0.0512 0.5929,0.048 0,0.46744 -0.30863,0.77964 -0.77082,0.77964 -0.36899,0 -0.47437,-0.0803 -0.38243,-0.29147 0.10939,-0.24974 0.0457,-0.25891 -0.43934,-0.0639 -0.3114,0.12512 -0.54138,0.32297 -0.51093,0.43969 0.0664,0.25485 -0.23828,0.33002 -0.75323,0.18588 -0.40512,-0.11338 -0.52808,-0.65033 -0.14897,-0.65033 0.126,0 0.17196,-0.0803 0.10245,-0.17843 -0.0692,-0.0981 0.0471,-0.2635 0.25672,-0.36746 0.36526,-0.18079 0.36526,-0.19468 0,-0.31906 -0.28039,-0.0953 -0.32207,-0.19448 -0.1562,-0.37082 0.16478,-0.17499 0.13293,-0.27245 -0.1163,-0.3567 -0.18845,-0.0637 -0.27818,-0.20783 -0.19938,-0.32017 0.0789,-0.11338 -0.0582,-0.25072 -0.30974,-0.3087 -0.24923,-0.0575 -0.45305,-0.23205 -0.45305,-0.38804 0,-0.2057 0.14442,-0.25166 0.52588,-0.16726 0.28911,0.0639 0.58596,0.0305 0.65949,-0.0745 0.0748,-0.10771 -0.0955,-0.19082 -0.39101,-0.19082 -1.1426,0 -1.87242,-0.23157 -1.87242,-0.59411 0,-0.21056 0.15452,-0.35884 0.37731,-0.36226 0.33106,-0.005 0.32483,-0.0326 -0.0512,-0.22485 -0.4356,-0.22271 -1.16819,-0.91455 -1.18135,-1.1156 0,-0.0608 0.23538,-0.22492 0.53183,-0.36484 0.6505,-0.30693 0.69079,-0.57096 0.108,-0.70538 -0.23718,-0.0547 -0.43116,-0.22047 -0.43116,-0.36842 0,-0.14793 -0.14553,-0.31821 -0.32347,-0.37839 -0.17791,-0.0602 -0.32343,-0.27139 -0.32343,-0.46933 0,-0.19794 -0.20645,-0.542 -0.45887,-0.76454 -0.41039,-0.36187 -0.43226,-0.47743 -0.20727,-1.09318 1.12874,-3.08975 1.74462,-5.05776 1.74683,-5.58194 6e-4,-0.34103 0.1458,-1.09058 0.32081,-1.66568 0.56272,-1.84837 0.84352,-1.71136 -3.50362,-1.70898 -2.10489,8.2e-4 -4.19096,0.0551 -4.6357,0.11993 l -0.80848,0.11785 0,1.25842 c -0.002,0.69214 0.15286,2.79838 0.34228,4.68056 0.27678,2.74996 0.4266,3.52483 0.7632,3.94495 0.28883,0.3607 0.33315,0.52385 0.14275,0.52612 -0.44528,0.005 -1.30568,0.89441 -0.98072,1.01339 0.20063,0.0734 0.1699,0.17418 -0.11492,0.37807 -0.25615,0.18312 -0.30157,0.30354 -0.13293,0.35305 0.47632,0.13999 -0.0138,0.84059 -0.76569,1.10184 -0.80487,0.27846 -1.48306,1.33297 -0.85734,1.33297 0.17169,0 0.31222,0.12119 0.31222,0.26933 0,0.14814 0.11354,0.3029 0.25367,0.34392 0.14441,0.0424 0.18152,0.17787 0.0858,0.31399 -0.0928,0.13166 -0.30337,0.19346 -0.46924,0.13733 -0.16603,-0.0561 -0.30172,-0.0406 -0.30172,0.0346 1.5e-4,0.0752 -0.98196,0.11631 -2.18228,0.0914 -1.93403,-0.04 -2.22854,-0.092 -2.58744,-0.45686 -0.50026,-0.50863 -0.50372,-0.57641 -0.0277,-0.53371 0.20756,0.0186 0.4986,0.024 0.64689,0.012 0.32649,-0.0266 0.35999,-0.7106 0.0429,-0.88323 -0.13709,-0.0746 0,-0.30463 0.33451,-0.58157 0.52394,-0.42818 0.53169,-0.45829 0.11908,-0.45829 -0.24328,0 -0.44238,-0.0856 -0.44238,-0.19012 0,-0.10456 0.0844,-0.19012 0.18775,-0.19012 0.23774,0 -0.10661,-1.68143 -0.41082,-2.00421 -0.15577,-0.16548 -0.15493,-0.60871 0,-1.44614 0.12462,-0.66415 0.32345,-2.02031 0.44087,-3.01368 0.1177,-0.99336 0.25449,-2.06278 0.30461,-2.37647 0.0498,-0.3137 0.15979,-1.27618 0.24383,-2.13884 l 0.15273,-1.56848 -0.56867,-0.0239 c -0.31278,-0.0131 -0.68996,-0.0355 -0.83825,-0.0499 -0.18982,-0.0183 -0.26944,-0.46185 -0.26944,-1.50143 0,-1.04703 -0.0858,-1.52312 -0.29714,-1.63993 -0.44847,-0.24848 -0.083,-0.58737 0.63332,-0.58737 0.41982,0 0.63402,-0.0963 0.63402,-0.28518 0,-0.15843 -0.19163,-0.28517 -0.43117,-0.28517 -0.68137,0 -0.50275,-0.32995 0.30613,-0.56534 0.40557,-0.11802 0.83133,-0.31716 0.94625,-0.44251 0.11908,-0.12932 0.24661,-2.50653 0.29604,-5.4947 l 0.0872,-5.26678 -0.87162,-0.0565 -0.87175,-0.0566 -0.0623,-1.56847 c -0.0346,-0.86265 -0.15578,-1.56848 -0.26958,-1.56848 -0.11355,0 -0.20687,-0.11917 -0.20687,-0.26483 0,-0.2907 0.45305,-0.49565 1.09579,-0.49565 0.22735,0 0.41358,-0.0855 0.41358,-0.1901 0,-0.10457 -0.19412,-0.19012 -0.43131,-0.19012 -0.73107,0 -0.4788,-0.3253 0.5382,-0.69411 l 0.96951,-0.35154 0,-0.98952 0,-0.9895 -0.80862,-0.11633 c -0.4446,-0.0639 -0.954,-0.13274 -1.13193,-0.15277 -0.19231,-0.0217 -0.34989,-0.27623 -0.38893,-0.62832 -0.0582,-0.52044 -0.18637,-0.62593 -1.06753,-0.87391 -0.55122,-0.15511 -1.03625,-0.37219 -1.07793,-0.48241 -0.0844,-0.22165 0.32096,-0.30958 2.85786,-0.62079 0.94872,-0.11637 2.22852,-0.30352 2.84413,-0.4159 0.81276,-0.14836 1.2852,-0.14598 1.72495,0.008 0.333,0.11715 1.62429,0.38917 2.86948,0.6045 3.50211,0.60565 3.3041,0.55052 3.02871,0.84305 -0.13431,0.14225 -0.67598,0.37129 -1.20489,0.50896 -0.83424,0.21722 -0.96135,0.31902 -0.96135,0.76969 0,0.49891 -0.0484,0.5216 -1.23978,0.57638 l -1.23979,0.057 -0.065,1.00444 -0.0651,1.00444 1.08955,0.39927 c 1.09343,0.40067 1.46478,0.91893 0.65838,0.91893 -0.23718,0 -0.43116,0.072 -0.43116,0.15996 0,0.088 0.50149,0.17562 1.1146,0.19475 0.61311,0.0191 2.23824,0.11691 3.6115,0.21728 3.19085,0.23318 3.89825,0.23289 3.89825,-0.002 0,-0.10455 -0.19399,-0.1901 -0.43117,-0.1901 -0.7409,0 -0.47298,-0.37795 0.53903,-0.76048 l 0.97021,-0.36673 0,-1.00487 c 0,-0.96282 0.66391,-7.84002 1.03679,-10.77373 l 0.17834,-1.40363 -5.44487,0.0894 c -2.99464,0.0491 -5.74268,0.0508 -6.10671,0.003 l -0.66198,-0.0856 0,-1.87293 c 0,-1.68695 -0.043,-1.89339 -0.43726,-2.07926 -1.04164,-0.4916 -0.0596,-0.5715 5.48585,-0.44627 4.194,0.0948 5.70517,0.0708 5.8194,-0.0921 0.0942,-0.13397 -0.0623,-0.29238 -0.3978,-0.40507 -0.30364,-0.10174 -0.55205,-0.26644 -0.55205,-0.36592 0,-0.0994 0.54014,-0.45338 1.20046,-0.78645 1.23729,-0.62426 1.60256,-1.10197 1.60256,-2.09636 0,-0.41911 -0.10108,-0.55798 -0.40487,-0.55798 -0.57295,0 -0.93475,-0.45991 -0.85181,-1.08312 l 0.0706,-0.5329 -4.83924,-0.12298 c -4.61727,-0.11736 -6.55324,-0.24298 -7.21966,-0.46845 -0.17224,-0.0583 -0.45997,-0.73144 -0.66765,-1.56162 -0.20079,-0.80256 -0.45818,-1.56073 -0.57213,-1.68482 -0.11354,-0.1241 -0.7301,-0.28324 -1.36925,-0.35365 -1.12583,-0.12403 -1.17291,-0.15327 -1.51242,-0.93722 -0.34836,-0.80409 -0.35875,-0.80993 -1.64824,-0.92879 -1.0145,-0.0935 -1.43308,-0.049 -1.91866,0.20393 -0.61449,0.32003 -0.62847,0.31696 -1.29696,-0.28604 -0.37497,-0.33807 -0.89779,-0.60956 -1.17403,-0.60956 -0.49263,0 -1.17567,-0.44319 -1.17567,-0.7629 0,-0.091 0.87328,-0.69808 1.94053,-1.34915 1.06727,-0.65108 1.94055,-1.30337 1.94055,-1.44954 0,-0.33408 -0.41788,-1.03602 -0.76584,-1.28643 -0.39364,-0.2833 -0.64135,-1.69775 -0.2736,-1.5616 3.59433,1.33026 5.40762,1.70725 10.20282,2.12135 4.72237,0.40778 11.77671,0.68338 14.76942,0.57698 6.1369,-0.21818 12.05654,-0.51217 15.63175,-0.77631 17.26767,-1.2757 23.56712,-1.93761 30.61689,-3.217 0.83007,-0.15066 2.28545,-0.41236 3.23406,-0.58158 0.94872,-0.16921 2.2101,-0.42441 2.803,-0.5671 0.59289,-0.14269 1.33477,-0.29786 1.64853,-0.34481 2.89398,-0.433 9.06147,-2.36899 12.24,-3.84211 2.34194,-1.08536 3.23294,-1.23663 2.96529,-0.50342 -0.69023,1.89083 -0.86995,2.16436 -1.65226,2.51631 -0.73717,0.33162 -0.79962,0.42242 -0.75628,1.10044 0.0416,0.64364 1.3518,3.78265 2.16166,5.17741 0.39115,0.67391 0.0416,1.01528 -1.42242,1.39068 -0.85348,0.21878 -1.28299,0.44569 -1.4904,0.78741 -0.33964,0.5597 -0.60688,0.60432 -0.97324,0.16254 -0.24605,-0.29662 -0.38244,-0.29657 -2.07208,5.7e-4 -0.99485,0.17508 -1.91617,0.44592 -2.04743,0.60183 -0.13153,0.15592 -0.92783,0.42074 -1.77023,0.58848 -0.84226,0.16773 -1.62097,0.4034 -1.73049,0.5237 -0.10939,0.1203 -0.46121,0.96689 -0.78203,1.8813 -0.32068,0.91441 -0.66891,1.70936 -0.77386,1.76657 -0.47631,0.25952 -12.57909,1.60901 -14.43047,1.60901 l -0.8651,0 -0.0249,0.808 c -0.0138,0.4444 -0.0138,0.87615 0,0.95944 0.0153,0.0833 -0.26377,0.2414 -0.62128,0.35131 -0.58431,0.17961 -0.65021,0.28097 -0.65021,1.00009 l 0,0.80023 1.56323,0.65459 c 0.96175,0.40277 1.59078,0.78632 1.63495,0.99697 0.0567,0.27178 -0.0498,0.33059 -0.51646,0.28517 -0.35377,-0.0345 -0.62945,0.0473 -0.69189,0.20479 -0.0858,0.21742 0.29534,0.23893 2.24128,0.12646 1.28976,-0.0746 3.07273,-0.21789 3.96207,-0.31853 1.51187,-0.17107 3.50321,-0.39029 6.57623,-0.72402 0.71142,-0.0773 1.41494,-0.10226 1.56309,-0.0556 0.41581,0.13104 0.31875,0.82899 -0.13015,0.9324 -0.34878,0.0804 -0.41732,0.37122 -0.54222,2.29811 -0.0789,1.21333 -0.1656,2.22469 -0.19356,2.24748 -0.0706,0.0574 -7.72463,0.42477 -11.90936,0.5717 -1.89734,0.0666 -3.50792,0.15134 -3.57895,0.18827 -0.28315,0.14728 -0.38866,3.52817 -0.17156,5.49858 0.12739,1.15021 0.51314,3.41898 0.85861,5.0417 0.34546,1.62273 0.62807,3.26891 0.62807,3.65817 0,0.50186 0.12598,0.77684 0.43116,0.94522 0.53182,0.29285 0.56284,0.71216 0.0539,0.72841 -0.28551,0.009 -0.25768,0.0545 0.11493,0.18626 0.53916,0.19086 6.25832,0.28183 6.4613,0.10279 0.0692,-0.061 -0.036,-0.11098 -0.23345,-0.11098 -0.6268,0 -0.38935,-0.35905 0.50303,-0.76047 0.82925,-0.37304 0.86248,-0.42387 0.86248,-1.32102 l 0,-0.93304 -1.18592,-0.13065 c -1.17457,-0.12941 -1.18579,-0.13673 -1.18579,-0.77416 0,-0.41263 -0.10383,-0.6435 -0.29035,-0.6435 -0.36637,0 -1.60173,-0.53756 -1.76248,-0.76694 -0.13291,-0.18978 0.18734,-0.26924 2.26842,-0.56277 0.77081,-0.10872 2.04119,-0.33756 2.82296,-0.50853 1.36495,-0.29849 1.48928,-0.29503 3.12631,0.087 0.93767,0.2188 2.19005,0.45735 2.78294,0.5301 0.59303,0.0727 1.30695,0.20761 1.58663,0.29966 0.41982,0.13815 0.46219,0.21657 0.24314,0.44938 -0.14593,0.15511 -0.37979,0.28203 -0.51951,0.28203 -0.69438,0 -1.39638,0.50372 -1.52141,1.09182 -0.12184,0.57493 -0.19274,0.61924 -0.98446,0.61924 l -0.85265,0 0,1.22296 c 0,1.05599 0.0596,1.23943 0.43117,1.34363 0.50067,0.14013 0.58584,0.66542 0.108,0.66542 -0.52712,0 -0.36803,0.36311 0.21572,0.49229 0.50622,0.11205 0.78134,0.64844 0.33245,0.64844 -0.11354,0 -0.23497,0.66302 -0.26958,1.47341 -0.0567,1.32925 -0.10662,1.47897 -0.51425,1.53025 -0.43532,0.0549 -0.45609,0.19107 -0.59233,3.89743 -0.0776,2.11232 -0.14137,4.5076 -0.14165,5.32285 0,1.44761 0.0153,1.48984 0.64495,1.80613 0.76417,0.38345 0.80639,0.52819 0.19523,0.66913 -0.53834,0.12412 -0.34906,0.51026 0.25006,0.51026 0.23012,0 0.41843,0.12833 0.41843,0.28518 0,0.15685 -0.0969,0.28517 -0.21558,0.28517 -0.126,0 -0.21559,0.63373 -0.21559,1.52095 0,1.3942 -0.036,1.52094 -0.4313,1.52094 -0.38548,0 -0.43118,0.12676 -0.43118,1.19776 0,0.65876 0.0817,1.27901 0.18112,1.37836 0.0997,0.0993 0.30641,0.46083 0.45955,0.80335 0.24148,0.53964 0.23068,0.66953 -0.0817,0.97342 -0.32234,0.31412 -0.33646,0.60376 -0.1357,2.77947 0.29423,3.1938 0.28233,4.00586 -0.0637,4.31041 -0.15771,0.1391 -0.25034,0.34918 -0.20589,0.4668 0.0443,0.11764 -0.0623,0.34022 -0.2376,0.49462 -0.32538,0.28693 -0.34961,0.63712 -0.072,1.02954 0.24161,0.34073 -0.061,0.82516 -0.51494,0.82516 -0.22445,0 -0.40819,0.0906 -0.40819,0.20134 0,0.11074 -0.0969,0.14846 -0.21558,0.0838 -0.11908,-0.0647 -0.21559,-0.0269 -0.21559,0.0838 0,0.11073 -0.19979,0.20133 -0.44391,0.20133 -0.24424,0 -0.38395,0.0856 -0.3107,0.19013 0.0734,0.10456 -0.0236,0.19012 -0.21559,0.19012 -0.1919,0 -0.29077,0.083 -0.2196,0.18453 0.2394,0.34156 -0.9533,0.43889 -1.66321,0.13572 -0.37785,-0.1614 -0.76388,-0.25165 -0.85749,-0.20057 -0.0942,0.0511 -0.17044,-0.12605 -0.17044,-0.39365 0,-0.31389 0.11908,-0.48651 0.33605,-0.48651 0.18485,0 0.27208,-0.0914 0.19384,-0.20307 -0.0789,-0.1117 -0.27498,-0.15822 -0.43699,-0.10341 -0.37314,0.12627 -0.62016,-0.20716 -0.37758,-0.50989 0.22376,-0.27941 0.22306,-0.71847 -0.002,-1.03486 -0.0997,-0.13935 0.0138,-0.40588 0.27554,-0.65403 0.24341,-0.23036 0.35986,-0.46674 0.25878,-0.52528 -0.42951,-0.24899 -0.70435,-1.03397 -0.59137,-1.68915 0.0664,-0.38431 0.1667,-1.38315 0.22321,-2.21967 0.0886,-1.32281 0.40915,-6.50245 0.43435,-7.03439 0.0138,-0.19551 -1.88377,-0.18959 -4.76904,0.0149 -1.37242,0.0973 -1.55755,0.15711 -1.6661,0.53868 -0.0678,0.23608 -0.0402,0.68021 0.0596,0.98694 0.0997,0.30673 0.24922,1.41166 0.33231,2.45541 0.10107,1.27216 0.36111,2.4776 0.78825,3.65678 0.35046,0.96748 0.69412,2.12506 0.76362,2.57239 0.11354,0.72662 0.0651,0.85328 -0.45291,1.1878 -1.22427,0.79134 -1.73423,1.26676 -1.45939,1.36035 0.38368,0.13063 0.10801,0.43998 -0.39128,0.43998 -0.23027,0 -0.41857,0.0756 -0.41857,0.16795 0,0.0924 -0.21821,0.22977 -0.48517,0.30533 -0.41082,0.11635 -0.4273,0.15098 -0.108,0.22624 0.44639,0.1051 0.51133,0.63131 0.0775,0.63131 -0.16463,0 -0.29492,0.10694 -0.28939,0.23765 0,0.1307 0,0.55846 -0.0235,0.95059 -0.0305,0.64298 -0.0914,0.71323 -0.62696,0.71586 -0.41469,0.002 -0.50497,0.0521 -0.30032,0.16638 0.18359,0.10258 0.23843,0.31398 0.14717,0.56744 -0.0983,0.27133 -0.0525,0.40596 0.13861,0.41002 0.15633,0.003 0.46828,0.12899 0.69341,0.27924 0.34145,0.22793 0.3632,0.32219 0.13155,0.56901 -0.23346,0.24803 -0.71765,0.28183 -2.99659,0.20925 -2.8152,-0.0897 -4.11979,-0.24635 -4.11979,-0.49479 0,-0.0792 0.19413,-0.18892 0.43132,-0.24361 0.23704,-0.0547 0.43116,-0.193 0.43116,-0.30735 0,-0.27436 -1.00994,-0.2688 -1.20296,0.006 -0.10106,0.14526 -0.2171,0.10942 -0.35708,-0.11106 -0.14733,-0.23218 -0.36125,-0.29134 -0.7459,-0.20623 -0.33286,0.0737 -0.5105,0.0434 -0.46426,-0.079 0.0416,-0.10911 0.12323,-0.18395 0.1829,-0.16627 0.0596,0.0176 0.32733,-0.0714 0.59567,-0.19812 0.40029,-0.18891 0.44724,-0.29702 0.26183,-0.60247 -0.19093,-0.31476 -0.15577,-0.37225 0.22763,-0.37225 l 0.45346,0 -0.44585,-0.55217 c -0.53722,-0.66514 -0.54912,-0.84326 -0.0983,-1.45077 0.22154,-0.29823 0.25878,-0.46861 0.10246,-0.46861 -0.16325,0 -0.13015,-0.1969 0.0969,-0.58491 0.32524,-0.5548 0.32108,-0.58995 -0.0817,-0.68282 -0.35612,-0.0821 -0.39572,-0.18678 -0.24563,-0.64829 0.10662,-0.32737 0.0955,-0.59596 -0.0277,-0.66283 -0.11353,-0.0619 -0.15286,-0.38383 -0.0872,-0.71551 0.0651,-0.33169 0.21267,-1.88637 0.32732,-3.45484 0.11493,-1.56848 0.27277,-3.64314 0.351,-4.61037 l 0.14234,-1.75859 -3.37376,0 -3.37389,0 0,1.37836 c 0,0.75809 0.13846,2.02 0.30656,2.80424 0.16864,0.78423 0.41677,2.45253 0.55149,3.7073 0.13431,1.25479 0.32317,2.54284 0.41899,2.86234 0.14192,0.47288 0.0789,0.67821 -0.33619,1.10418 -0.28081,0.28781 -0.58347,0.48351 -0.67265,0.43489 -0.0886,-0.0485 -0.16186,0.17038 -0.16131,0.48667 0,0.46189 -0.14704,0.6455 -0.75046,0.93292 -0.49305,0.23489 -0.62266,0.36601 -0.37731,0.38162 0.71599,0.0455 0.80558,0.0725 0.85915,0.25819 0.0305,0.10278 -0.31097,0.23919 -0.7571,0.30312 -0.85583,0.12267 -1.34363,0.36552 -0.73426,0.36552 0.19773,0 0.35931,0.12301 0.35931,0.27336 0,0.15036 -0.16975,0.27068 -0.37731,0.26742 -0.20742,-0.003 -0.81388,0.0782 -1.34751,0.1811 -0.74063,0.14278 -0.82689,0.19198 -0.36456,0.20788 0.3442,0.0119 0.54816,0.10289 0.47242,0.21095 -0.0734,0.10457 0.0194,0.19011 0.20742,0.19011 0.18747,0 0.45125,0.2139 0.58638,0.4753 0.13569,0.26142 0.40791,0.4753 0.60632,0.4753 0.19828,0 0.3607,0.13768 0.3607,0.30596 0,0.24257 -0.1638,0.28659 -0.79061,0.21246 -0.5803,-0.0686 -0.79062,-0.0235 -0.79062,0.16934 0,0.14455 0.065,0.26283 0.14372,0.26283 0.0789,0 0.14372,0.11123 0.14372,0.24715 0,0.24939 -0.79476,0.3516 -1.49122,0.19178 z m -25.77891,-4.18106 c -0.15563,-0.055 -0.34159,-0.0482 -0.41331,0.015 -0.072,0.0632 0.0554,0.1081 0.28302,0.0999 0.25116,-0.009 0.30226,-0.0541 0.13015,-0.11487 z m 52.89203,-0.25037 c -0.0735,-0.10455 -0.23027,-0.1901 -0.34879,-0.1901 -0.11907,0 -0.15576,0.0856 -0.0817,0.1901 0.0734,0.10458 0.23026,0.19013 0.34878,0.19013 0.11908,0 0.15563,-0.0856 0.0817,-0.19013 z m 1.01063,-0.12986 c -0.15563,-0.0549 -0.34158,-0.0482 -0.41317,0.015 -0.0721,0.0632 0.0554,0.1081 0.28301,0.0999 0.25117,-0.009 0.30227,-0.0542 0.13016,-0.11486 z m -54.16144,-0.446 c -0.3942,-0.21977 -0.64413,-0.23333 -0.64413,-0.035 0,0.0824 0.2171,0.16407 0.4824,0.18169 0.3791,0.0252 0.41373,-0.006 0.16173,-0.14675 z m 2.69777,-0.18461 c -0.0735,-0.10456 -0.17598,-0.19012 -0.22832,-0.19012 -0.0525,0 -0.0955,0.0856 -0.0955,0.19012 0,0.10456 0.10245,0.19012 0.22831,0.19012 0.12601,0 0.16838,-0.0856 0.0955,-0.19012 z m 33.51185,-17.80443 c 0.0513,-0.0388 -0.0955,-0.19278 -0.32344,-0.34209 -0.40861,-0.26698 -0.40875,-0.27589 0,-0.5404 0.37593,-0.24563 0.39656,-0.41546 0.23802,-1.96046 -0.18873,-1.8408 -0.18098,-4.49212 0.0235,-7.79864 l 0.13015,-2.11464 -2.01849,-0.11802 c -1.11019,-0.0649 -2.55212,-0.1361 -3.20442,-0.1582 l -1.18578,-0.0402 -0.0567,5.8252 -0.0567,5.82519 0.6498,0.33853 c 0.75613,0.39385 0.8237,0.63232 0.21877,0.77182 -0.78549,0.18112 -0.44766,0.41446 0.70075,0.48391 1.19603,0.0723 4.73317,-0.0521 4.88935,-0.17201 z m 15.10851,-0.16176 c 0,-0.15685 -0.14552,-0.28517 -0.32345,-0.28517 -0.57517,0 -0.34352,-0.37794 0.43131,-0.70372 l 0.75462,-0.31731 0.0138,-2.19867 c 0,-1.20928 0.0609,-3.6317 0.12738,-5.38317 l 0.11908,-3.18448 -1.25902,-0.0127 c -0.69245,-0.006 -2.32629,-0.0284 -3.63074,-0.0475 l -2.37171,-0.0349 0.0373,1.04564 c 0.0207,0.57511 0.10523,3.14171 0.18804,5.70356 0.0831,2.56185 0.24009,4.75723 0.34989,4.87863 0.12461,0.13797 0.11492,0.26691 -0.0263,0.34392 -0.65923,0.35924 0.0207,0.481 2.68475,0.481 2.44357,0 2.91075,-0.0458 2.91075,-0.28518 z m -54.54955,-1.24189 c 0,-0.10794 -0.21835,-0.2688 -0.48517,-0.35745 -0.46371,-0.15408 -0.45056,-0.17587 0.29492,-0.49237 l 0.77996,-0.33117 -0.10801,-1.6806 c -0.0623,-0.96651 0.054,-3.14027 0.27347,-5.11586 0.21005,-1.8894 0.34256,-3.47006 0.29437,-3.51258 -0.12185,-0.10807 -6.65974,-0.48131 -8.42996,-0.48131 l -1.45897,0 -0.0291,3.56472 c -0.0166,1.9606 -0.0402,4.3347 -0.054,5.27579 l -0.0249,1.71106 0.91633,0.37532 c 0.95926,0.3929 1.22289,0.86045 0.48503,0.86045 -0.23718,0 -0.43117,0.0856 -0.43117,0.19012 0,0.1199 1.47337,0.19012 3.9888,0.19012 2.59851,0 3.9888,-0.0684 3.9888,-0.19624 z m 12.66716,0.0284 c 1.16889,-0.0131 1.9944,-0.10102 1.9944,-0.21246 0,-0.10456 -0.13986,-0.19011 -0.31072,-0.19011 -0.56479,0 -0.58749,-0.37769 -0.0346,-0.56325 l 0.54374,-0.18231 0.0623,-4.04747 c 0.0346,-2.22611 0.0139,-4.51803 -0.0457,-5.09313 l -0.108,-1.04566 -3.59681,-0.0584 -3.59682,-0.0584 -0.0678,4.43117 c -0.0886,5.74142 -0.0776,5.84104 0.71059,6.0832 0.73481,0.22587 0.7985,0.44936 0.16947,0.59442 -0.89612,0.20661 -0.16754,0.507 1.05742,0.43601 0.67543,-0.0392 2.12568,-0.0813 3.22257,-0.0935 z m 7.01376,-35.13211 c 0.0969,-0.0528 0.0844,-0.19532 -0.0263,-0.31672 -0.19094,-0.20773 -0.25616,-0.52528 -0.59152,-2.88238 -0.0747,-0.52281 -0.23635,-1.06037 -0.35999,-1.19454 -0.12323,-0.13419 -0.23456,-0.51918 -0.24633,-0.85554 l -0.0221,-0.61157 -2.26399,0.0713 c -1.24519,0.0393 -3.18558,0.1248 -4.31224,0.19013 l -2.04826,0.11879 -0.108,0.94302 c -0.0928,0.81368 -0.1818,0.95828 -0.6469,1.05422 -0.29644,0.0611 -0.52933,0.21428 -0.51742,0.34028 0.0138,0.126 0.036,0.52944 0.0539,0.89656 0.0291,0.61085 0.13293,0.71099 1.21818,1.18032 1.25169,0.54129 1.5498,1.00397 0.64689,1.00397 -0.29643,0 -0.53903,0.0979 -0.53903,0.21747 0,0.16084 1.24824,0.18143 4.7934,0.079 2.63631,-0.0761 4.87261,-0.18158 4.96953,-0.23439 z m 18.15882,-0.81249 c 1.3709,-0.12045 1.45675,-0.15207 0.93724,-0.34481 -0.31459,-0.11672 -0.62999,-0.2949 -0.70075,-0.39597 -0.0706,-0.10112 0.64745,-0.58501 1.59604,-1.07545 1.80596,-0.93357 1.73452,-0.84184 1.81482,-2.32897 0.0138,-0.23979 -0.19274,-0.35925 -0.73661,-0.42777 -0.71598,-0.0902 -0.75809,-0.13718 -0.82165,-0.91563 -0.0637,-0.77742 -0.0983,-0.81552 -0.64687,-0.72437 -0.31889,0.0529 -1.98665,0.1477 -3.70622,0.21063 -5.18551,0.18978 -5.33616,0.23998 -5.47877,1.8254 -0.0318,0.36181 -0.17156,0.84287 -0.30878,1.06901 -0.13707,0.22613 -0.2495,0.62088 -0.2495,0.87721 0,0.25634 -0.14497,0.71111 -0.32206,1.01063 -0.17724,0.29949 -0.32275,0.78962 -0.32345,1.08915 l -0.002,0.54461 3.71936,-0.14054 c 2.04549,-0.0774 4.39837,-0.20019 5.22845,-0.27313 z m 3.44755,-0.96381 c -0.0748,-0.10628 -0.22569,-0.14401 -0.33619,-0.0838 -0.29907,0.16298 -0.24328,0.27706 0.13569,0.27706 0.18499,0 0.27527,-0.087 0.20078,-0.19321 z m 5.93141,-0.2754 c 0,-0.0485 -0.19398,-0.17994 -0.43117,-0.29186 -0.34421,-0.16242 -0.43117,-0.14459 -0.43117,0.0884 0,0.16513 0.18721,0.29187 0.43117,0.29187 0.23719,0 0.43117,-0.0398 0.43117,-0.0884 z"
       id="path4198"
       inkscape:connector-curvature="0" />
    <path
       style="fill:#45753d;fill-opacity:1"
       d="m -785.92263,-251.23197 c 0,-0.0915 -1.50866,-1.22999 -3.3525,-2.53006 -3.30087,-2.32744 -3.35737,-2.40432 -3.67509,-5.00368 -0.1764,-1.45195 -0.24172,-5.03478 -0.14262,-7.96184 0.23063,-6.8406 1.08489,-8.48926 5.43184,-10.48377 1.62032,-0.74339 3.2459,-1.72134 3.61259,-2.17321 0.97794,-1.205 5.46187,-2.40378 7.63618,-2.04149 1.01003,0.1683 3.60847,0.88601 5.77433,1.59493 l 3.93783,1.2889 3.7873,-0.8417 c 3.74867,-0.83308 10.26917,-3.63493 11.83806,-5.0868 1.08734,-1.00632 2.47496,-0.50289 4.93509,1.79051 1.37485,1.28165 2.61683,1.94778 4.05568,2.17514 1.88754,0.29828 2.03244,0.2486 1.61299,-0.55274 -0.60974,-1.16531 0.62493,-3.0731 1.4458,-2.23373 0.37644,0.38504 0.925,0.40576 1.79447,0.0678 0.97662,-0.37972 1.37446,-0.31558 1.80854,0.29148 0.78389,1.0962 2.01162,0.45081 2.37681,-1.24937 0.16891,-0.78884 0.50858,-1.56103 0.75367,-1.71595 0.24528,-0.15492 0.4457,-0.70188 0.4457,-1.21548 0,-1.31861 1.48896,-2.08327 2.41379,-1.23965 0.3986,0.36349 1.48501,0.73451 2.41452,0.82448 1.65204,0.15991 1.68694,0.12616 1.55727,-1.51186 -0.092,-1.17499 0.16139,-1.95589 0.85313,-2.6144 0.88091,-0.83929 0.90775,-1.01851 0.25316,-1.68791 -0.40273,-0.41188 -0.73226,-1.0391 -0.73226,-1.39378 0,-0.35468 -0.341,-0.93429 -0.75782,-1.28802 -0.4168,-0.35372 -0.65645,-1.03931 -0.5326,-1.52351 0.29014,-1.13524 -0.84488,-2.09389 -2.08628,-1.7619 -0.53224,0.14233 -1.0866,0.0622 -1.23167,-0.17801 -0.14451,-0.24024 -1.28608,-0.36877 -2.53538,-0.28563 -3.77249,0.25103 -4.2777,-0.21578 -4.23734,-3.91447 0.0263,-2.34049 0.20811,-3.1701 0.69737,-3.17013 0.99351,-9e-5 -0.31378,-1.47676 -1.32531,-1.49697 -0.69755,-0.0138 -0.691,-0.0894 0.0601,-0.67161 1.28816,-0.99992 1.02937,-1.23963 -1.10423,-1.02258 -1.63252,0.16608 -1.9264,0.0608 -1.81042,-0.64881 0.11077,-0.67723 -0.28076,-0.87147 -1.95194,-0.96869 -1.14963,-0.0669 -2.5076,0.10686 -3.01749,0.38592 -0.51008,0.27915 -0.92407,0.33308 -0.92014,0.11981 0.0188,-0.73644 0.91995,-1.86041 1.54169,-1.91279 1.80667,-0.15222 1.92321,-0.23027 1.59255,-1.06698 -0.18787,-0.47524 -0.4033,-2.14159 -0.47894,-3.70303 -0.10515,-2.1573 0.0225,-2.83899 0.5313,-2.83899 0.82254,0 0.86083,-0.5935 0.0901,-1.38247 -0.45078,-0.46081 -0.45078,-0.59246 0,-0.59246 0.31867,0 0.57934,-0.24597 0.57934,-0.54657 0,-0.30062 -0.33461,-0.41526 -0.74354,-0.25476 -0.43615,0.17109 -0.71201,0.0398 -0.66716,-0.31747 0.15576,-1.23978 -0.0543,-1.84375 -0.64126,-1.84815 -0.33198,-0.002 -1.58822,-0.50239 -2.79173,-1.1109 -1.5918,-0.8048 -2.13979,-1.35048 -2.01068,-2.00178 0.12763,-0.64253 -0.0732,-0.85167 -0.70881,-0.74059 -0.66378,0.1159 -0.88616,-0.15504 -0.88616,-1.07957 0,-1.12871 -0.16891,-1.22707 -1.96864,-1.14933 -1.84008,0.0795 -2.0086,-0.0281 -2.5808,-1.64636 -0.51702,-1.46193 -0.78671,-1.68661 -1.73348,-1.44365 -0.65008,0.16688 -1.19882,0.049 -1.30635,-0.28085 -0.12574,-0.38711 -0.60523,-0.28727 -1.50077,0.31278 -1.26395,0.84689 -1.35327,0.84645 -2.28054,-0.011 -0.53072,-0.4912 -0.87978,-1.13148 -0.77582,-1.42285 0.27175,-0.76103 -1.22527,-3.24532 -1.95549,-3.24532 -0.33893,0 -0.88747,-0.44435 -1.21908,-0.98746 -0.3318,-0.54311 -0.85013,-0.98748 -1.1521,-0.98748 -0.30194,0 -0.81747,-0.33083 -1.1457,-0.73517 -0.32805,-0.40434 -0.78914,-0.61341 -1.02467,-0.4646 -0.23552,0.14882 -0.42807,-0.0758 -0.42807,-0.49915 0,-0.49192 -0.43576,-0.76976 -1.20707,-0.76976 -0.66397,0 -1.20707,-0.1837 -1.20707,-0.40822 0,-0.48241 -2.92217,-0.136 -3.62255,0.42942 -0.56337,0.45475 -2.17131,-0.6068 -2.17131,-1.4334 0,-0.96989 -0.89086,-0.61241 -1.05281,0.42251 -0.14262,0.91285 -0.25185,0.93313 -1.482,0.27615 -0.73041,-0.39001 -1.32775,-0.58399 -1.32775,-0.43106 0,0.15292 -0.28301,0.0378 -0.62869,-0.2555 -0.34586,-0.29343 -1.10629,-0.4058 -1.68994,-0.24972 -0.6225,0.16646 -1.06127,0.0573 -1.06127,-0.26443 0,-0.68051 -1.89111,-0.43215 -2.33794,0.30701 -0.18016,0.29782 -0.92258,0.69427 -1.65017,0.88102 -0.72758,0.18673 -1.32286,0.51998 -1.32286,0.74051 0,0.22055 -0.65195,0.54738 -1.44861,0.72632 -0.79665,0.17892 -1.44841,0.50386 -1.44841,0.72206 0,0.2182 -0.70601,0.36041 -1.56908,0.31601 -1.02036,-0.0525 -1.57079,-0.33444 -1.5736,-0.80626 0,-0.47284 -0.50727,-0.72974 -1.44841,-0.73757 -2.09136,-0.0175 -3.83141,-1.10364 -3.13742,-1.95866 1.00721,-1.24123 -1.21684,-3.48938 -3.21926,-3.25402 -0.3119,0.0366 -0.69267,-0.14116 -0.84618,-0.39514 -0.16702,-0.27708 -1.29265,-0.18591 -2.81276,0.22792 -2.91542,0.79367 -5.75518,0.90441 -6.42028,0.25038 -0.62343,-0.6131 -2.20941,-0.76849 -3.226,-0.31608 -0.63976,0.28469 -0.72477,0.58482 -0.3622,1.27776 0.65026,1.24231 0.59678,1.48146 -0.25635,1.14672 -0.40161,-0.15764 -1.05356,-0.0127 -1.44842,0.32281 -0.39503,0.33518 -0.71821,0.44392 -0.71821,0.24165 0,-0.20228 -0.30345,-0.11028 -0.67429,0.20457 -0.37083,0.31478 -0.56917,0.98345 -0.44082,1.48594 0.27718,1.08338 -0.76155,1.91406 -1.29321,1.0343 -0.2922,-0.48342 -0.73452,-0.47592 -2.11877,0.0359 -0.96217,0.35581 -1.74943,0.85167 -1.74943,1.10194 0,0.25024 -0.36126,0.15007 -0.80285,-0.22264 -0.68836,-0.58107 -0.7683,-0.5721 -0.56112,0.063 0.32316,0.99049 -0.97118,1.9399 -2.67107,1.95924 -0.99125,0.011 -1.30522,0.2135 -1.11568,0.71847 0.35732,0.95228 -1.94573,1.71748 -3.69385,1.22733 -1.04849,-0.29396 -1.58035,-0.15683 -2.31807,0.59754 -0.61255,0.62637 -1.2964,0.86902 -1.89844,0.67363 -1.27971,-0.41535 -1.18943,0.45192 0.14638,1.39844 l 1.08641,0.77023 -1.44842,1.24885 c -0.79664,0.68686 -1.71678,1.15325 -2.04464,1.03643 -1.06294,-0.37868 -2.47157,3.38199 -1.4974,3.99764 0.7092,0.44816 0.44027,1.15413 -1.04474,2.74322 -1.54655,1.65475 -1.91607,3.37843 -0.72439,3.37843 0.39842,0 0.72439,0.22219 0.72439,0.49374 0,0.27155 -0.22689,0.49374 -0.50407,0.49374 -0.27718,0 -0.44007,0.29382 -0.36219,0.65292 0.22913,1.05393 -1.18812,4.28444 -1.8795,4.28444 -0.34868,0 -0.63413,0.29181 -0.63413,0.64845 0,0.35665 -0.75516,0.95145 -1.67792,1.32175 -1.30804,0.5248 -1.56121,0.81739 -1.14797,1.32651 0.40668,0.50126 0.31979,0.66225 -0.37401,0.69215 -0.50878,0.0219 -0.64014,0.1479 -0.30046,0.28803 1.0256,0.42322 0.6664,1.52475 -0.60353,1.85069 -0.66398,0.1704 -1.20708,0.53491 -1.20708,0.81006 0,0.27512 -0.48888,0.69299 -1.08641,0.9286 -1.1564,0.45599 -1.07271,0.5311 1.44842,1.29976 1.15058,0.35076 0.6529,1.69619 -0.62738,1.69619 -1.42363,0 -4.08007,1.28611 -4.08007,1.97529 0,0.26299 -0.67129,0.33141 -1.52949,0.1559 -1.29171,-0.26419 -1.48181,-0.18553 -1.22227,0.50609 0.21244,0.56579 0.0507,0.82122 -0.52246,0.82645 -0.63526,0.005 -0.67974,0.10491 -0.18918,0.42287 0.35226,0.22841 0.56957,0.83602 0.48287,1.35022 -0.12005,0.71327 0.0994,0.90702 0.92858,0.81729 1.16672,-0.12629 1.3253,0.20122 0.6362,1.31467 -0.30703,0.49608 -1.22942,0.67047 -3.13086,0.59179 -2.6979,-0.1115 -3.0451,0.1454 -2.75289,2.03761 0.0319,0.20366 -0.15953,0.3703 -0.42563,0.3703 -0.87622,0 -0.50219,1.72511 0.51496,2.37464 1.26994,0.81105 0.96949,1.79748 -0.55175,1.8114 -0.92332,0.007 -1.14608,0.24514 -1.05525,1.12162 0.0639,0.611 -0.12201,1.1109 -0.4138,1.1109 -0.29089,0 -0.414,0.3062 -0.27343,0.68045 0.14075,0.37424 0.0243,0.91728 -0.25936,1.20672 -0.36426,0.37254 -0.21225,0.4454 0.52059,0.24945 0.72082,-0.19277 1.03517,-0.0503 1.03517,0.4685 0,0.91583 1.27389,1.46796 2.48209,1.07583 0.61442,-0.1994 0.89761,-0.0471 0.89761,0.48252 0,0.42564 0.19404,0.77388 0.43126,0.77388 0.65533,0 1.08978,1.5328 0.61254,2.16098 -0.76924,1.01229 -0.95259,2.7329 -0.34587,3.24769 0.32879,0.2792 0.73566,0.36679 0.904,0.19468 0.54985,-0.56218 1.77795,0.90739 1.77795,2.1274 0,1.01032 0.137,1.11627 0.90212,0.69752 0.49619,-0.27156 1.03405,-0.3588 1.19545,-0.19388 0.16139,0.16493 0.58139,0.0553 0.93346,-0.24358 0.35224,-0.2989 1.09934,-0.42069 1.66027,-0.2707 0.71595,0.19149 1.18101,-0.0353 1.56103,-0.76127 0.31866,-0.60893 1.01791,-1.03399 1.70083,-1.03399 1.04906,0 1.13426,0.16008 0.89367,1.67693 -0.22258,1.40223 -0.0994,1.7312 0.75461,2.00822 0.56131,0.18221 1.02053,0.53849 1.02053,0.79175 0,0.25325 0.32598,0.46047 0.7244,0.46047 0.40236,0 0.7242,-0.43889 0.7242,-0.98748 0,-0.54311 0.16327,-0.94515 0.36201,-0.89342 1.01322,0.26316 3.57225,-0.78976 4.02585,-1.65636 0.49281,-0.94182 0.56075,-0.94795 1.44447,-0.13022 0.88128,0.81567 0.92708,0.81471 0.92708,-0.0194 0,-1.40369 1.2949,-0.0199 2.42409,2.59042 0.92895,2.14765 0.99802,2.198 1.88549,1.37662 0.68462,-0.63363 1.15022,-0.72719 1.81325,-0.36438 0.63487,0.34745 1.15734,0.28961 1.81305,-0.20064 0.79647,-0.59555 0.85145,-0.92133 0.40555,-2.40678 -0.45941,-1.53046 -0.41118,-1.75191 0.44102,-2.02851 0.94565,-0.30694 0.94509,-0.32302 -0.0507,-1.40654 -1.25474,-1.36575 -1.26826,-1.77303 -0.0583,-1.77303 0.52134,0 2.38074,1.37057 4.13186,3.04572 l 3.18397,3.04572 3.83779,0.22721 c 2.11088,0.12489 6.23112,-0.0431 9.15629,-0.37342 l 5.31848,-0.6006 3.007,2.83628 c 1.65391,1.55996 3.18415,3.30131 3.40054,3.86969 0.46033,1.20989 -0.51629,10.95987 -1.23787,12.35877 -0.27155,0.52628 -1.47167,2.026 -2.66694,3.33272 l -2.17318,2.37585 9.72266,0 c 5.34739,0 9.72248,-0.0749 9.72248,-0.16629 z m -14.00186,-22.79246 c -0.33048,-0.40733 -0.88091,-0.74061 -1.22322,-0.74061 -0.34212,0 -1.15941,-0.65298 -1.81625,-1.45105 -1.01302,-1.23134 -1.15734,-1.81074 -0.95203,-3.82644 0.4277,-4.19899 1.19,-4.20236 3.45008,-0.0153 1.13858,2.10905 1.99003,4.34681 1.99003,5.23011 0,1.68057 -0.50803,1.96223 -1.44861,0.80326 z m -23.04572,-3.70269 c -1.1399,-0.5156 -2.19966,-1.27624 -2.35504,-1.69034 -0.15577,-0.4141 -1.37598,-1.4409 -2.71236,-2.28179 -3.09388,-1.94677 -2.57817,-2.61047 2.22104,-2.8583 3.77868,-0.19512 5.40913,0.3666 8.96636,3.08881 1.91477,1.46526 3.32941,1.59416 5.41158,0.49311 1.82581,-0.96548 3.74565,-0.31459 4.60161,1.55994 0.68235,1.49483 0.68273,1.4946 -4.28689,2.45464 -4.25836,0.8226 -9.01422,0.51506 -11.8463,-0.76607 z m 32.29733,-2.67242 c -0.45152,-2.38197 1.64566,-5.15151 5.70697,-7.53632 1.19994,-0.70463 2.6309,-1.69604 3.17983,-2.20315 0.97944,-0.90469 1.01791,-0.89881 2.04877,0.31369 1.32699,1.56059 3.72086,1.70721 4.0932,0.25069 0.30909,-1.20859 1.75282,-1.85377 2.26233,-1.01094 0.423,0.69988 1.82394,0.12425 2.88764,-1.18642 0.86215,-1.06221 1.95324,-0.96153 1.95324,0.18023 0,0.70646 -0.64539,1.16387 -2.53482,1.79637 -3.54391,1.18635 -6.94913,2.97368 -9.77728,5.13177 -1.32775,1.01325 -3.17439,2.10753 -4.1039,2.43173 -0.92934,0.3242 -2.34171,1.13587 -3.13836,1.80373 -1.59255,1.33498 -2.32839,1.34317 -2.57762,0.0286 z m 19.69625,-1.04613 c -1.72016,-0.75652 -4.36082,-1.46703 -5.89294,-1.58565 -1.52705,-0.11822 -2.77636,-0.40125 -2.77636,-0.62897 0,-0.615 4.70313,-2.74152 7.58683,-3.4304 2.46013,-0.5877 2.54496,-0.5707 3.7419,0.75003 0.67373,0.74325 1.22471,1.76328 1.22471,2.26672 0,1.12165 2.01048,1.2672 2.8702,0.20782 0.49205,-0.60636 0.70768,-0.57105 1.50752,0.24687 1.60248,1.63877 4.95348,0.9064 5.75838,-1.25853 0.26875,-0.72317 0.84376,-1.24319 1.37466,-1.24319 0.50182,0 1.48501,-0.46049 2.18464,-1.02332 1.257,-1.01107 1.27219,-1.01157 1.27219,-0.0403 0,2.5742 -1.51503,3.71119 -7.97529,5.9856 -5.00565,1.76224 -6.37938,1.73108 -10.87644,-0.24662 z m -26.99631,-1.02412 c -0.84057,-0.97897 -1.43359,-1.87665 -1.31799,-1.99484 0.11639,-0.1181 1.31968,-0.39428 2.67594,-0.61353 l 2.46595,-0.3986 -0.26254,1.28253 c -0.1445,0.7054 -0.36145,1.78245 -0.48269,2.39345 -0.31583,1.59295 -1.32474,1.37372 -3.07867,-0.66901 z m -20.55801,-1.70558 c -0.45979,-0.76091 -0.045,-1.0314 2.29216,-1.49122 1.89732,-0.37347 2.1623,-0.29573 3.15883,0.92676 l 1.08772,1.33441 -1.81194,0.55105 c -1.84927,0.56238 -3.94196,-0.0225 -4.72677,-1.321 z m 28.72791,-7.51751 c 1.42965,-4.32071 1.95099,-4.92357 3.69142,-4.2683 0.76774,0.28911 1.88549,1.15741 2.4834,1.92957 l 1.08752,1.40389 -3.0188,2.20733 c -1.66011,1.21405 -3.45309,2.7044 -3.98419,3.3119 l -0.96574,1.10456 -0.15388,-1.31025 c -0.0845,-0.72062 0.30253,-2.69104 0.86083,-4.3787 z m -4.32761,1.72076 c 0,-0.21724 0.19875,-0.60605 0.4414,-0.86404 0.60204,-0.63983 0.82029,-2.79905 0.35976,-3.55582 -0.24903,-0.40887 0.0525,-0.78492 0.89123,-1.11091 0.69719,-0.27105 1.33826,-0.49282 1.42458,-0.49282 0.33724,0 -2.41433,6.40395 -2.75476,6.41105 -0.19912,0.004 -0.36221,-0.17021 -0.36221,-0.38746 z"
       id="path4185-8"
       inkscape:connector-curvature="0" />
    <rect
       style="fill:url(#linearGradient5907);fill-opacity:1;stroke:none;stroke-width:1.27801073;stroke-opacity:1"
       id="rect4383"
       width="708.38757"
       height="113.90876"
       x="-1007.7654"
       y="-246.62624" />
    <path
       style="fill:url(#linearGradient6103);fill-opacity:1;fill-rule:evenodd;stroke:none;stroke-width:1px;stroke-linecap:butt;stroke-linejoin:miter;stroke-opacity:1"
       d="m -1007.504,-137.01287 706.64957,-0.10873 0,161.335863 -42.62374,-127.135013 -621.26806,0 -42.20367,126.437423"
       id="path4463"
       inkscape:connector-curvature="0"
       sodipodi:nodetypes="cccccc" />
    <g
       id="g6046"
       transform="matrix(2.3502758,0,0,1.0413947,-222.92348,-868.59272)">
      <rect
         y="574.18555"
         x="-333.77243"
         height="23.243572"
         width="301.41656"
         id="rect4404"
         style="fill:#001d55;fill-opacity:1;stroke:none;stroke-width:0.9916814;stroke-opacity:1" />
      <rect
         y="574.03021"
         x="-333.63312"
         height="22.470011"
         width="298.91467"
         id="rect4404-4"
         style="opacity:0.32099998;fill:url(#Strips1_2);fill-opacity:1;stroke:none;stroke-width:0.9916814;stroke-opacity:1" />
    </g>
    <path
       style="fill:url(#linearGradient4160);fill-opacity:1;fill-rule:evenodd;stroke:none;stroke-width:1px;stroke-linecap:butt;stroke-linejoin:miter;stroke-opacity:1"
       d="m -964.74623,-102.92075 621.13872,-1.2937 -5.94041,-15.1713 -608.94344,0 z"
       id="path4152"
       inkscape:connector-curvature="0"
       sodipodi:nodetypes="ccccc" />
  </g>
</svg>
