<?xml version="1.0" encoding="UTF-8" standalone="no"?>
<!-- Created with Inkscape (http://www.inkscape.org/) -->

<svg
   xmlns:dc="http://purl.org/dc/elements/1.1/"
   xmlns:cc="http://creativecommons.org/ns#"
   xmlns:rdf="http://www.w3.org/1999/02/22-rdf-syntax-ns#"
   xmlns:svg="http://www.w3.org/2000/svg"
   xmlns="http://www.w3.org/2000/svg"
   xmlns:xlink="http://www.w3.org/1999/xlink"
   xmlns:sodipodi="http://sodipodi.sourceforge.net/DTD/sodipodi-0.dtd"
   xmlns:inkscape="http://www.inkscape.org/namespaces/inkscape"
   width="77.772446mm"
   height="44.573235mm"
   viewBox="0 0 275.57166 157.93666"
   id="svg5465"
   version="1.1"
   inkscape:version="0.91 r13725"
   sodipodi:docname="githubrockh.svg">
  <defs
     id="defs5467">
    <linearGradient
       inkscape:collect="always"
       id="linearGradient6048">
      <stop
         style="stop-color:#357c94;stop-opacity:1"
         offset="0"
         id="stop6028" />
      <stop
         style="stop-color:#1e4451;stop-opacity:1"
         offset="1"
         id="stop6030" />
    </linearGradient>
    <radialGradient
       inkscape:collect="always"
       xlink:href="#linearGradient6048"
       id="radialGradient6054"
       cx="343.75964"
       cy="394.77118"
       fx="343.75964"
       fy="394.77118"
       r="83.408272"
       gradientTransform="matrix(0.91873462,-0.14478938,-0.13264694,0.71472318,96.324729,162.11137)"
       gradientUnits="userSpaceOnUse"
       spreadMethod="pad" />
  </defs>
  <sodipodi:namedview
     id="base"
     pagecolor="#ffffff"
     bordercolor="#666666"
     borderopacity="1.0"
     inkscape:pageopacity="0.0"
     inkscape:pageshadow="2"
     inkscape:zoom="3.3966915"
     inkscape:cx="173.69518"
     inkscape:cy="82.242036"
     inkscape:document-units="px"
     inkscape:current-layer="layer1"
     showgrid="false"
     inkscape:window-width="1920"
     inkscape:window-height="1005"
     inkscape:window-x="1911"
     inkscape:window-y="-9"
     inkscape:window-maximized="1"
     fit-margin-top="0"
     fit-margin-left="0"
     fit-margin-right="0"
     fit-margin-bottom="0" />
  <metadata
     id="metadata5470">
    <rdf:RDF>
      <cc:Work
         rdf:about="">
        <dc:format>image/svg+xml</dc:format>
        <dc:type
           rdf:resource="http://purl.org/dc/dcmitype/StillImage" />
        <dc:title></dc:title>
      </cc:Work>
    </rdf:RDF>
  </metadata>
  <g
     inkscape:label="Layer 1"
     inkscape:groupmode="layer"
     id="layer1"
     transform="translate(-192.78258,-336.86074)">
    <path
       style="opacity:0.5;fill:none;fill-rule:evenodd;stroke:#000000;stroke-width:0.98732013;stroke-linecap:round;stroke-linejoin:round;stroke-miterlimit:4;stroke-dasharray:none;stroke-dashoffset:0;stroke-opacity:1"
       d="m 395.64645,428.44608 c 31.0149,11.50161 28.22833,29.95997 -5.1175,40.54992 -34.64388,11.00218 -90.22528,10.01067 -122.10339,-1.8277 -33.09838,-12.29154 -30.10681,-32.00584 5.53426,-43.30931 36.98307,-11.72906 96.28312,-10.66593 130.27348,1.97351 35.24956,13.1077 32.04578,34.1193 -5.96694,46.15952 -39.39864,12.4792 -102.5378,11.34197 -138.70812,-2.12477 -37.4685,-13.95008 -34.04523,-36.30033 6.41552,-49.10056 41.89058,-13.25259 108.98929,-12.03877 147.40734,2.2815 39.75514,14.81868 36.10516,38.54892 -6.88001,52.13242 -44.45894,14.04923 -115.63766,12.75633 -156.37112,-2.44368 -42.10954,-15.71351 -38.2256,-40.86511 7.36038,-55.25512 47.10369,-14.86912 122.48286,-13.49466 165.59948,2.61133 44.53167,16.63457 40.40652,43.24885 -7.85665,58.46865 -49.82483,15.71225 -129.52492,14.25375 -175.09244,-2.78444 -47.0215,-17.58185 -42.64791,-45.7002 8.36885,-61.773 52.62235,-16.57865 136.76381,-15.03362 184.84995,2.963 49.57907,18.55536 44.94981,48.2191 -8.89694,65.16818 -55.49627,17.46829 -144.19954,15.83424 -194.87203,-3.14703 -52.20438,-19.55509 -47.3122,-50.80558 9.44093,-68.65419 18.68118,-5.87514 41.8506,-9.98632 66.6008,-11.83911"
       id="path6077"
       inkscape:connector-curvature="0"
       sodipodi:nodetypes="csssssssssssssssssssc" />
    <path
       style="fill:url(#radialGradient6054);fill-opacity:1"
       d="m 298.73018,467.10105 c -7.17805,0.67386 -49.71882,-11.12231 -42.99016,-19.54516 0.42667,-0.36746 1.16102,-1.28469 1.63192,-2.03827 1.22816,-1.96541 0.40042,-5.28491 5.49468,-8.4423 6.0094,-3.72457 6.15267,-6.87098 7.76365,-9.45356 1.54622,-2.47876 4.74874,-5.70681 7.66817,-13.73821 3.20404,-8.81436 7.08205,-7.37997 12.29418,-15.47053 2.52139,-3.91386 6.31299,-10.01627 8.42575,-13.56089 4.2347,-7.10465 6.92032,-11.02899 9.93804,-14.52185 2.62027,-3.0329 4.5313,-4.84824 11.40995,-10.83862 3.15261,-2.74548 7.24386,-6.36377 9.09169,-8.04065 7.96505,-7.22813 13.36267,-10.17182 19.4781,-10.6227 6.64229,-0.48958 8.77499,1.39017 14.5047,12.78539 3.4823,6.92558 4.01211,8.6539 6.87094,22.4146 1.74635,8.40577 3.00848,12.36786 5.15298,16.17627 2.20558,3.91679 3.53749,5.45708 10.14975,11.73752 5.51799,5.2411 6.69587,6.67352 8.86637,10.78225 2.1193,4.01184 2.90775,6.9101 4.32165,15.88568 0.64013,4.06377 1.4543,8.94945 1.80926,10.85708 1.0413,5.59618 0.72804,7.48392 -1.80859,10.89937 -1.69217,2.27843 -4.5512,4.32987 -7.48056,5.36748 -1.86385,0.6602 -3.99577,0.95901 -11.90332,1.6685 -5.29802,0.47533 -13.34768,1.33435 -17.8881,1.90892 -23.21458,2.93774 -55.09766,5.87705 -62.80111,5.78965 z"
       id="path6024"
       inkscape:connector-curvature="0"
       sodipodi:nodetypes="ccssssssssssssssssssssscc" />
    <path
       style="fill:#ffffff;fill-opacity:1;opacity:0.3"
       d="m 322.93503,448.94987 c -0.69033,-0.18677 -3.59719,-1.64875 -5.22294,-2.62672 -8.52797,-5.12997 -14.90733,-14.15969 -16.95095,-23.99338 -0.70842,-3.40881 -0.87045,-6.24352 -0.5861,-10.25358 0.23417,-3.29106 0.47771,-4.74812 1.26801,-7.56296 3.68008,-13.10616 14.79224,-23.3596 28.19862,-26.01951 7.66148,-1.52008 16.22646,-0.48602 23.10623,2.78964 8.37837,3.98918 14.86026,10.8091 18.41573,19.37604 1.6246,3.91455 2.49993,7.78508 2.76336,12.2192 0.10343,1.74098 -0.2858,7.14156 -0.64313,8.93416 -1.13093,5.66243 -3.39365,10.73475 -6.75164,15.13501 -4.84806,6.35281 -11.12383,10.78919 -18.54572,13.11008 -2.28997,0.71609 -3.09095,0.71035 -3.72968,-0.0267 l -0.43302,-0.49968 0.38047,-6.52436 c 0.40729,-6.98318 0.39731,-7.35102 -0.24425,-9.1234 -0.15884,-0.43886 -0.53002,-1.15052 -0.82479,-1.58144 l -0.53597,-0.78353 1.19197,-0.0806 c 3.81037,-0.25731 6.82337,-1.08037 9.48043,-2.58979 3.23129,-1.83563 5.36045,-4.89147 6.63085,-9.51683 0.41804,-1.52206 0.86174,-5.84716 0.74396,-7.25202 -0.20102,-2.39513 -1.18414,-5.10553 -2.52703,-6.9652 l -0.52905,-0.73268 0.44179,-1.19451 c 0.78435,-2.12078 0.83463,-5.17007 0.12702,-7.70042 -0.22458,-0.80296 -0.3069,-0.92285 -0.73167,-1.06546 -1.31433,-0.44132 -5.21453,0.67875 -8.65595,2.4858 -0.85728,0.45017 -1.31014,0.60715 -1.56692,0.54323 -0.19866,-0.0494 -1.00868,-0.27556 -1.80006,-0.50268 -4.52685,-1.29858 -9.56023,-1.65978 -14.22612,-1.02088 -0.81569,0.11163 -1.65363,0.22019 -1.86206,0.24112 -0.27318,0.0277 -0.65126,-0.16529 -1.35433,-0.69062 -2.80308,-2.09422 -6.85393,-3.91549 -8.40092,-3.7771 -0.46976,0.0421 -0.50661,0.0893 -0.93144,1.19204 -0.68895,1.78848 -0.89731,2.71311 -1.01463,4.50264 -0.0883,1.32865 -0.0542,1.9044 0.16516,2.89933 l 0.27384,1.24142 -0.6019,0.618 c -1.5793,1.62163 -2.98116,4.23957 -3.52011,6.57366 -0.31765,1.37559 -0.49564,5.72071 -0.29833,7.2825 0.47326,3.74577 1.69442,6.78612 3.55312,8.84628 1.39704,1.54849 3.71643,3.12052 6.02584,4.08418 1.00372,0.41885 3.71274,1.19958 4.99795,1.44039 l 0.81742,0.15321 -0.61212,0.66966 c -0.7952,0.86997 -1.40297,1.96066 -1.7716,3.17927 -0.2886,0.95395 -0.31156,0.98314 -0.91214,1.15785 -1.3244,0.38522 -2.00655,0.44268 -3.81287,0.32084 -1.85039,-0.12578 -1.88569,-0.13332 -2.81404,-0.68542 -1.20222,-0.71532 -2.20606,-1.83337 -3.08352,-3.43446 -1.27101,-2.31911 -3.33146,-4.0366 -5.24027,-4.36798 -1.0982,-0.19058 -1.93997,-0.0117 -1.97088,0.41905 -0.0235,0.32815 1.05015,1.58327 2.0197,2.36098 0.33043,0.26496 0.91206,0.95859 1.29259,1.54121 0.62061,0.95021 0.92028,1.61068 1.992,4.39007 0.58756,1.52372 2.23249,3.00565 4.1183,3.71017 0.42671,0.15936 1.67847,0.42774 2.78167,0.59628 1.63876,0.25046 2.26564,0.28696 3.42569,0.20001 l 1.41987,-0.10634 -0.14594,2.53088 c -0.29334,5.088 -0.3445,5.35808 -1.09549,5.77652 -0.39709,0.22128 -1.17772,0.29425 -1.68353,0.15735 z"
       id="path4150"
       inkscape:connector-curvature="0" />
  </g>
</svg>
