<?xml version="1.0" encoding="UTF-8" standalone="no"?>
<!-- Created with Inkscape (http://www.inkscape.org/) -->

<svg
   xmlns:dc="http://purl.org/dc/elements/1.1/"
   xmlns:cc="http://creativecommons.org/ns#"
   xmlns:rdf="http://www.w3.org/1999/02/22-rdf-syntax-ns#"
   xmlns:svg="http://www.w3.org/2000/svg"
   xmlns="http://www.w3.org/2000/svg"
   xmlns:xlink="http://www.w3.org/1999/xlink"
   xmlns:sodipodi="http://sodipodi.sourceforge.net/DTD/sodipodi-0.dtd"
   xmlns:inkscape="http://www.inkscape.org/namespaces/inkscape"
   width="77.772446mm"
   height="44.573235mm"
   viewBox="0 0 275.57166 157.93666"
   id="svg5465"
   version="1.1"
   inkscape:version="0.91 r13725"
   sodipodi:docname="htmlrock.svg">
  <defs
     id="defs5467">
    <linearGradient
       inkscape:collect="always"
       id="linearGradient6048">
      <stop
         style="stop-color:#357c94;stop-opacity:1"
         offset="0"
         id="stop6028" />
      <stop
         style="stop-color:#1e4451;stop-opacity:1"
         offset="1"
         id="stop6030" />
    </linearGradient>
    <radialGradient
       inkscape:collect="always"
       xlink:href="#linearGradient6048"
       id="radialGradient6054"
       cx="343.24759"
       cy="378.36276"
       fx="343.24759"
       fy="378.36276"
       r="83.408272"
       gradientTransform="matrix(0.94472322,-0.13294881,0.09437532,0.72413573,-13.648509,151.43144)"
       gradientUnits="userSpaceOnUse"
       spreadMethod="pad" />
  </defs>
  <sodipodi:namedview
     id="base"
     pagecolor="#ffffff"
     bordercolor="#666666"
     borderopacity="1.0"
     inkscape:pageopacity="0.0"
     inkscape:pageshadow="2"
     inkscape:zoom="3.2003779"
     inkscape:cx="122.63908"
     inkscape:cy="105.71212"
     inkscape:document-units="px"
     inkscape:current-layer="layer1"
     showgrid="false"
     inkscape:window-width="1920"
     inkscape:window-height="1005"
     inkscape:window-x="1911"
     inkscape:window-y="-9"
     inkscape:window-maximized="1"
     fit-margin-top="0"
     fit-margin-left="0"
     fit-margin-right="0"
     fit-margin-bottom="0" />
  <metadata
     id="metadata5470">
    <rdf:RDF>
      <cc:Work
         rdf:about="">
        <dc:format>image/svg+xml</dc:format>
        <dc:type
           rdf:resource="http://purl.org/dc/dcmitype/StillImage" />
        <dc:title />
      </cc:Work>
    </rdf:RDF>
  </metadata>
  <g
     inkscape:label="Layer 1"
     inkscape:groupmode="layer"
     id="layer1"
     transform="translate(-192.78258,-336.86074)">
    <path
       style="opacity:0.5;fill:none;fill-rule:evenodd;stroke:#000000;stroke-width:0.98732013;stroke-linecap:round;stroke-linejoin:round;stroke-miterlimit:4;stroke-dasharray:none;stroke-dashoffset:0;stroke-opacity:1"
       d="m 395.64645,428.44608 c 31.0149,11.50161 28.22833,29.95997 -5.1175,40.54992 -34.64388,11.00218 -90.22528,10.01067 -122.10339,-1.8277 -33.09838,-12.29154 -30.10681,-32.00584 5.53426,-43.30931 36.98307,-11.72906 96.28312,-10.66593 130.27348,1.97351 35.24956,13.1077 32.04578,34.1193 -5.96694,46.15952 -39.39864,12.4792 -102.5378,11.34197 -138.70812,-2.12477 -37.4685,-13.95008 -34.04523,-36.30033 6.41552,-49.10056 41.89058,-13.25259 108.98929,-12.03877 147.40734,2.2815 39.75514,14.81868 36.10516,38.54892 -6.88001,52.13242 -44.45894,14.04923 -115.63766,12.75633 -156.37112,-2.44368 -42.10954,-15.71351 -38.2256,-40.86511 7.36038,-55.25512 47.10369,-14.86912 122.48286,-13.49466 165.59948,2.61133 44.53167,16.63457 40.40652,43.24885 -7.85665,58.46865 -49.82483,15.71225 -129.52492,14.25375 -175.09244,-2.78444 -47.0215,-17.58185 -42.64791,-45.7002 8.36885,-61.773 52.62235,-16.57865 136.76381,-15.03362 184.84995,2.963 49.57907,18.55536 44.94981,48.2191 -8.89694,65.16818 -55.49627,17.46829 -144.19954,15.83424 -194.87203,-3.14703 -52.20438,-19.55509 -47.3122,-50.80558 9.44093,-68.65419 18.68118,-5.87514 41.8506,-9.98632 66.6008,-11.83911"
       id="path6077"
       inkscape:connector-curvature="0"
       sodipodi:nodetypes="csssssssssssssssssssc" />
    <path
       style="fill:url(#radialGradient6054);fill-opacity:1"
       d="m 306.53653,464.43011 c -23.36616,-0.5805 -40.77074,-6.96301 -53.25364,-19.52888 -0.21031,-0.2117 -0.10801,-0.55841 0.2929,-0.99226 0.33887,-0.36678 0.82743,-1.28737 1.08568,-2.04577 0.67354,-1.978 2.58003,-3.87658 7.03525,-7.00605 5.25553,-3.69166 6.76175,-5.2355 7.64378,-7.83462 0.84655,-2.49465 1.2242,-5.50656 1.70787,-13.6217 0.53085,-8.90626 0.9055,-10.74533 3.84724,-18.88525 1.42308,-3.93772 3.49093,-10.07951 4.59521,-13.6484 2.21336,-7.15326 3.81043,-11.0991 5.9099,-14.60145 1.82297,-3.04111 3.28443,-4.85609 8.72574,-10.83648 2.49384,-2.7409 5.71179,-6.35413 7.15101,-8.0294 6.20369,-7.22123 11.05782,-10.12891 17.51682,-10.49275 7.01544,-0.39526 9.94557,1.54772 19.92794,13.21392 6.0669,7.09027 7.21433,8.85446 14.88092,22.87983 4.68317,8.56743 7.36502,12.61249 10.94933,16.515 3.68635,4.01359 5.63808,5.59909 14.87295,12.08213 7.7066,5.41016 9.456,6.88371 13.16829,11.09176 3.62475,4.10883 5.44083,7.06569 9.95425,16.20695 2.04346,4.13877 4.5484,9.11532 5.5665,11.059 2.98672,5.70195 3.27607,7.61511 1.67076,11.04622 -1.0709,2.28888 -3.47834,4.32913 -6.29899,5.33821 -1.79468,0.64205 -3.99928,0.91281 -12.30903,1.51177 -5.56751,0.40128 -13.98109,1.15 -18.69684,1.6638 -24.11101,2.62699 -57.5896,5.12197 -65.94384,4.91442 z"
       id="path6024"
       inkscape:connector-curvature="0" />
    <path
       style="opacity:0.8;fill:#ffffff;fill-opacity:1"
       d="m 322.78843,449.27456 c -0.006,-0.1301 4.0218,-1.51706 11.31314,-3.8958 6.22723,-2.03159 11.37061,-3.74806 11.4297,-3.81436 0.10197,-0.11446 2.70091,-57.89392 2.65246,-58.96985 l -0.0231,-0.51155 -28.87807,1.30031 -28.87805,1.30032 0.0231,0.51131 c 0.0507,1.12537 7.8288,58.39084 7.94559,58.49849 0.069,0.0637 5.30389,1.30362 11.63303,2.75553 6.32913,1.45192 11.58109,2.65826 11.67103,2.68079 0.0899,0.0225 -0.0322,0.0877 -0.27151,0.14474 -0.23923,0.0571 -0.40845,0.0562 -0.37602,-0.002 0.0325,-0.0581 -5.08893,-1.28689 -11.38082,-2.7305 -6.29185,-1.44362 -11.47038,-2.6994 -11.50784,-2.79061 -0.0995,-0.24228 -7.84288,-57.84076 -7.87658,-58.58912 l -0.0285,-0.63278 29.03937,-1.30759 29.03939,-1.30758 0.0282,0.60494 c 0.0511,1.09017 -2.53938,59.07605 -2.64441,59.18721 -0.0564,0.0596 -5.08525,1.72918 -11.1754,3.71021 -6.09014,1.981 -11.21989,3.70488 -11.39945,3.83083 -0.25536,0.1791 -0.32845,0.18499 -0.33557,0.0269 z m -13.98837,-2.50574 -10.94479,-2.52675 -0.15031,-0.63987 c -0.26558,-1.13058 -7.977,-58.8976 -7.89516,-59.14342 0.11946,-0.35877 58.77216,-2.99905 58.92338,-2.65243 0.0839,0.19234 -2.34251,57.44806 -2.52047,59.47389 -0.0475,0.54014 -0.14381,0.71085 -0.48767,0.86388 -0.75775,0.33723 -21.24756,6.97885 -21.39643,6.93549 -0.079,-0.0231 4.66617,-1.60416 10.54472,-3.51372 5.87857,-1.90956 10.79605,-3.55584 10.92778,-3.65838 0.19665,-0.1531 0.47428,-5.512 1.5522,-29.95986 0.72225,-16.37534 1.27068,-29.86988 1.21917,-29.98783 -0.13965,-0.32008 -58.47871,2.30647 -58.58904,2.63788 -0.11867,0.3564 7.86274,59.23399 8.05333,59.40816 0.0951,0.0869 5.02669,1.27241 10.95896,2.63433 5.93226,1.36193 10.88652,2.51109 11.00945,2.55369 1.04651,0.36267 -1.77984,-0.249 -11.20515,-2.42497 z m 13.3312,-2.51519 c -0.0618,-0.0564 -0.18218,-1.65304 -0.2675,-3.54788 -0.15395,-3.41895 -0.15718,-3.44626 -0.52516,-3.58497 -0.20351,-0.0769 -3.60393,-0.87497 -7.55649,-1.77352 -3.95254,-0.89853 -7.2828,-1.71748 -7.40058,-1.81988 -0.24043,-0.20905 -1.78392,-11.12293 -1.63593,-11.56742 0.0754,-0.22692 0.56865,-0.28159 3.88792,-0.43106 2.89647,-0.13042 3.82008,-0.12386 3.87995,0.0274 0.0433,0.1092 0.24273,1.38661 0.44335,2.83867 0.20064,1.45208 0.42258,2.68536 0.49325,2.74064 0.11776,0.0921 7.53136,1.75852 7.77475,1.74756 0.0586,-0.002 -0.004,-2.46535 -0.13984,-5.47273 -0.21781,-4.83724 -0.2762,-5.47793 -0.50581,-5.5544 -0.14278,-0.0476 -3.84884,0.0751 -8.23569,0.27264 l -7.97609,0.35914 -0.16428,-0.35632 c -0.16755,-0.3635 -2.86352,-20.20247 -2.91488,-21.44996 l -0.0289,-0.68575 9.07471,-0.41061 c 4.99111,-0.22574 9.16137,-0.47178 9.26732,-0.546 0.14001,-0.098 0.16299,-1.0586 0.0841,-3.51733 l -0.10847,-3.38248 11.82022,-0.57368 c 9.61382,-0.46662 11.83711,-0.535 11.91066,-0.3664 0.13046,0.29901 -2.11988,50.82818 -2.27044,50.9803 -0.0959,0.0968 -18.51626,6.16471 -18.7457,6.17505 -0.0268,8.3e-4 -0.0992,-0.044 -0.16103,-0.10051 z m 7.1034,-9.67549 c 3.95855,-1.29319 7.25361,-2.41284 7.32239,-2.4881 0.14686,-0.1607 1.11875,-21.38231 1.01714,-22.21033 l -0.069,-0.56268 -13.31335,0.51868 -13.31335,0.5187 -0.44965,-3.33611 c -0.24732,-1.83486 -0.41254,-3.44756 -0.3672,-3.58376 0.073,-0.21935 1.65625,-0.30595 13.84452,-0.75731 11.75241,-0.43529 13.78808,-0.54417 13.94015,-0.74598 0.26846,-0.35629 0.52442,-7.08507 0.28106,-7.38827 -0.17106,-0.21311 -2.15335,-0.13744 -18.44431,0.70401 l -18.25266,0.94277 0.0207,0.5045 c 0.0238,0.61679 2.70239,20.77876 2.82182,21.24599 0.0852,0.33332 0.0861,0.3333 12.62603,-0.12158 6.89747,-0.25031 12.57859,-0.42043 12.62472,-0.37827 0.0823,0.0754 -0.20528,8.08558 -0.3144,8.75577 -0.0486,0.29847 -0.56579,0.50531 -4.03736,1.61474 l -3.9816,1.27244 -3.93962,-0.87967 c -2.16679,-0.48384 -3.97214,-0.90942 -4.01189,-0.94574 -0.0398,-0.0364 -0.23608,-1.25145 -0.43624,-2.70026 -0.20016,-1.44882 -0.39931,-2.72356 -0.44252,-2.83275 -0.12263,-0.30981 -7.32906,0.0403 -7.43593,0.36125 -0.13797,0.41434 1.39931,11.23983 1.61303,11.35899 0.10824,0.0604 1.41346,0.39023 2.90059,0.73314 1.48714,0.34292 4.7624,1.10382 7.27836,1.69088 2.51594,0.58707 4.74262,1.06578 4.94818,1.0638 0.20554,-0.002 3.61253,-1.06167 7.57106,-2.35486 z m -15.27056,0.37839 c -3.93229,-0.91162 -7.20321,-1.70646 -7.26874,-1.76636 -0.12118,-0.11072 -1.40648,-9.24413 -1.47723,-10.49712 l -0.0388,-0.68529 3.3784,-0.15212 c 2.20729,-0.0994 3.41773,-0.0945 3.49188,0.0143 0.0625,0.0915 0.27471,1.3368 0.47175,2.76733 0.19716,1.4315 0.44638,2.68271 0.55424,2.78276 0.10779,0.1 1.98299,0.57932 4.16712,1.06517 l 3.97113,0.88341 3.93362,-1.24851 c 2.16349,-0.68664 4.02775,-1.34449 4.14282,-1.46187 0.22419,-0.22866 0.6958,-8.97528 0.50724,-9.40747 -0.0846,-0.19396 -1.90887,-0.1453 -12.61213,0.33668 -9.86392,0.44415 -12.53062,0.52148 -12.59555,0.36508 -0.13291,-0.32013 -2.9497,-21.39604 -2.87782,-21.53247 0.0877,-0.16665 36.14203,-1.78371 36.24971,-1.62625 0.10524,0.15425 -0.19799,6.6231 -0.32068,6.84328 -0.0566,0.10136 -5.19678,0.39043 -13.95936,0.78498 -11.63177,0.52375 -13.88207,0.66102 -13.94519,0.85061 -0.0876,0.26322 0.84088,7.10973 0.99484,7.33545 0.0655,0.096 4.96614,-0.067 13.31363,-0.44289 7.26549,-0.32715 13.24137,-0.54168 13.2797,-0.47671 0.13444,0.22779 -0.91307,22.05254 -1.06602,22.20894 -0.25222,0.25803 -14.04816,4.70197 -14.62,4.70938 -0.28876,0.004 -3.74236,-0.73904 -7.67465,-1.65067 z m 15.16839,-0.80711 c 6.108,-1.98946 7.06345,-2.34241 7.10929,-2.62626 0.0291,-0.18036 0.24707,-4.99239 0.48428,-10.6934 0.2372,-5.701 0.44963,-10.52993 0.4714,-10.73097 l 0.0396,-0.36551 -8.3668,0.37674 -8.36677,0.37674 0.15255,3.38793 0.15255,3.38793 4.52231,-0.20363 c 4.00272,-0.18023 4.53505,-0.17437 4.63333,0.0509 0.15652,0.35875 -0.28114,9.46837 -0.46458,9.66906 -0.0829,0.0907 -1.93063,0.73132 -4.10592,1.42343 l -3.9551,1.25839 0.11406,3.50022 c 0.0893,2.74305 0.1583,3.49877 0.31897,3.49352 0.11273,-0.004 3.38028,-1.04094 7.26126,-2.30504 z m 8.46007,-33.28291 c 0.0327,-0.4238 0.0933,-1.6814 0.13484,-2.79465 0.0415,-1.11326 0.0991,-2.29795 0.12778,-2.63268 l 0.0523,-0.60857 -9.03638,0.40689 -9.03637,0.40688 0.15255,3.38793 0.15255,3.38793 8.69668,-0.39159 8.69667,-0.3916 0.0594,-0.77054 z m -17.27035,5.60424 c -0.1317,-2.92478 -0.18612,-3.38209 -0.41136,-3.4571 -0.1428,-0.0476 -2.40583,0.0101 -5.02898,0.12825 l -4.76937,0.21475 0.1502,1.08047 c 0.0826,0.59424 0.28673,2.1491 0.45364,3.45519 l 0.30345,2.37473 4.7271,-0.21285 4.72711,-0.21284 -0.15177,-3.37067 z m -25.37783,-27.25861 c -0.19352,-0.44358 -0.60219,-10.87152 -0.4264,-10.87944 0.10389,-0.004 0.25405,1.90081 0.42197,5.35611 0.14333,2.94986 0.25955,5.39978 0.25825,5.4443 -0.006,0.18029 3.5941,-0.18866 3.70382,-0.37962 0.0621,-0.10796 0.0804,-0.94057 0.0409,-1.85012 l -0.0725,-1.65372 1.6133,-0.0726 1.6133,-0.0726 0.0765,1.65354 c 0.042,0.90945 0.13547,1.73697 0.20694,1.83896 0.12643,0.18039 3.74448,0.22426 3.72294,0.0452 -0.006,-0.0443 -0.11032,-2.49465 -0.23208,-5.44549 -0.14332,-3.4564 -0.16512,-5.36766 -0.0611,-5.37234 0.17583,-0.008 0.70603,10.41455 0.55308,10.87372 -0.0723,0.21734 -0.41096,0.27422 -2.08011,0.34938 -2.3948,0.10783 -2.32488,0.16734 -2.4253,-2.06255 l -0.0695,-1.54324 -1.29064,0.0581 -1.29065,0.0581 0.0695,1.54324 c 0.10041,2.22984 0.16473,2.16432 -2.2301,2.27216 -1.66915,0.0752 -2.0115,0.049 -2.1031,-0.16097 z m 15.83141,-0.56032 c -0.0645,-0.059 -0.19015,-1.72845 -0.27939,-3.71013 l -0.16223,-3.60303 -1.52696,0.0687 c -1.34454,0.0605 -1.54858,0.0324 -1.70801,-0.23576 -0.23514,-0.39551 -0.37492,-3.38856 -0.15903,-3.39828 0.0957,-0.004 0.18965,0.59933 0.231,1.48493 0.0379,0.82073 0.1295,1.5775 0.20247,1.68176 0.0845,0.12067 0.68866,0.1816 1.66207,0.16758 l 1.52925,-0.0219 0.20862,3.66829 0.20862,3.66831 1.84923,-0.0833 1.84924,-0.0833 -0.12191,-3.67221 -0.1219,-3.6722 1.52503,-0.11561 c 0.97071,-0.0735 1.56692,-0.18856 1.64026,-0.31634 0.0634,-0.11037 0.0861,-0.87231 0.0505,-1.69315 -0.0389,-0.88571 8.7e-4,-1.49536 0.0967,-1.49968 0.21621,-0.01 0.34599,2.98377 0.14703,3.39882 -0.13465,0.28132 -0.33533,0.32778 -1.67687,0.38818 l -1.52395,0.0686 0.12191,3.67222 0.1219,3.6722 -2.02346,0.13606 c -1.11291,0.0748 -2.07621,0.0875 -2.14065,0.029 z m 8.59878,-0.59179 c -0.24617,-0.41405 -0.72245,-10.81403 -0.4954,-10.82426 0.10413,-0.004 0.24346,1.81676 0.3932,5.14211 0.12752,2.83215 0.28108,5.26222 0.34125,5.40015 0.0906,0.20744 0.41313,0.23711 1.86679,0.17169 l 1.75737,-0.0791 -0.10854,-2.41044 c -0.10442,-2.31908 -0.0323,-2.82228 0.34498,-2.40719 0.25991,0.28598 0.31841,0.50873 0.13572,0.51696 -0.0961,0.005 -0.15283,0.92292 -0.14029,2.26951 l 0.0211,2.26224 -1.96595,0.13387 c -1.81449,0.12355 -1.98013,0.10998 -2.14986,-0.17551 z m 8.80578,-0.33975 c -0.0612,-0.14046 -0.15134,-1.1424 -0.20015,-2.22654 -0.0497,-1.1039 -0.1631,-2.03921 -0.25799,-2.12581 -0.11323,-0.10342 -0.098,-0.26187 0.046,-0.4787 0.11839,-0.17825 0.25624,-0.28664 0.30631,-0.24088 0.0501,0.0458 0.15095,1.20501 0.22422,2.57617 l 0.13317,2.49296 1.83888,-0.13306 1.83888,-0.13304 -0.24292,-5.39479 c -0.1592,-3.53558 -0.18658,-5.39733 -0.0795,-5.40215 0.10802,-0.005 0.23341,1.86702 0.3698,5.52009 l 0.20634,5.52747 -2.03586,0.13682 c -1.75001,0.11753 -2.05155,0.10038 -2.14731,-0.11856 z m 5.54974,-0.31155 c -0.24356,-0.40966 -0.71731,-10.80936 -0.49319,-10.81945 0.10414,-0.004 0.24345,1.81674 0.39319,5.14211 0.12752,2.83214 0.28108,5.26221 0.34135,5.40014 0.0961,0.22019 0.6462,0.2266 4.51146,0.0525 3.86527,-0.17404 4.4126,-0.22981 4.4885,-0.45781 0.12527,-0.37628 -0.0202,-3.0217 -0.17868,-3.24789 -0.094,-0.13427 -0.88138,-0.17141 -2.63002,-0.12456 l -2.49581,0.0675 -0.20146,-3.50698 c -0.13225,-2.30361 -0.14501,-3.5095 -0.037,-3.51437 0.10646,-0.004 0.21822,1.18626 0.31702,3.38053 l 0.15255,3.38793 2.49495,-0.11234 c 2.97055,-0.13376 2.82403,-0.23643 2.927,2.05057 0.0385,0.85462 0.001,1.69765 -0.0826,1.87344 -0.14572,0.30446 -0.37003,0.32935 -4.73951,0.5261 -4.36947,0.19674 -4.59511,0.19219 -4.7676,-0.098 z m -38.30723,1.44483 c -0.0618,-0.0564 -0.22134,-2.52266 -0.35452,-5.48036 l -0.24214,-5.37768 1.7343,-0.0783 1.73427,-0.0782 0.0169,1.59926 c 0.0242,2.27079 0.0313,2.27864 2.01268,2.18943 1.98138,-0.0892 1.98787,-0.0975 1.80776,-2.36146 l -0.12684,-1.59432 1.73645,-0.078 1.73645,-0.078 0.20272,5.44681 0.2027,5.44679 -1.65156,0.12042 -1.65155,0.1204 -0.0751,-1.66733 c -0.0487,-1.08173 -0.14617,-1.73229 -0.2774,-1.85223 -0.27557,-0.25182 -3.2329,-0.11869 -3.48472,0.15691 -0.11986,0.13116 -0.15857,0.78669 -0.11002,1.86402 l 0.0748,1.66169 -1.5864,0.0714 c -0.87252,0.0393 -1.63699,0.0253 -1.69881,-0.0312 z m 15.55204,-4.0549 c -0.0856,-1.90047 -0.20481,-3.56826 -0.26508,-3.70617 -0.0891,-0.20405 -0.39179,-0.23809 -1.62478,-0.18257 l -1.51538,0.0682 -0.0684,-1.51944 c -0.0376,-0.83569 -0.11764,-1.63229 -0.1779,-1.77021 -0.0983,-0.22542 0.40779,-0.27408 5.00702,-0.48117 4.59921,-0.2071 5.10766,-0.20406 5.02997,0.0292 -0.0476,0.14277 -0.0557,0.94335 -0.0181,1.77903 l 0.0684,1.51944 -1.51538,0.0682 c -1.233,0.0555 -1.53147,0.11661 -1.6018,0.32784 -0.0476,0.14277 -0.0165,1.81453 0.0691,3.715 l 0.15558,3.45539 -1.69396,0.0763 -1.69396,0.0763 -0.15559,-3.45539 z m 8.6319,-2.16692 c -0.12952,-2.87651 -0.28472,-5.34288 -0.34498,-5.48079 -0.0961,-0.22037 0.13307,-0.26172 1.88989,-0.34082 1.79624,-0.0809 2.00069,-0.0614 2.01289,0.19228 0.0153,0.31598 2.12897,3.501 2.31786,3.4925 0.0664,-0.003 0.22747,-0.13755 0.35801,-0.29903 0.37279,-0.46109 1.91807,-3.36008 1.78709,-3.35261 -0.0646,0.003 -0.38502,0.52387 -0.712,1.15596 -0.32698,0.63209 -0.65693,1.0922 -0.73323,1.02247 -0.16509,-0.15087 0.68755,-1.78401 1.15037,-2.20337 0.26809,-0.24295 0.67018,-0.31011 2.31775,-0.38727 1.75229,-0.0829 1.98294,-0.062 1.90695,0.16623 -0.0476,0.14277 0.0197,2.61565 0.14934,5.49527 l 0.23576,5.23568 -1.6557,0.0285 -1.6557,0.0285 -0.15887,-2.53894 c -0.11954,-1.91018 -0.20922,-2.53669 -0.362,-2.52981 -0.11174,0.005 -0.66345,0.79371 -1.22602,1.75262 -0.56255,0.95889 -1.07021,1.74506 -1.12813,1.74702 -0.0578,0.001 -0.63654,-0.73962 -1.28582,-1.64799 -0.64927,-0.90836 -1.26329,-1.61984 -1.36444,-1.58109 -0.12635,0.0485 -0.16223,0.86277 -0.11426,2.60018 l 0.0695,2.52967 -1.60921,0.0725 -1.60919,0.0725 -0.2355,-5.23002 z m 14.35836,-0.64652 c -0.12952,-2.87652 -0.28471,-5.34288 -0.34498,-5.4808 -0.0959,-0.2196 0.11836,-0.26106 1.7228,-0.33339 l 1.83222,-0.0826 0.16891,3.75102 0.16889,3.75105 2.54294,-0.07 2.54295,-0.0699 0.0761,1.68986 0.0761,1.68988 -4.27523,0.1925 -4.27526,0.19251 -0.23549,-5.23003 z m -9.37036,3.22631 c -0.93982,-1.3395 -0.97214,-1.39974 -0.75594,-1.40948 0.0757,-0.004 0.49847,0.48677 0.93946,1.0893 0.44098,0.60252 0.89191,1.09049 1.00207,1.08439 0.11017,-0.006 0.52944,-0.57059 0.93176,-1.25438 0.40232,-0.6838 0.79528,-1.24615 0.87326,-1.24966 0.22647,-0.0102 0.19202,0.0691 -0.67773,1.56061 -0.54922,0.94182 -0.92675,1.42145 -1.12588,1.43042 -0.19875,0.009 -0.59842,-0.41235 -1.187,-1.2512 z m -25.78293,-3.79272 c -0.1766,-0.27219 -0.27602,-3.26702 -0.1087,-3.27455 0.10824,-0.005 0.19608,0.55418 0.23979,1.52494 l 0.069,1.53264 1.29063,-0.0581 1.29065,-0.0581 -0.069,-1.53264 c -0.0442,-0.98215 -0.007,-1.53543 0.10383,-1.54042 0.11501,-0.005 0.18039,0.54621 0.19545,1.6482 l 0.0227,1.65595 -1.47707,0.11277 c -0.81237,0.062 -1.5131,0.0576 -1.5572,-0.0107 z m 25.47921,-2.81014 c -0.57599,-0.86318 -0.95594,-1.57354 -0.8443,-1.57857 0.11162,-0.005 0.59104,0.59041 1.06538,1.32318 0.47435,0.73277 0.91442,1.3313 0.97791,1.33005 0.0635,-0.002 0.18763,-0.15303 0.27583,-0.33732 0.0882,-0.18428 0.23243,-0.29488 0.3205,-0.24578 0.20361,0.11351 -0.28355,1.05693 -0.55201,1.06902 -0.10791,0.005 -0.66734,-0.69741 -1.24331,-1.56058 z"
       id="path4150"
       inkscape:connector-curvature="0" />
  </g>
</svg>
