<?xml version="1.0" encoding="UTF-8" standalone="no"?>
<!-- Created with Inkscape (http://www.inkscape.org/) -->

<svg
   xmlns:dc="http://purl.org/dc/elements/1.1/"
   xmlns:cc="http://creativecommons.org/ns#"
   xmlns:rdf="http://www.w3.org/1999/02/22-rdf-syntax-ns#"
   xmlns:svg="http://www.w3.org/2000/svg"
   xmlns="http://www.w3.org/2000/svg"
   xmlns:xlink="http://www.w3.org/1999/xlink"
   xmlns:sodipodi="http://sodipodi.sourceforge.net/DTD/sodipodi-0.dtd"
   xmlns:inkscape="http://www.inkscape.org/namespaces/inkscape"
   width="77.772446mm"
   height="44.573235mm"
   viewBox="0 0 275.57166 157.93666"
   id="svg5465"
   version="1.1"
   inkscape:version="0.91 r13725"
   sodipodi:docname="licenserockh.svg">
  <defs
     id="defs5467">
    <linearGradient
       inkscape:collect="always"
       id="linearGradient6048">
      <stop
         style="stop-color:#357c94;stop-opacity:1"
         offset="0"
         id="stop6028" />
      <stop
         style="stop-color:#1e4451;stop-opacity:1"
         offset="1"
         id="stop6030" />
    </linearGradient>
    <radialGradient
       inkscape:collect="always"
       xlink:href="#linearGradient6048"
       id="radialGradient6054"
       cx="302.84421"
       cy="396.64172"
       fx="302.84421"
       fy="396.64172"
       r="83.408272"
       gradientTransform="matrix(-0.30457073,0.76322532,-0.68157786,-0.36471201,715.22493,323.74524)"
       gradientUnits="userSpaceOnUse"
       spreadMethod="pad" />
  </defs>
  <sodipodi:namedview
     id="base"
     pagecolor="#ffffff"
     bordercolor="#666666"
     borderopacity="1.0"
     inkscape:pageopacity="0.0"
     inkscape:pageshadow="2"
     inkscape:zoom="2.5507648"
     inkscape:cx="223.69834"
     inkscape:cy="61.846011"
     inkscape:document-units="px"
     inkscape:current-layer="layer1"
     showgrid="false"
     inkscape:window-width="1920"
     inkscape:window-height="1005"
     inkscape:window-x="1911"
     inkscape:window-y="-9"
     inkscape:window-maximized="1"
     fit-margin-top="0"
     fit-margin-left="0"
     fit-margin-right="0"
     fit-margin-bottom="0" />
  <metadata
     id="metadata5470">
    <rdf:RDF>
      <cc:Work
         rdf:about="">
        <dc:format>image/svg+xml</dc:format>
        <dc:type
           rdf:resource="http://purl.org/dc/dcmitype/StillImage" />
        <dc:title></dc:title>
      </cc:Work>
    </rdf:RDF>
  </metadata>
  <g
     inkscape:label="Layer 1"
     inkscape:groupmode="layer"
     id="layer1"
     transform="translate(-192.78258,-336.86074)">
    <path
       style="opacity:0.5;fill:none;fill-rule:evenodd;stroke:#000000;stroke-width:0.98732013;stroke-linecap:round;stroke-linejoin:round;stroke-miterlimit:4;stroke-dasharray:none;stroke-dashoffset:0;stroke-opacity:1"
       d="m 395.64645,428.44608 c 31.0149,11.50161 28.22833,29.95997 -5.1175,40.54992 -34.64388,11.00218 -90.22528,10.01067 -122.10339,-1.8277 -33.09838,-12.29154 -30.10681,-32.00584 5.53426,-43.30931 36.98307,-11.72906 96.28312,-10.66593 130.27348,1.97351 35.24956,13.1077 32.04578,34.1193 -5.96694,46.15952 -39.39864,12.4792 -102.5378,11.34197 -138.70812,-2.12477 -37.4685,-13.95008 -34.04523,-36.30033 6.41552,-49.10056 41.89058,-13.25259 108.98929,-12.03877 147.40734,2.2815 39.75514,14.81868 36.10516,38.54892 -6.88001,52.13242 -44.45894,14.04923 -115.63766,12.75633 -156.37112,-2.44368 -42.10954,-15.71351 -38.2256,-40.86511 7.36038,-55.25512 47.10369,-14.86912 122.48286,-13.49466 165.59948,2.61133 44.53167,16.63457 40.40652,43.24885 -7.85665,58.46865 -49.82483,15.71225 -129.52492,14.25375 -175.09244,-2.78444 -47.0215,-17.58185 -42.64791,-45.7002 8.36885,-61.773 52.62235,-16.57865 136.76381,-15.03362 184.84995,2.963 49.57907,18.55536 44.94981,48.2191 -8.89694,65.16818 -55.49627,17.46829 -144.19954,15.83424 -194.87203,-3.14703 -52.20438,-19.55509 -47.3122,-50.80558 9.44093,-68.65419 18.68118,-5.87514 41.8506,-9.98632 66.6008,-11.83911"
       id="path6077"
       inkscape:connector-curvature="0"
       sodipodi:nodetypes="csssssssssssssssssssc" />
    <path
       style="fill:url(#radialGradient6054);fill-opacity:1"
       d="m 295.82886,368.30799 c 2.8579,-5.79529 36.30725,-34.34879 41.77581,-26.05824 0.17251,0.46459 0.7672,1.36865 1.32151,2.00907 7.30551,5.41422 5.63986,9.59268 12.13405,16.81252 1.82472,2.1044 3.61095,5.76387 10.56072,10.96657 7.6273,5.7099 4.20257,8.18113 10.07631,15.1776 2.84147,3.38459 7.34115,8.55378 9.99929,11.48708 5.32786,5.87934 8.09878,9.39471 10.25365,13.00847 1.87114,3.13785 2.82102,5.28087 5.67141,12.79503 1.30636,3.44385 3.05958,7.9334 3.89605,9.97677 3.60555,8.80791 4.00495,14.0597 1.44127,18.95186 -2.78471,5.31358 -5.80892,6.27244 -20.56906,6.52088 -8.97066,0.15101 -11.04099,-0.0735 -26.84994,-2.91176 -9.65696,-1.73374 -14.42669,-2.21166 -19.47363,-1.95118 -5.1906,0.26794 -7.46238,0.73235 -17.31185,3.53923 -8.21948,2.34236 -10.302,2.7273 -15.6759,2.89771 -5.24718,0.16637 -8.66932,-0.2874 -18.75717,-2.48713 -4.56733,-0.99597 -10.08056,-2.15891 -12.25162,-2.58435 -6.36892,-1.24803 -8.18754,-2.18265 -10.50025,-5.39617 -1.5428,-2.14373 -2.26906,-5.1061 -1.90024,-7.75089 0.23466,-1.68281 0.98029,-3.44023 4.163,-9.81241 2.13242,-4.26935 5.22928,-10.80624 6.88191,-14.52641 8.44965,-19.02076 21.19999,-44.74218 25.11473,-50.66428 z"
       id="path6024"
       inkscape:connector-curvature="0"
       sodipodi:nodetypes="ccccsssssssssssssssssscc" />
    <path
       style="fill:#ffffff;fill-opacity:1;opacity:0.3"
       d="m 330.22102,438.59297 c -2.7529,-0.004 -4.44009,-0.14918 -6.65167,-0.57354 -4.23764,-0.81314 -8.32645,-2.53507 -11.94176,-5.02905 -6.83473,-4.71491 -11.46425,-11.48991 -13.21389,-19.33771 -0.36625,-1.64277 -0.45949,-2.3278 -0.6291,-4.62278 -0.17887,-2.41882 -0.17963,-3.25231 -0.005,-5.13009 0.12714,-1.37027 0.26949,-2.31917 0.54765,-3.65061 1.18706,-5.68181 3.91998,-10.96685 7.95831,-15.3901 4.08741,-4.47704 9.26807,-7.58883 15.06312,-9.04778 7.0519,-1.77535 14.53604,-1.23266 20.85636,1.51236 6.15098,2.67148 11.39745,7.27883 14.75354,12.95623 1.97107,3.33443 3.2431,6.85861 3.95893,10.96834 0.19345,1.11051 0.49025,5.07183 0.46288,6.1813 -0.13243,5.42202 -1.36903,10.1943 -3.76862,14.54374 -2.99775,5.43368 -7.80695,10.07637 -13.50618,13.03861 -2.90211,1.5084 -5.75008,2.47177 -9.21765,3.11804 -0.79222,0.14759 -3.98034,0.464 -4.66677,0.46306 z m 3.82441,-6.2422 c 4.77294,-0.88346 9.07697,-2.96234 12.72934,-6.14839 1.94765,-1.69896 3.75306,-3.78222 5.06867,-5.84872 0.96742,-1.5196 1.99636,-3.72919 2.55749,-5.49214 2.06466,-6.48666 1.44791,-14.14207 -1.62351,-20.15156 -1.54628,-3.02544 -3.57379,-5.59823 -6.16379,-7.82149 -4.13902,-3.55292 -8.90588,-5.64297 -14.12769,-6.19432 -1.85656,-0.19602 -2.48062,-0.19875 -4.86072,-0.0212 -2.33357,0.1741 -2.80595,0.24302 -4.5258,0.66039 -4.94676,1.20041 -9.30742,3.82842 -12.74254,7.67948 -7.09195,7.95066 -8.90223,18.73125 -4.71435,28.07491 2.58045,5.75731 7.44692,10.64693 13.25088,13.31398 3.17503,1.45898 6.75902,2.28253 10.10376,2.32169 0.4321,0.005 0.88531,0.013 1.00714,0.0177 0.41073,0.0159 3.41336,-0.27421 4.04112,-0.39044 z M 320.0085,417.21562 c -3.17769,-0.2184 -5.62475,-1.6487 -7.12513,-4.1646 -0.42051,-0.70512 -0.86742,-1.80089 -1.09099,-2.67499 -0.23965,-0.93697 -0.43964,-2.78693 -0.40265,-3.72456 0.0928,-2.35357 0.78727,-4.33084 2.0723,-5.90064 1.16423,-1.42221 2.61578,-2.36107 4.52827,-2.92884 0.56808,-0.16865 0.8228,-0.20541 2.06026,-0.29729 1.09262,-0.0811 1.55594,-0.0896 2.04814,-0.0374 1.9416,0.20603 3.52667,0.83278 4.83196,1.91059 0.59134,0.4883 1.30396,1.25701 1.62163,1.74928 l 0.18535,0.28723 -0.89023,0.55368 c -1.7638,1.09702 -2.1643,1.34742 -2.65787,1.66171 -0.27578,0.17561 -0.50995,0.3102 -0.52039,0.29909 -0.0109,-0.011 -0.12846,-0.19661 -0.26229,-0.4122 -0.36411,-0.58658 -1.25562,-1.33838 -1.87965,-1.58512 -0.71379,-0.28223 -1.2099,-0.35254 -1.8533,-0.26268 -1.12467,0.1571 -1.90794,0.56408 -2.5073,1.30281 -0.57439,0.70794 -0.85583,1.42364 -1.02352,2.60271 -0.11828,0.83158 0.0727,3.20248 0.32177,3.99457 0.34817,1.10713 0.832,1.90577 1.49602,2.46944 0.72929,0.61908 1.55186,0.90032 2.58974,0.88545 1.84398,-0.0264 3.16573,-0.95821 3.83793,-2.70565 l 0.13304,-0.34583 2.00175,0.83665 c 1.10097,0.46016 2.0228,0.85218 2.04851,0.87115 0.0684,0.0504 -0.54032,1.09962 -1.02113,1.76009 -1.21285,1.66602 -2.98129,2.89413 -5.04826,3.5058 -0.75238,0.22265 -2.62072,0.40955 -3.49402,0.34952 z m 18.55538,-1.35888 c -3.23963,-0.16216 -5.76583,-1.59785 -7.30465,-4.15141 -1.42832,-2.37015 -1.90906,-5.95004 -1.18476,-8.8224 0.59957,-2.37777 2.07536,-4.35874 4.12333,-5.53475 1.19954,-0.68883 2.26195,-1.01682 3.83093,-1.1827 3.67957,-0.38904 6.6007,0.69532 8.53647,3.16882 0.27132,0.34671 0.48632,0.65807 0.47778,0.69191 -0.0192,0.076 -0.30701,0.26149 -3.12678,2.01505 l -0.88449,0.55004 -0.23185,-0.36624 c -0.55905,-0.8832 -1.53213,-1.60817 -2.46765,-1.83851 -0.39134,-0.0963 -0.60624,-0.10891 -1.14089,-0.0667 -2.04014,0.16158 -3.27619,1.38648 -3.64596,3.61448 -0.14015,0.84444 -0.12465,2.17002 0.0367,3.14084 0.181,1.08891 0.39694,1.72944 0.8443,2.50435 0.86813,1.50378 2.29469,2.19038 4.04468,1.94671 0.99586,-0.13865 1.62805,-0.42532 2.23648,-1.01411 0.3749,-0.36279 0.82742,-1.08729 1.03569,-1.65818 l 0.11983,-0.32841 1.53665,0.63622 c 0.84517,0.34991 1.76553,0.73628 2.04525,0.85857 l 0.50858,0.22237 -0.14764,0.30548 c -0.29629,0.61305 -0.92545,1.52029 -1.493,2.15287 -1.18376,1.31943 -2.70925,2.27937 -4.44067,2.79439 -0.63151,0.18785 -2.56195,0.39866 -3.30836,0.3613 z"
       id="path4152"
       inkscape:connector-curvature="0" />
  </g>
</svg>
