<?xml version="1.0" encoding="UTF-8" standalone="no"?>
<!-- Created with Inkscape (http://www.inkscape.org/) -->

<svg
   xmlns:dc="http://purl.org/dc/elements/1.1/"
   xmlns:cc="http://creativecommons.org/ns#"
   xmlns:rdf="http://www.w3.org/1999/02/22-rdf-syntax-ns#"
   xmlns:svg="http://www.w3.org/2000/svg"
   xmlns="http://www.w3.org/2000/svg"
   xmlns:sodipodi="http://sodipodi.sourceforge.net/DTD/sodipodi-0.dtd"
   xmlns:inkscape="http://www.inkscape.org/namespaces/inkscape"
   width="618.86615mm"
   height="5.9315953mm"
   viewBox="0 0 2192.8328 21.017464"
   id="svg4155"
   version="1.1"
   inkscape:version="0.91 r13725"
   sodipodi:docname="sand.svg">
  <defs
     id="defs4157" />
  <sodipodi:namedview
     id="base"
     pagecolor="#ffffff"
     bordercolor="#666666"
     borderopacity="1.0"
     inkscape:pageopacity="0.0"
     inkscape:pageshadow="2"
     inkscape:zoom="1.6459681"
     inkscape:cx="1053.2316"
     inkscape:cy="9.5402199"
     inkscape:document-units="px"
     inkscape:current-layer="layer1"
     showgrid="false"
     fit-margin-top="0"
     fit-margin-left="0"
     fit-margin-right="0"
     fit-margin-bottom="0"
     inkscape:window-width="1920"
     inkscape:window-height="1005"
     inkscape:window-x="1911"
     inkscape:window-y="-9"
     inkscape:window-maximized="1" />
  <metadata
     id="metadata4160">
    <rdf:RDF>
      <cc:Work
         rdf:about="">
        <dc:format>image/svg+xml</dc:format>
        <dc:type
           rdf:resource="http://purl.org/dc/dcmitype/StillImage" />
        <dc:title></dc:title>
      </cc:Work>
    </rdf:RDF>
  </metadata>
  <g
     inkscape:label="Layer 1"
     inkscape:groupmode="layer"
     id="layer1"
     transform="translate(279.3961,-251.8549)">
    <path
       style="opacity:0.08200001;fill:#000000"
       d="m -182.89567,271.46286 c -8.26432,-1.17469 -25.60052,-7.60879 -25.60052,-9.50126 0,-0.30921 -4.77044,-2.37452 -10.60101,-4.58959 -8.8313,-3.35506 -12.42433,-3.99047 -21.52319,-3.80618 -8.49216,0.17201 -13.17557,1.21985 -21.05068,4.70977 -9.42355,4.1761 -17.72503,5.82478 -17.72503,3.52023 0,-1.72911 15.1483,-7.16857 23.70756,-8.51292 21.10581,-3.31497 37.22117,-0.9529 55.10483,8.07688 26.12552,13.19124 43.63773,13.49985 65.00535,1.14558 8.96649,-5.18422 20.79246,-9.06911 30.34049,-9.96701 19.224828,-1.80792 38.320598,1.17698 49.048478,7.66686 11.68793,7.0707 24.88391,11.21798 35.69384,11.21798 11.9729099,0 20.84063987,-2.70328 32.243,-9.82915 20.16509,-12.60208 55.61198,-12.92501 78.65911,-0.71661 26.065572,13.8073 41.867822,14.16293 65.629652,1.47701 25.47093,-13.59836 56.35287,-13.91582 81.12031,-0.83392 17.613,9.30298 29.3881,11.59649 45.4308,8.84886 3.384,-0.57959 11.7261,-4.06182 18.5378,-7.7383 13.2856,-7.1707 24.8525,-10.15784 40.6405,-10.49536 15.7761,-0.33728 25.5783,1.9207 40.0427,9.22406 26.1256,13.19124 43.6378,13.49985 65.0054,1.14558 8.9665,-5.18422 20.7924,-9.06911 30.3405,-9.96701 19.2248,-1.80792 38.3206,1.17698 49.0485,7.66686 11.6879,7.0707 24.8838,11.21798 35.6938,11.21798 11.9729,0 20.8406,-2.70328 32.243,-9.82915 20.165,-12.60208 55.6119,-12.92501 78.6591,-0.71661 14.5856,7.72617 23.1223,10.54576 31.929,10.54576 12.1498,0 19.0463,-1.83557 33.783,-8.99158 16.0529,-7.7951 26.312,-10.44416 40.4471,-10.44416 16.5189,0 29.1162,2.75125 40.705,8.88998 26.0655,13.8073 41.8679,14.16293 65.6297,1.47701 25.4708,-13.59836 56.3528,-13.91582 81.1203,-0.83392 17.6129,9.30298 29.388,11.59649 45.43068,8.84886 3.3841,-0.57959 11.7261,-4.06182 18.5378,-7.7383 13.2857,-7.1707 24.8526,-10.15784 40.6405,-10.49536 15.7762,-0.33728 25.5783,1.9207 40.0428,9.22406 26.1255,13.19124 43.6377,13.49985 65.0053,1.14558 8.9665,-5.18422 20.7925,-9.06911 30.3405,-9.96701 19.2249,-1.80792 38.3205,1.17698 49.0485,7.66686 11.688,7.0707 24.8839,11.21798 35.6938,11.21798 11.9731,0 20.8408,-2.70328 32.2431,-9.82915 20.165,-12.60208 55.612,-12.92501 78.659,-0.71661 26.0656,13.8073 41.8678,14.16293 65.6297,1.47701 25.4708,-13.59836 56.353,-13.91582 81.1203,-0.83392 17.6131,9.30298 29.3879,11.59649 45.4308,8.84886 3.3838,-0.57959 11.726,-4.06182 18.5377,-7.7383 13.2861,-7.1707 24.8527,-10.15784 40.6406,-10.49536 15.7762,-0.33728 25.5784,1.9207 40.0428,9.22406 26.1255,13.19124 43.6378,13.49985 65.0052,1.14558 8.9665,-5.18422 20.7925,-9.06911 30.3406,-9.96701 19.2249,-1.80792 38.3205,1.17698 49.0483,7.66686 3.3273,2.0128 10.5133,5.37883 15.9688,7.48007 8.2227,3.16696 11.7875,3.78259 20.8414,3.59921 8.4922,-0.17201 13.1755,-1.21985 21.051,-4.70976 9.4233,-4.1761 17.7248,-5.82479 17.7248,-3.52023 0,1.7291 -15.1484,7.16857 -23.7078,8.51291 -21.0481,3.30598 -39.7739,0.34745 -57.4165,-9.07154 -12.0032,-6.40841 -21.6136,-9.06874 -32.7607,-9.06874 -9.7674,0 -16.8133,2.02219 -28.4937,8.17779 -18.0915,9.53449 -28.9327,11.85134 -50.8328,10.86333 -12.1249,-0.54699 -21.6172,-3.18631 -32.0586,-8.91373 -13.1398,-7.20769 -22.7631,-10.12739 -33.38,-10.12739 -12.3257,0 -17.0013,1.36159 -31.8617,9.27823 -6.8199,3.63332 -16.0835,7.40511 -20.5858,8.38177 -17.3815,3.77072 -42.5473,1.06576 -56.5281,-6.076 -22.1391,-11.30948 -29.5526,-13.02452 -46.1212,-10.66945 -4.3005,0.61128 -14.1832,4.23317 -21.9613,8.04864 -15.9639,7.83077 -26.0752,10.47255 -40.0832,10.47255 -15.7087,0 -28.2192,-3.07561 -43.0111,-10.57412 -7.6624,-3.88411 -16.9514,-7.51122 -20.6428,-8.06025 -14.4808,-2.1538 -33.1209,1.18776 -39.6999,7.1169 -4.056,3.65521 -17.4254,8.72535 -26.9545,10.22201 -21.0484,3.30598 -39.7741,0.34745 -57.4165,-9.07154 -12.0035,-6.40841 -21.6139,-9.06874 -32.7608,-9.06874 -9.7676,0 -16.8134,2.02219 -28.4936,8.17779 -18.0915,9.53449 -28.9329,11.85134 -50.8331,10.86333 -12.1249,-0.54699 -21.6172,-3.18631 -32.0584,-8.91373 -13.1397,-7.20769 -22.7631,-10.12739 -33.3799,-10.12739 -12.3259,0 -17.0016,1.36159 -31.8619,9.27823 -6.82,3.63332 -16.0836,7.40511 -20.5857,8.38177 -17.3818,3.77072 -42.54728,1.06576 -56.52788,-6.076 -22.1392,-11.30948 -29.5529,-13.02452 -46.1214,-10.66945 -4.3006,0.61128 -14.1832,4.23317 -21.9613,8.04864 -15.8362,7.76811 -26.0795,10.47255 -39.666,10.47255 -16.0937,0 -26.9386,-2.63684 -43.374,-10.54599 -24.6491,-11.86183 -38.9991,-11.859 -63.4467,0.0125 -16.1797,7.85668 -26.4618,10.53351 -40.4607,10.53351 -15.7087,0 -28.219,-3.07562 -43.0112,-10.57413 -7.6621,-3.88411 -16.9513,-7.51122 -20.6427,-8.06024 -14.4807,-2.15381 -33.1208,1.18775 -39.6999,7.11689 -4.0561,3.65522 -17.4254,8.72536 -26.9544,10.22201 -21.0485,3.30599 -39.7741,0.34745 -57.4166,-9.07153 -12.0035,-6.40841 -21.6139,-9.06874 -32.7607,-9.06874 -9.7676,0 -16.8135,2.02218 -28.4937,8.17779 -18.1235,9.55135 -30.0383,12.02883 -52.0701,10.82711 -11.2829,-0.61541 -20.7088,-3.33037 -30.8213,-8.87751 -13.1398,-7.20769 -22.7632,-10.12739 -33.38,-10.12739 -12.3258,0 -17.0016,1.36158 -31.8618,9.27823 -6.8201,3.63331 -16.0837,7.40511 -20.5857,8.38177 -17.3818,3.77072 -42.5474,1.06576 -56.52801,-6.076 -22.13915,-11.30948 -29.55287,-13.02452 -46.12141,-10.66945 -4.30047,0.61128 -14.18313,4.23317 -21.96134,8.04863 -15.96377,7.83077 -26.07516,10.47256 -40.0832,10.47256 -15.70862,0 -28.219012,-3.07562 -43.011212,-10.57413 -7.66218,-3.88411 -16.9513,-7.51122 -20.64265,-8.06024 -14.48066,-2.15381 -33.12079,1.18775 -39.69999,7.11689 -4.05599,3.65522 -17.4253701,8.72536 -26.9543001,10.22201 -21.0486099,3.30599 -39.7740999,0.34745 -57.4166899,-9.07153 -22.78884,-12.16648 -41.079188,-12.18697 -63.105298,-0.0707 -17.74087,9.759 -34.56472,12.37771 -58.06259,9.03769 z"
       id="path4778"
       inkscape:connector-curvature="0" />
  </g>
</svg>
